new Font-Bold.ufo
<glyph name="year-ar" format="1">
  <advance width="432"/>
  <unicode hex="0601"/>
  <outline>
    <contour>
      <point x="856" y="89"/>
      <point x="840" y="67"/>
      <point x="820" y="37" type="curve"/>
      <point x="869" y="-32" type="line"/>
      <point x="862" y="-48"/>
      <point x="845" y="-62"/>
      <point x="815" y="-62" type="curve" smooth="yes"/>
      <point x="794" y="-62"/>
      <point x="778" y="-57"/>
      <point x="769" y="-47" type="curve" smooth="yes"/>
      <point x="756" y="-32"/>
      <point x="754" y="-13"/>
      <point x="756" y="11" type="curve" smooth="yes"/>
      <point x="757" y="22"/>
      <point x="758" y="32"/>
      <point x="759" y="43" type="curve"/>
      <point x="708" y="24" type="line"/>
      <point x="707" y="16"/>
      <point x="706" y="8"/>
      <point x="705" y="0" type="curve"/>
      <point x="698" y="-35"/>
      <point x="683" y="-62"/>
      <point x="644" y="-62" type="curve" smooth="yes"/>
      <point x="600" y="-62"/>
      <point x="591" y="-28"/>
      <point x="589" y="-2" type="curve"/>
      <point x="589" y="6"/>
      <point x="589" y="18"/>
      <point x="592" y="43" type="curve"/>
      <point x="541" y="24" type="line"/>
      <point x="538" y="5"/>
      <point x="534" y="-12"/>
      <point x="524" y="-27" type="curve"/>
      <point x="514" y="-44"/>
      <point x="498" y="-58"/>
      <point x="472" y="-58" type="curve" smooth="yes"/>
      <point x="-37" y="-58" type="line" smooth="yes"/>
      <point x="-66" y="-58"/>
      <point x="-86" y="-51"/>
      <point x="-98" y="-38" type="curve"/>
      <point x="-121" y="-11"/>
      <point x="-108" y="49"/>
      <point x="-108" y="49" type="curve"/>
      <point x="-159" y="30" type="line"/>
      <point x="-159" y="30"/>
      <point x="-165" y="-58"/>
      <point x="-238" y="-58" type="curve" smooth="yes"/>
      <point x="-260" y="-58"/>
      <point x="-281" y="-58"/>
      <point x="-303" y="-58" type="curve" smooth="yes"/>
      <point x="-333" y="-58"/>
      <point x="-353" y="-37"/>
      <point x="-371" y="-10" type="curve" smooth="yes"/>
      <point x="-388" y="15"/>
      <point x="-413" y="48"/>
      <point x="-457" y="48" type="curve" smooth="yes"/>
      <point x="-503" y="48"/>
      <point x="-543" y="13"/>
      <point x="-584" y="-62" type="curve" smooth="yes"/>
      <point x="-606" y="-102"/>
      <point x="-624" y="-145"/>
      <point x="-650" y="-226" type="curve"/>
      <point x="-588" y="-208" type="line"/>
      <point x="-579" y="-186"/>
      <point x="-563" y="-152"/>
      <point x="-551" y="-131" type="curve" smooth="yes"/>
      <point x="-518" y="-73"/>
      <point x="-492" y="-64"/>
      <point x="-476" y="-64" type="curve" smooth="yes"/>
      <point x="-451" y="-64"/>
      <point x="-437" y="-86"/>
      <point x="-424" y="-110" type="curve" smooth="yes"/>
      <point x="-414" y="-129"/>
      <point x="-403" y="-150"/>
      <point x="-385" y="-167" type="curve" smooth="yes"/>
      <point x="-364" y="-187"/>
      <point x="-338" y="-197"/>
      <point x="-305" y="-197" type="curve" smooth="yes"/>
      <point x="-230" y="-197" type="line" smooth="yes"/>
      <point x="-197" y="-197"/>
      <point x="-172" y="-186"/>
      <point x="-155" y="-174" type="curve" smooth="yes"/>
      <point x="-139" y="-162"/>
      <point x="-130" y="-149"/>
      <point x="-129" y="-147" type="curve"/>
      <point x="-128" y="-149"/>
      <point x="-123" y="-161"/>
      <point x="-105" y="-174" type="curve" smooth="yes"/>
      <point x="-88" y="-186"/>
      <point x="-63" y="-197"/>
      <point x="-23" y="-197" type="curve" smooth="yes"/>
      <point x="465" y="-197" type="line" smooth="yes"/>
      <point x="493" y="-197"/>
      <point x="512" y="-190"/>
      <point x="525" y="-182" type="curve" smooth="yes"/>
      <point x="543" y="-171"/>
      <point x="551" y="-156"/>
      <point x="555" y="-149" type="curve"/>
      <point x="560" y="-160"/>
      <point x="579" y="-193"/>
      <point x="634" y="-193" type="curve" smooth="yes"/>
      <point x="694" y="-193"/>
      <point x="720" y="-156"/>
      <point x="726" y="-144" type="curve"/>
      <point x="735" y="-160"/>
      <point x="762" y="-187"/>
      <point x="813" y="-187" type="curve" smooth="yes"/>
      <point x="855" y="-187"/>
      <point x="889" y="-165"/>
      <point x="913" y="-120" type="curve" smooth="yes"/>
      <point x="932" y="-85"/>
      <point x="938" y="-48"/>
      <point x="938" y="-37" type="curve" smooth="yes"/>
      <point x="938" y="73"/>
      <point x="880" y="115"/>
      <point x="880" y="115" type="curve"/>
    </contour>
  </outline>
</glyph>
<glyph name="footnotemarker-ar" format="1">
  <advance width="600"/>
  <unicode hex="0602"/>
  <outline>
    <contour>
      <point x="-252" y="-69"/>
      <point x="-240" y="-116"/>
      <point x="-202" y="-149" type="curve" smooth="yes"/>
      <point x="-167" y="-179"/>
      <point x="-110" y="-198"/>
      <point x="-24" y="-198" type="curve"/>
      <point x="199" y="-198" type="line"/>
      <point x="371" y="-198"/>
      <point x="544" y="-198"/>
      <point x="600" y="-198" type="curve"/>
      <point x="654" y="-157"/>
      <point x="698" y="-101"/>
      <point x="722" y="-41" type="curve"/>
      <point x="670" y="-50"/>
      <point x="623" y="-56"/>
      <point x="181" y="-59" type="curve"/>
      <point x="-18" y="-59" type="line"/>
      <point x="-12" y="-12"/>
      <point x="-20" y="33"/>
      <point x="-39" y="66" type="curve" smooth="yes"/>
      <point x="-59" y="101"/>
      <point x="-91" y="123"/>
      <point x="-133" y="123" type="curve" smooth="yes"/>
      <point x="-206" y="123"/>
      <point x="-241" y="54"/>
      <point x="-247" y="-17" type="curve" smooth="yes"/>
    </contour>
    <contour>
      <point x="-120" y="-58" type="line"/>
      <point x="-158" y="-58"/>
      <point x="-165" y="-35"/>
      <point x="-165" y="-22" type="curve" smooth="yes"/>
      <point x="-165" y="-2"/>
      <point x="-150" y="15"/>
      <point x="-127" y="15" type="curve" smooth="yes"/>
      <point x="-84" y="15"/>
      <point x="-79" y="-43"/>
      <point x="-79" y="-59" type="curve"/>
    </contour>
  </outline>
</glyph>
<glyph name="uni0602" format="1">
  <advance width="600"/>
  <unicode hex="0602"/>
  <outline>
    <contour>
      <point x="-252" y="-69"/>
      <point x="-240" y="-116"/>
      <point x="-202" y="-149" type="curve" smooth="yes"/>
      <point x="-167" y="-179"/>
      <point x="-110" y="-198"/>
      <point x="-24" y="-198" type="curve"/>
      <point x="199" y="-198" type="line"/>
      <point x="371" y="-198"/>
      <point x="544" y="-198"/>
      <point x="600" y="-198" type="curve"/>
      <point x="654" y="-157"/>
      <point x="698" y="-101"/>
      <point x="722" y="-41" type="curve"/>
      <point x="670" y="-50"/>
      <point x="623" y="-56"/>
      <point x="181" y="-59" type="curve"/>
      <point x="-18" y="-59" type="line"/>
      <point x="-12" y="-12"/>
      <point x="-20" y="33"/>
      <point x="-39" y="66" type="curve" smooth="yes"/>
      <point x="-59" y="101"/>
      <point x="-91" y="123"/>
      <point x="-133" y="123" type="curve" smooth="yes"/>
      <point x="-206" y="123"/>
      <point x="-241" y="54"/>
      <point x="-247" y="-17" type="curve" smooth="yes"/>
    </contour>
    <contour>
      <point x="-123" y="-58" type="line"/>
      <point x="-165" y="-58"/>
      <point x="-172" y="-32"/>
      <point x="-172" y="-18" type="curve" smooth="yes"/>
      <point x="-172" y="4"/>
      <point x="-156" y="23"/>
      <point x="-130" y="23" type="curve" smooth="yes"/>
      <point x="-83" y="23"/>
      <point x="-78" y="-41"/>
      <point x="-78" y="-59" type="curve"/>
    </contour>
  </outline>
</glyph>
<glyph name="uni0608" format="1">
  <advance width="683"/>
  <unicode hex="0608"/>
  <outline>
    <contour>
      <point x="394" y="309"/>
      <point x="362" y="289"/>
      <point x="338" y="244" type="curve" smooth="yes"/>
      <point x="322" y="214"/>
      <point x="310" y="178"/>
      <point x="310" y="136" type="curve" smooth="yes"/>
      <point x="310" y="93"/>
      <point x="322" y="50"/>
      <point x="348" y="27" type="curve" smooth="yes"/>
      <point x="360" y="16"/>
      <point x="386" y="0"/>
      <point x="440" y="0" type="curve" smooth="yes"/>
      <point x="473" y="0" type="line"/>
      <point x="471" y="-30"/>
      <point x="456" y="-60"/>
      <point x="432" y="-82" type="curve" smooth="yes"/>
      <point x="401" y="-111"/>
      <point x="355" y="-125"/>
      <point x="294" y="-125" type="curve" smooth="yes"/>
      <point x="226" y="-125"/>
      <point x="183" y="-113"/>
      <point x="158" y="-82" type="curve" smooth="yes"/>
      <point x="114" y="-27"/>
      <point x="142" y="60"/>
      <point x="142" y="60" type="curve"/>
      <point x="99" y="75" type="line"/>
      <point x="99" y="75"/>
      <point x="67" y="8"/>
      <point x="61" y="-67" type="curve" smooth="yes"/>
      <point x="58" y="-104"/>
      <point x="62" y="-132"/>
      <point x="74" y="-161" type="curve" smooth="yes"/>
      <point x="90" y="-199"/>
      <point x="117" y="-229"/>
      <point x="154" y="-249" type="curve" smooth="yes"/>
      <point x="191" y="-269"/>
      <point x="238" y="-279"/>
      <point x="289" y="-279" type="curve" smooth="yes"/>
      <point x="334" y="-279"/>
      <point x="371" y="-271"/>
      <point x="405" y="-255" type="curve" smooth="yes"/>
      <point x="436" y="-240"/>
      <point x="462" y="-219"/>
      <point x="485" y="-189" type="curve" smooth="yes"/>
      <point x="525" y="-137"/>
      <point x="545" y="-69"/>
      <point x="547" y="0" type="curve"/>
      <point x="589" y="3"/>
      <point x="625" y="12"/>
      <point x="663" y="50" type="curve"/>
      <point x="663" y="178" type="line"/>
      <point x="625" y="144"/>
      <point x="585" y="139"/>
      <point x="544" y="139" type="curve"/>
      <point x="538" y="188"/>
      <point x="526" y="224"/>
      <point x="512" y="250" type="curve" smooth="yes"/>
      <point x="504" y="265"/>
      <point x="477" y="309"/>
      <point x="427" y="309" type="curve" smooth="yes"/>
    </contour>
    <contour>
      <point x="447" y="219"/>
      <point x="462" y="172"/>
      <point x="469" y="140" type="curve"/>
      <point x="421" y="140" type="line" smooth="yes"/>
      <point x="370" y="140"/>
      <point x="363" y="155"/>
      <point x="363" y="173" type="curve" smooth="yes"/>
      <point x="363" y="206"/>
      <point x="387" y="219"/>
      <point x="408" y="219" type="curve" smooth="yes"/>
    </contour>
    <contour>
      <point x="63" y="54"/>
      <point x="23" y="33"/>
      <point x="-26" y="20" type="curve"/>
      <point x="19" y="-42" type="line"/>
      <point x="113" y="1" type="line"/>
      <point x="99" y="75" type="line"/>
    </contour>
    <contour>
      <point x="414" y="342" type="move" name="top"/>
    </contour>
    <contour>
      <point x="289" y="-318" type="move" name="bottom"/>
    </contour>
  </outline>
</glyph>
<glyph name="afghani-ar" format="1">
  <advance width="353"/>
  <unicode hex="060B"/>
  <outline>
    <contour>
      <point x="294" y="385"/>
      <point x="251" y="471"/>
      <point x="178" y="471" type="curve" smooth="yes"/>
      <point x="139" y="471"/>
      <point x="110" y="447"/>
      <point x="90" y="414" type="curve" smooth="yes"/>
      <point x="68" y="377"/>
      <point x="57" y="332"/>
      <point x="57" y="297" type="curve" smooth="yes"/>
      <point x="57" y="257"/>
      <point x="71" y="235"/>
      <point x="89" y="220" type="curve"/>
      <point x="108" y="202"/>
      <point x="137" y="193"/>
      <point x="171" y="193" type="curve" smooth="yes"/>
      <point x="194" y="193"/>
      <point x="216" y="197"/>
      <point x="228" y="201" type="curve"/>
      <point x="220" y="182"/>
      <point x="206" y="162"/>
      <point x="182" y="151" type="curve" smooth="yes"/>
      <point x="163" y="143"/>
      <point x="139" y="139"/>
      <point x="109" y="139" type="curve" smooth="yes"/>
      <point x="-80" y="139" type="line"/>
      <point x="-79" y="0" type="line"/>
      <point x="68" y="0" type="line" smooth="yes"/>
      <point x="135" y="0"/>
      <point x="185" y="12"/>
      <point x="221" y="42" type="curve" smooth="yes"/>
      <point x="248" y="64"/>
      <point x="273" y="99"/>
      <point x="289" y="158" type="curve" smooth="yes"/>
      <point x="301" y="201"/>
      <point x="306" y="252"/>
      <point x="302" y="297" type="curve" smooth="yes"/>
    </contour>
    <contour>
      <point x="200" y="302"/>
      <point x="189" y="298"/>
      <point x="169" y="298" type="curve" smooth="yes"/>
      <point x="131" y="298"/>
      <point x="124" y="313"/>
      <point x="124" y="326" type="curve" smooth="yes"/>
      <point x="124" y="346"/>
      <point x="139" y="363"/>
      <point x="162" y="363" type="curve" smooth="yes"/>
      <point x="199" y="363"/>
      <point x="208" y="316"/>
      <point x="210" y="310" type="curve"/>
    </contour>
    <component base="alefbelow-ar" xOffset="127" yOffset="-40" xScale="1.25" yScale="1.25"/>
    <component base="dotabove-ar" xOffset="179" yOffset="-139"/>
  </outline>
</glyph>
<glyph name="uni060E" format="1">
  <advance width="739"/>
  <unicode hex="060E"/>
  <outline>
    <contour>
      <point x="699" y="111"/>
      <point x="675" y="135"/>
      <point x="645" y="135" type="curve" smooth="yes"/>
      <point x="633" y="135"/>
      <point x="621" y="131"/>
      <point x="613" y="125" type="curve"/>
      <point x="589" y="154"/>
      <point x="575" y="177"/>
      <point x="568" y="192" type="curve"/>
      <point x="578" y="196"/>
      <point x="588" y="204"/>
      <point x="594" y="215" type="curve"/>
      <point x="600" y="227"/>
      <point x="600" y="246"/>
      <point x="593" y="260" type="curve" smooth="yes"/>
      <point x="576" y="286"/>
      <point x="584" y="299"/>
      <point x="603" y="315" type="curve"/>
      <point x="571" y="325"/>
      <point x="545" y="324"/>
      <point x="530" y="309" type="curve"/>
      <point x="518" y="299"/>
      <point x="511" y="281"/>
      <point x="511" y="260" type="curve"/>
      <point x="490" y="271"/>
      <point x="461" y="274"/>
      <point x="413" y="266" type="curve" smooth="yes"/>
      <point x="361" y="259"/>
      <point x="343" y="265"/>
      <point x="346" y="297" type="curve"/>
      <point x="324" y="291"/>
      <point x="303" y="277"/>
      <point x="300" y="254" type="curve" smooth="yes"/>
      <point x="299" y="241"/>
      <point x="301" y="227"/>
      <point x="313" y="215" type="curve"/>
      <point x="290" y="194"/>
      <point x="243" y="121"/>
      <point x="233" y="109" type="curve"/>
      <point x="199" y="66"/>
      <point x="165" y="47"/>
      <point x="144" y="46" type="curve"/>
      <point x="136" y="44"/>
      <point x="130" y="46"/>
      <point x="124" y="47" type="curve"/>
      <point x="140" y="56"/>
      <point x="151" y="75"/>
      <point x="151" y="94" type="curve" smooth="yes"/>
      <point x="151" y="125"/>
      <point x="128" y="149"/>
      <point x="99" y="149" type="curve" smooth="yes"/>
      <point x="64" y="149"/>
      <point x="43" y="119"/>
      <point x="40" y="86" type="curve"/>
      <point x="40" y="32"/>
      <point x="85" y="-1"/>
      <point x="138" y="-1" type="curve" smooth="yes"/>
      <point x="199" y="-1"/>
      <point x="241" y="40"/>
      <point x="288" y="92" type="curve" smooth="yes"/>
      <point x="333" y="142"/>
      <point x="381" y="202"/>
      <point x="439" y="202" type="curve" smooth="yes"/>
      <point x="489" y="206"/>
      <point x="518" y="172"/>
      <point x="551" y="134" type="curve"/>
      <point x="546" y="127"/>
      <point x="538" y="116"/>
      <point x="530" y="106" type="curve"/>
      <point x="521" y="116"/>
      <point x="509" y="129"/>
      <point x="486" y="140" type="curve"/>
      <point x="476" y="171"/>
      <point x="456" y="181"/>
      <point x="421" y="181" type="curve"/>
      <point x="424" y="169"/>
      <point x="414" y="154"/>
      <point x="401" y="147" type="curve"/>
      <point x="378" y="131"/>
      <point x="350" y="111"/>
      <point x="350" y="74" type="curve" smooth="yes"/>
      <point x="350" y="30"/>
      <point x="383" y="0"/>
      <point x="431" y="0" type="curve" smooth="yes"/>
      <point x="463" y="0"/>
      <point x="499" y="12"/>
      <point x="530" y="35" type="curve"/>
      <point x="565" y="4"/>
      <point x="608" y="-6"/>
      <point x="646" y="10" type="curve" smooth="yes"/>
      <point x="678" y="22"/>
      <point x="699" y="52"/>
      <point x="699" y="81" type="curve" smooth="yes"/>
    </contour>
    <contour>
      <point x="481" y="60"/>
      <point x="464" y="52"/>
      <point x="446" y="50" type="curve" smooth="yes"/>
      <point x="430" y="49"/>
      <point x="393" y="56"/>
      <point x="399" y="85" type="curve"/>
      <point x="403" y="102"/>
      <point x="424" y="104"/>
      <point x="431" y="104" type="curve" smooth="yes"/>
      <point x="456" y="104"/>
      <point x="481" y="86"/>
      <point x="496" y="72" type="curve"/>
    </contour>
    <contour>
      <point x="590" y="46"/>
      <point x="574" y="54"/>
      <point x="561" y="66" type="curve"/>
      <point x="569" y="75"/>
      <point x="578" y="86"/>
      <point x="586" y="96" type="curve"/>
      <point x="588" y="94"/>
      <point x="590" y="91"/>
      <point x="593" y="90" type="curve"/>
      <point x="590" y="80"/>
      <point x="590" y="60"/>
      <point x="606" y="44" type="curve"/>
    </contour>
  </outline>
</glyph>
<glyph name="uni060F" format="1">
  <advance width="522"/>
  <unicode hex="060F"/>
  <outline>
    <contour>
      <point x="519" y="-47"/>
      <point x="472" y="32"/>
      <point x="376" y="32" type="curve" smooth="yes"/>
      <point x="308" y="32"/>
      <point x="263" y="-16"/>
      <point x="235" y="-71" type="curve" smooth="yes"/>
      <point x="213" y="-115"/>
      <point x="202" y="-164"/>
      <point x="198" y="-194" type="curve"/>
      <point x="193" y="-189"/>
      <point x="142" y="-136"/>
      <point x="151" y="-54" type="curve" smooth="yes"/>
      <point x="158" y="4"/>
      <point x="187" y="46"/>
      <point x="230" y="78" type="curve" smooth="yes"/>
      <point x="279" y="114"/>
      <point x="346" y="138"/>
      <point x="422" y="159" type="curve"/>
      <point x="436" y="196"/>
      <point x="444" y="229"/>
      <point x="452" y="270" type="curve"/>
      <point x="379" y="248"/>
      <point x="298" y="221"/>
      <point x="263" y="206" type="curve"/>
      <point x="207" y="219"/>
      <point x="191" y="242"/>
      <point x="180" y="260" type="curve"/>
      <point x="195" y="273"/>
      <point x="219" y="290"/>
      <point x="255" y="300" type="curve" smooth="yes"/>
      <point x="297" y="311"/>
      <point x="321" y="307"/>
      <point x="361" y="296" type="curve"/>
      <point x="396" y="344" type="line"/>
      <point x="361" y="376"/>
      <point x="311" y="403"/>
      <point x="259" y="403" type="curve" smooth="yes"/>
      <point x="205" y="403"/>
      <point x="160" y="366"/>
      <point x="135" y="331" type="curve" smooth="yes"/>
      <point x="109" y="293"/>
      <point x="98" y="251"/>
      <point x="106" y="216" type="curve" smooth="yes"/>
      <point x="112" y="188"/>
      <point x="135" y="158"/>
      <point x="165" y="136" type="curve"/>
      <point x="134" y="108"/>
      <point x="74" y="43"/>
      <point x="62" y="-89" type="curve" smooth="yes"/>
      <point x="54" y="-180"/>
      <point x="77" y="-246"/>
      <point x="121" y="-295" type="curve" smooth="yes"/>
      <point x="140" y="-316"/>
      <point x="161" y="-333"/>
      <point x="185" y="-345" type="curve"/>
      <point x="184" y="-366"/>
      <point x="182" y="-391"/>
      <point x="181" y="-400" type="curve"/>
      <point x="244" y="-427" type="line"/>
      <point x="246" y="-412"/>
      <point x="248" y="-386"/>
      <point x="249" y="-367" type="curve"/>
      <point x="259" y="-369"/>
      <point x="358" y="-379"/>
      <point x="434" y="-327" type="curve" smooth="yes"/>
      <point x="482" y="-295"/>
      <point x="520" y="-239"/>
      <point x="522" y="-141" type="curve"/>
    </contour>
    <contour>
      <point x="451" y="-153"/>
      <point x="428" y="-186"/>
      <point x="395" y="-205" type="curve" smooth="yes"/>
      <point x="356" y="-229"/>
      <point x="303" y="-234"/>
      <point x="262" y="-220" type="curve"/>
      <point x="262" y="-220"/>
      <point x="264" y="-173"/>
      <point x="283" y="-128" type="curve" smooth="yes"/>
      <point x="300" y="-86"/>
      <point x="331" y="-45"/>
      <point x="387" y="-43" type="curve" smooth="yes"/>
      <point x="422" y="-42"/>
      <point x="451" y="-73"/>
      <point x="451" y="-108" type="curve" smooth="yes"/>
    </contour>
  </outline>
</glyph>
<glyph name="uni0613" format="1">
  <advance width="0"/>
  <unicode hex="0613"/>
  <outline>
    <contour>
      <point x="-134" y="773"/>
      <point x="-127" y="764"/>
      <point x="-122" y="755" type="curve"/>
      <point x="-122" y="755"/>
      <point x="-106" y="731"/>
      <point x="-99" y="699" type="curve"/>
      <point x="-93" y="701" type="line"/>
      <point x="-88" y="713"/>
      <point x="-87" y="725"/>
      <point x="-87" y="731" type="curve" smooth="yes"/>
      <point x="-87" y="738"/>
      <point x="-87" y="744"/>
      <point x="-88" y="751" type="curve"/>
      <point x="-83" y="749"/>
      <point x="-78" y="749"/>
      <point x="-71" y="748" type="curve" smooth="yes"/>
      <point x="-65" y="747"/>
      <point x="-59" y="747"/>
      <point x="-52" y="747" type="curve" smooth="yes"/>
      <point x="-30" y="747"/>
      <point x="-5" y="756"/>
      <point x="15" y="772" type="curve"/>
      <point x="25" y="780"/>
      <point x="34" y="789"/>
      <point x="39" y="798" type="curve"/>
      <point x="46" y="808"/>
      <point x="49" y="819"/>
      <point x="49" y="830" type="curve" smooth="yes"/>
      <point x="49" y="839"/>
      <point x="43" y="849"/>
      <point x="34" y="857" type="curve" smooth="yes"/>
      <point x="25" y="863"/>
      <point x="15" y="867"/>
      <point x="7" y="867" type="curve" smooth="yes"/>
      <point x="-19" y="867"/>
      <point x="-45" y="842"/>
      <point x="-55" y="830" type="curve" smooth="yes"/>
      <point x="-70" y="814"/>
      <point x="-81" y="799"/>
      <point x="-84" y="793" type="curve"/>
      <point x="-100" y="794"/>
      <point x="-112" y="810"/>
      <point x="-118" y="818" type="curve"/>
      <point x="-127" y="808"/>
      <point x="-135" y="796"/>
      <point x="-142" y="783" type="curve"/>
    </contour>
    <contour>
      <point x="-56" y="799"/>
      <point x="-51" y="805"/>
      <point x="-45" y="811" type="curve"/>
      <point x="-35" y="821"/>
      <point x="-25" y="830"/>
      <point x="-9" y="830" type="curve" smooth="yes"/>
      <point x="-2" y="830"/>
      <point x="3" y="828"/>
      <point x="7" y="826" type="curve"/>
      <point x="13" y="821"/>
      <point x="16" y="814"/>
      <point x="17" y="811" type="curve"/>
      <point x="15" y="809"/>
      <point x="8" y="802"/>
      <point x="-6" y="797" type="curve"/>
      <point x="-12" y="795"/>
      <point x="-20" y="793"/>
      <point x="-30" y="793" type="curve" smooth="yes"/>
      <point x="-60" y="793" type="line"/>
    </contour>
    <contour>
      <point x="-5" y="904"/>
      <point x="3" y="895"/>
      <point x="9" y="889" type="curve"/>
      <point x="15" y="895"/>
      <point x="27" y="906"/>
      <point x="30" y="910" type="curve"/>
      <point x="26" y="918"/>
      <point x="17" y="928"/>
      <point x="7" y="933" type="curve"/>
      <point x="3" y="929"/>
      <point x="-9" y="917"/>
      <point x="-15" y="911" type="curve"/>
    </contour>
    <contour>
      <point x="23" y="700" type="line"/>
      <point x="31" y="703"/>
      <point x="43" y="704"/>
      <point x="49" y="704" type="curve" smooth="yes"/>
      <point x="56" y="704"/>
      <point x="59" y="703"/>
      <point x="67" y="703" type="curve" smooth="yes"/>
      <point x="80" y="703"/>
      <point x="89" y="706"/>
      <point x="97" y="711" type="curve"/>
      <point x="105" y="716"/>
      <point x="111" y="725"/>
      <point x="116" y="733" type="curve"/>
      <point x="128" y="753"/>
      <point x="132" y="779"/>
      <point x="132" y="796" type="curve" smooth="yes"/>
      <point x="132" y="824"/>
      <point x="124" y="842"/>
      <point x="114" y="854" type="curve" smooth="yes"/>
      <point x="108" y="862"/>
      <point x="104" y="866"/>
      <point x="104" y="866" type="curve"/>
      <point x="95" y="855"/>
      <point x="87" y="842"/>
      <point x="79" y="830" type="curve"/>
      <point x="79" y="830"/>
      <point x="86" y="826"/>
      <point x="94" y="815" type="curve" smooth="yes"/>
      <point x="100" y="808"/>
      <point x="106" y="799"/>
      <point x="106" y="788" type="curve" smooth="yes"/>
      <point x="106" y="768"/>
      <point x="88" y="756"/>
      <point x="63" y="742" type="curve"/>
      <point x="55" y="737"/>
      <point x="41" y="730"/>
      <point x="28" y="722" type="curve" smooth="yes"/>
      <point x="23" y="720"/>
      <point x="18" y="717"/>
      <point x="13" y="715" type="curve"/>
    </contour>
    <contour>
      <point x="-5" y="933" type="move" name="top"/>
    </contour>
    <contour>
      <point x="-5" y="679" type="move" name="_top"/>
    </contour>
  </outline>
</glyph>
<glyph name="hamza-ar" format="1">
  <advance width="357"/>
  <unicode hex="0621"/>
  <outline>
    <contour>
      <point x="288" y="134"/>
      <point x="267" y="131"/>
      <point x="248" y="128" type="curve" smooth="yes"/>
      <point x="225" y="125"/>
      <point x="215" y="124"/>
      <point x="194" y="130" type="curve" smooth="yes"/>
      <point x="165" y="138"/>
      <point x="156" y="147"/>
      <point x="154" y="153" type="curve"/>
      <point x="162" y="159"/>
      <point x="183" y="169"/>
      <point x="211" y="169" type="curve" smooth="yes"/>
      <point x="224" y="169"/>
      <point x="238" y="166"/>
      <point x="252" y="160" type="curve"/>
      <point x="271" y="178" type="line"/>
      <point x="269" y="205"/>
      <point x="248" y="231"/>
      <point x="206" y="231" type="curve" smooth="yes"/>
      <point x="179" y="231"/>
      <point x="152" y="222"/>
      <point x="127" y="201" type="curve" smooth="yes"/>
      <point x="109" y="186"/>
      <point x="94" y="168"/>
      <point x="88" y="161" type="curve" smooth="yes"/>
      <point x="82" y="153"/>
      <point x="80" y="146"/>
      <point x="80" y="137" type="curve" smooth="yes"/>
      <point x="80" y="120"/>
      <point x="93" y="98"/>
      <point x="124" y="84" type="curve"/>
      <point x="104" y="72"/>
      <point x="78" y="55"/>
      <point x="66" y="38" type="curve" smooth="yes"/>
      <point x="59" y="29"/>
      <point x="60" y="21"/>
      <point x="62" y="16" type="curve" smooth="yes"/>
      <point x="66" y="3"/>
      <point x="74" y="0"/>
      <point x="83" y="0" type="curve" smooth="yes"/>
      <point x="83" y="0"/>
      <point x="126" y="28"/>
      <point x="175" y="44" type="curve" smooth="yes"/>
      <point x="206" y="55"/>
      <point x="239" y="64"/>
      <point x="271" y="65" type="curve"/>
      <point x="287" y="90"/>
      <point x="297" y="111"/>
      <point x="308" y="138" type="curve"/>
    </contour>
  </outline>
</glyph>
<glyph name="dal-ar" format="1">
  <advance width="463"/>
  <unicode hex="062F"/>
  <outline>
    <contour>
      <point x="413" y="224"/>
      <point x="399" y="293"/>
      <point x="333" y="352" type="curve" smooth="yes"/>
      <point x="280" y="399"/>
      <point x="217" y="419"/>
      <point x="217" y="419" type="curve"/>
      <point x="202" y="379"/>
      <point x="192" y="340"/>
      <point x="182" y="298" type="curve"/>
      <point x="270" y="266"/>
      <point x="330" y="198"/>
      <point x="344" y="180" type="curve"/>
      <point x="333" y="165"/>
      <point x="299" y="127"/>
      <point x="232" y="127" type="curve" smooth="yes"/>
      <point x="191" y="127" type="line" smooth="yes"/>
      <point x="134" y="127"/>
      <point x="114" y="151"/>
      <point x="114" y="209" type="curve" smooth="yes"/>
      <point x="114" y="211"/>
      <point x="114" y="214"/>
      <point x="114" y="214" type="curve"/>
      <point x="66" y="196" type="line"/>
      <point x="66" y="196"/>
      <point x="41" y="100"/>
      <point x="90" y="38" type="curve" smooth="yes"/>
      <point x="114" y="8"/>
      <point x="153" y="-10"/>
      <point x="211" y="-10" type="curve" smooth="yes"/>
      <point x="272" y="-10"/>
      <point x="323" y="10"/>
      <point x="359" y="47" type="curve" smooth="yes"/>
      <point x="392" y="81"/>
      <point x="413" y="133"/>
      <point x="413" y="183" type="curve" smooth="yes"/>
    </contour>
    <contour>
      <point x="197" y="439" type="move" name="top"/>
    </contour>
    <contour>
      <point x="211" y="-30" type="move" name="bottom"/>
    </contour>
  </outline>
</glyph>
<glyph name="reh-ar" format="1">
  <advance width="286"/>
  <unicode hex="0631"/>
  <outline>
    <contour>
      <point x="125" y="255"/>
      <point x="101" y="219"/>
      <point x="78" y="181" type="curve"/>
      <point x="78" y="181"/>
      <point x="98" y="168"/>
      <point x="123" y="137" type="curve" smooth="yes"/>
      <point x="141" y="115"/>
      <point x="158" y="87"/>
      <point x="158" y="54" type="curve" smooth="yes"/>
      <point x="158" y="-6"/>
      <point x="104" y="-42"/>
      <point x="30" y="-84" type="curve" smooth="yes"/>
      <point x="5" y="-98"/>
      <point x="-35" y="-120"/>
      <point x="-76" y="-142" type="curve" smooth="yes"/>
      <point x="-115" y="-163"/>
      <point x="-120" y="-165"/>
      <point x="-120" y="-165" type="curve"/>
      <point x="-90" y="-208" type="line"/>
      <point x="-65" y="-200"/>
      <point x="-32" y="-197"/>
      <point x="-11" y="-197" type="curve" smooth="yes"/>
      <point x="10" y="-197"/>
      <point x="18" y="-200"/>
      <point x="41" y="-200" type="curve" smooth="yes"/>
      <point x="79" y="-200"/>
      <point x="107" y="-192"/>
      <point x="132" y="-175" type="curve" smooth="yes"/>
      <point x="154" y="-160"/>
      <point x="174" y="-136"/>
      <point x="189" y="-110" type="curve" smooth="yes"/>
      <point x="225" y="-48"/>
      <point x="236" y="29"/>
      <point x="236" y="81" type="curve" smooth="yes"/>
      <point x="236" y="162"/>
      <point x="210" y="216"/>
      <point x="184" y="252" type="curve" smooth="yes"/>
      <point x="166" y="277"/>
      <point x="152" y="288"/>
      <point x="152" y="288" type="curve"/>
    </contour>
    <contour>
      <point x="112" y="308" type="move" name="top"/>
    </contour>
    <contour>
      <point x="11" y="-220" type="move" name="bottom"/>
    </contour>
  </outline>
</glyph>
<glyph name="seen-ar" format="1">
  <advance width="915"/>
  <unicode hex="0633"/>
  <outline>
    <contour>
      <point x="781" y="284"/>
      <point x="764" y="263"/>
      <point x="747" y="234" type="curve"/>
      <point x="795" y="165" type="line"/>
      <point x="787" y="149"/>
      <point x="771" y="135"/>
      <point x="742" y="135" type="curve" smooth="yes"/>
      <point x="682" y="135"/>
      <point x="675" y="179"/>
      <point x="685" y="240" type="curve"/>
      <point x="634" y="221" type="line"/>
      <point x="629" y="175"/>
      <point x="610" y="135"/>
      <point x="559" y="135" type="curve" smooth="yes"/>
      <point x="543" y="135"/>
      <point x="496" y="150"/>
      <point x="471" y="213" type="curve"/>
      <point x="444" y="183"/>
      <point x="418" y="147"/>
      <point x="398" y="109" type="curve"/>
      <point x="446" y="46"/>
      <point x="487" y="-13"/>
      <point x="487" y="-45" type="curve" smooth="yes"/>
      <point x="487" y="-65"/>
      <point x="471" y="-84"/>
      <point x="441" y="-100" type="curve" smooth="yes"/>
      <point x="409" y="-117"/>
      <point x="361" y="-131"/>
      <point x="304" y="-131" type="curve" smooth="yes"/>
      <point x="244" y="-131"/>
      <point x="187" y="-116"/>
      <point x="158" y="-81" type="curve" smooth="yes"/>
      <point x="131" y="-48"/>
      <point x="130" y="1"/>
      <point x="142" y="54" type="curve"/>
      <point x="99" y="69" type="line"/>
      <point x="79" y="28"/>
      <point x="64" y="-25"/>
      <point x="61" y="-68" type="curve" smooth="yes"/>
      <point x="59" y="-99"/>
      <point x="62" y="-134"/>
      <point x="75" y="-166" type="curve" smooth="yes"/>
      <point x="92" y="-207"/>
      <point x="123" y="-238"/>
      <point x="164" y="-258" type="curve" smooth="yes"/>
      <point x="200" y="-275"/>
      <point x="242" y="-284"/>
      <point x="295" y="-284" type="curve" smooth="yes"/>
      <point x="335" y="-284"/>
      <point x="367" y="-279"/>
      <point x="400" y="-268" type="curve" smooth="yes"/>
      <point x="430" y="-258"/>
      <point x="457" y="-245"/>
      <point x="484" y="-220" type="curve" smooth="yes"/>
      <point x="508" y="-198"/>
      <point x="558" y="-140"/>
      <point x="558" y="-29" type="curve" smooth="yes"/>
      <point x="558" y="-18"/>
      <point x="558" y="2"/>
      <point x="557" y="13" type="curve"/>
      <point x="578" y="7"/>
      <point x="599" y="8"/>
      <point x="616" y="15" type="curve" smooth="yes"/>
      <point x="632" y="22"/>
      <point x="645" y="35"/>
      <point x="652" y="53" type="curve"/>
      <point x="656" y="45"/>
      <point x="665" y="35"/>
      <point x="679" y="26" type="curve" smooth="yes"/>
      <point x="693" y="17"/>
      <point x="713" y="10"/>
      <point x="740" y="10" type="curve" smooth="yes"/>
      <point x="777" y="10"/>
      <point x="811" y="34"/>
      <point x="834" y="66" type="curve" smooth="yes"/>
      <point x="853" y="94"/>
      <point x="865" y="128"/>
      <point x="865" y="160" type="curve" smooth="yes"/>
      <point x="865" y="270"/>
      <point x="806" y="312"/>
      <point x="806" y="312" type="curve"/>
    </contour>
    <contour>
      <point x="645" y="260" type="move" name="top"/>
    </contour>
    <contour>
      <point x="295" y="-304" type="move" name="bottom"/>
    </contour>
  </outline>
</glyph>
<glyph name="sad-ar" format="1">
  <advance width="1018"/>
  <unicode hex="0635"/>
  <outline>
    <contour>
      <point x="968" y="278"/>
      <point x="952" y="306"/>
      <point x="923" y="329" type="curve" smooth="yes"/>
      <point x="899" y="348"/>
      <point x="868" y="360"/>
      <point x="844" y="360" type="curve" smooth="yes"/>
      <point x="765" y="360"/>
      <point x="687" y="283"/>
      <point x="657" y="250" type="curve" smooth="yes"/>
      <point x="612" y="200"/>
      <point x="580" y="154"/>
      <point x="570" y="138" type="curve"/>
      <point x="523" y="142"/>
      <point x="485" y="189"/>
      <point x="471" y="211" type="curve"/>
      <point x="444" y="181"/>
      <point x="418" y="145"/>
      <point x="398" y="107" type="curve"/>
      <point x="446" y="44"/>
      <point x="487" y="-15"/>
      <point x="487" y="-47" type="curve" smooth="yes"/>
      <point x="487" y="-67"/>
      <point x="471" y="-86"/>
      <point x="441" y="-102" type="curve" smooth="yes"/>
      <point x="409" y="-119"/>
      <point x="361" y="-133"/>
      <point x="304" y="-133" type="curve" smooth="yes"/>
      <point x="244" y="-133"/>
      <point x="187" y="-118"/>
      <point x="158" y="-83" type="curve" smooth="yes"/>
      <point x="131" y="-50"/>
      <point x="130" y="-1"/>
      <point x="142" y="52" type="curve"/>
      <point x="99" y="67" type="line"/>
      <point x="79" y="26"/>
      <point x="64" y="-27"/>
      <point x="61" y="-70" type="curve" smooth="yes"/>
      <point x="59" y="-101"/>
      <point x="62" y="-136"/>
      <point x="75" y="-168" type="curve" smooth="yes"/>
      <point x="92" y="-209"/>
      <point x="123" y="-240"/>
      <point x="164" y="-260" type="curve" smooth="yes"/>
      <point x="200" y="-277"/>
      <point x="242" y="-286"/>
      <point x="295" y="-286" type="curve" smooth="yes"/>
      <point x="388" y="-286"/>
      <point x="450" y="-256"/>
      <point x="490" y="-216" type="curve" smooth="yes"/>
      <point x="548" y="-160"/>
      <point x="562" y="-83"/>
      <point x="562" y="-46" type="curve" smooth="yes"/>
      <point x="562" y="-27"/>
      <point x="562" y="-8"/>
      <point x="559" y="12" type="curve"/>
      <point x="574" y="7"/>
      <point x="591" y="5"/>
      <point x="610" y="3" type="curve" smooth="yes"/>
      <point x="627" y="2"/>
      <point x="646" y="2"/>
      <point x="667" y="2" type="curve" smooth="yes"/>
      <point x="733" y="2"/>
      <point x="808" y="29"/>
      <point x="867" y="75" type="curve" smooth="yes"/>
      <point x="897" y="98"/>
      <point x="922" y="125"/>
      <point x="939" y="153" type="curve" smooth="yes"/>
      <point x="959" y="184"/>
      <point x="968" y="217"/>
      <point x="968" y="249" type="curve" smooth="yes"/>
    </contour>
    <contour>
      <point x="869" y="186"/>
      <point x="847" y="164"/>
      <point x="806" y="151" type="curve" smooth="yes"/>
      <point x="786" y="144"/>
      <point x="762" y="139"/>
      <point x="732" y="139" type="curve" smooth="yes"/>
      <point x="643" y="139" type="line"/>
      <point x="654" y="156"/>
      <point x="669" y="174"/>
      <point x="688" y="193" type="curve" smooth="yes"/>
      <point x="716" y="222"/>
      <point x="749" y="249"/>
      <point x="797" y="249" type="curve" smooth="yes"/>
      <point x="817" y="249"/>
      <point x="832" y="244"/>
      <point x="843" y="236" type="curve" smooth="yes"/>
      <point x="862" y="223"/>
      <point x="871" y="201"/>
      <point x="874" y="191" type="curve"/>
    </contour>
    <contour>
      <point x="824" y="380" type="move" name="top"/>
    </contour>
    <contour>
      <point x="295" y="-306" type="move" name="bottom"/>
    </contour>
  </outline>
</glyph>
<glyph name="uni0640" format="1">
  <advance width="218"/>
  <unicode hex="0640"/>
  <outline>
    <contour>
      <point x="-11" y="139" type="line" smooth="yes"/>
      <point x="-54" y="139"/>
      <point x="-80" y="103"/>
      <point x="-80" y="69" type="curve" smooth="yes"/>
      <point x="-80" y="31"/>
      <point x="-50" y="0"/>
      <point x="-11" y="0" type="curve" smooth="yes"/>
      <point x="218" y="0" type="line"/>
      <point x="218" y="139" type="line"/>
    </contour>
  </outline>
</glyph>
<glyph name="meem-ar" format="1">
  <advance width="404"/>
  <unicode hex="0645"/>
  <outline>
    <contour>
      <point x="354" y="232"/>
      <point x="328" y="268"/>
      <point x="291" y="293" type="curve" smooth="yes"/>
      <point x="270" y="308"/>
      <point x="245" y="319"/>
      <point x="218" y="319" type="curve" smooth="yes"/>
      <point x="179" y="319"/>
      <point x="150" y="298"/>
      <point x="135" y="258" type="curve" smooth="yes"/>
      <point x="128" y="241"/>
      <point x="125" y="224"/>
      <point x="124" y="209" type="curve"/>
      <point x="137" y="218"/>
      <point x="183" y="233"/>
      <point x="219" y="214" type="curve"/>
      <point x="149" y="207"/>
      <point x="90" y="161"/>
      <point x="69" y="103" type="curve" smooth="yes"/>
      <point x="60" y="77"/>
      <point x="57" y="47"/>
      <point x="62" y="12" type="curve" smooth="yes"/>
      <point x="66" y="-23"/>
      <point x="72" y="-64"/>
      <point x="80" y="-106" type="curve" smooth="yes"/>
      <point x="86" y="-138"/>
      <point x="100" y="-240"/>
      <point x="109" y="-316" type="curve"/>
      <point x="161" y="-296" type="line"/>
      <point x="161" y="-185"/>
      <point x="156" y="-82"/>
      <point x="143" y="9" type="curve" smooth="yes"/>
      <point x="139" y="34"/>
      <point x="145" y="54"/>
      <point x="160" y="70" type="curve" smooth="yes"/>
      <point x="176" y="88"/>
      <point x="204" y="101"/>
      <point x="240" y="109" type="curve" smooth="yes"/>
      <point x="259" y="113"/>
      <point x="300" y="116"/>
      <point x="337" y="116" type="curve" smooth="yes"/>
      <point x="348" y="157"/>
      <point x="354" y="198"/>
      <point x="354" y="232" type="curve"/>
    </contour>
    <contour>
      <point x="218" y="339" type="move" name="top"/>
    </contour>
    <contour>
      <point x="141" y="-326" type="move" name="bottom"/>
    </contour>
  </outline>
</glyph>
<glyph name="heh-ar" format="1">
  <advance width="390"/>
  <unicode hex="0647"/>
  <outline>
    <contour>
      <point x="340" y="199"/>
      <point x="327" y="236"/>
      <point x="306" y="266" type="curve" smooth="yes"/>
      <point x="288" y="291"/>
      <point x="266" y="312"/>
      <point x="240" y="329" type="curve" smooth="yes"/>
      <point x="212" y="348"/>
      <point x="180" y="362"/>
      <point x="147" y="371" type="curve"/>
      <point x="110" y="339"/>
      <point x="84" y="309"/>
      <point x="60" y="274" type="curve"/>
      <point x="100" y="258" type="line"/>
      <point x="79" y="222"/>
      <point x="63" y="171"/>
      <point x="66" y="126" type="curve" smooth="yes"/>
      <point x="67" y="86"/>
      <point x="79" y="53"/>
      <point x="94" y="33" type="curve" smooth="yes"/>
      <point x="116" y="5"/>
      <point x="149" y="-10"/>
      <point x="192" y="-10" type="curve" smooth="yes"/>
      <point x="254" y="-10"/>
      <point x="294" y="13"/>
      <point x="317" y="53" type="curve" smooth="yes"/>
      <point x="338" y="88"/>
      <point x="340" y="133"/>
      <point x="340" y="152" type="curve" smooth="yes"/>
    </contour>
    <contour>
      <point x="255" y="186"/>
      <point x="273" y="175"/>
      <point x="276" y="161" type="curve"/>
      <point x="276" y="143"/>
      <point x="256" y="132"/>
      <point x="227" y="132" type="curve" smooth="yes"/>
      <point x="195" y="132"/>
      <point x="160" y="137"/>
      <point x="145" y="151" type="curve" smooth="yes"/>
      <point x="133" y="162"/>
      <point x="127" y="177"/>
      <point x="127" y="198" type="curve" smooth="yes"/>
      <point x="127" y="225"/>
      <point x="144" y="240"/>
      <point x="144" y="240" type="curve"/>
      <point x="174" y="229"/>
      <point x="209" y="214"/>
      <point x="229" y="202" type="curve" smooth="yes"/>
    </contour>
    <contour>
      <point x="147" y="391" type="move" name="top"/>
    </contour>
    <contour>
      <point x="192" y="-30" type="move" name="bottom"/>
    </contour>
  </outline>
</glyph>
<glyph name="alefMaksura-ar" format="1">
  <advance width="679"/>
  <unicode hex="0649"/>
  <outline>
    <contour>
      <point x="452" y="168"/>
      <point x="409" y="176"/>
      <point x="408" y="189" type="curve"/>
      <point x="409" y="195"/>
      <point x="417" y="217"/>
      <point x="437" y="239" type="curve" smooth="yes"/>
      <point x="465" y="268"/>
      <point x="505" y="284"/>
      <point x="554" y="284" type="curve"/>
      <point x="559" y="278"/>
      <point x="586" y="228"/>
      <point x="586" y="228" type="curve"/>
      <point x="626" y="248" type="line"/>
      <point x="626" y="248"/>
      <point x="631" y="338"/>
      <point x="591" y="382" type="curve" smooth="yes"/>
      <point x="574" y="400"/>
      <point x="551" y="409"/>
      <point x="525" y="409" type="curve" smooth="yes"/>
      <point x="467" y="409"/>
      <point x="415" y="367"/>
      <point x="374" y="287" type="curve" smooth="yes"/>
      <point x="342" y="223"/>
      <point x="327" y="155"/>
      <point x="327" y="129" type="curve" smooth="yes"/>
      <point x="326" y="109"/>
      <point x="334" y="84"/>
      <point x="366" y="65" type="curve" smooth="yes"/>
      <point x="384" y="55"/>
      <point x="409" y="47"/>
      <point x="445" y="41" type="curve" smooth="yes"/>
      <point x="486" y="35"/>
      <point x="512" y="30"/>
      <point x="528" y="27" type="curve"/>
      <point x="514" y="15"/>
      <point x="490" y="1"/>
      <point x="457" y="-13" type="curve" smooth="yes"/>
      <point x="427" y="-25"/>
      <point x="368" y="-44"/>
      <point x="303" y="-44" type="curve" smooth="yes"/>
      <point x="234" y="-44"/>
      <point x="186" y="-29"/>
      <point x="158" y="4" type="curve" smooth="yes"/>
      <point x="115" y="55"/>
      <point x="142" y="141"/>
      <point x="142" y="141" type="curve"/>
      <point x="99" y="156" type="line"/>
      <point x="99" y="156"/>
      <point x="65" y="75"/>
      <point x="61" y="19" type="curve" smooth="yes"/>
      <point x="58" y="-16"/>
      <point x="62" y="-49"/>
      <point x="75" y="-78" type="curve" smooth="yes"/>
      <point x="90" y="-116"/>
      <point x="117" y="-145"/>
      <point x="154" y="-165" type="curve" smooth="yes"/>
      <point x="191" y="-186"/>
      <point x="239" y="-197"/>
      <point x="294" y="-197" type="curve" smooth="yes"/>
      <point x="356" y="-197"/>
      <point x="421" y="-180"/>
      <point x="477" y="-151" type="curve" smooth="yes"/>
      <point x="561" y="-107"/>
      <point x="629" y="-27"/>
      <point x="629" y="78" type="curve" smooth="yes"/>
      <point x="629" y="108"/>
      <point x="616" y="153"/>
      <point x="484" y="165" type="curve" smooth="yes"/>
    </contour>
    <contour>
      <point x="220" y="163" type="move" name="top"/>
    </contour>
    <contour>
      <point x="312" y="-220" type="move" name="bottom"/>
    </contour>
  </outline>
</glyph>
<glyph name="fathatan-ar" format="1">
  <advance width="0"/>
  <unicode hex="064B"/>
  <outline>
    <contour>
      <point x="56" y="800"/>
      <point x="-44" y="762"/>
      <point x="-79" y="742" type="curve"/>
      <point x="-84" y="731"/>
      <point x="-89" y="714"/>
      <point x="-92" y="700" type="curve"/>
      <point x="-52" y="717"/>
      <point x="43" y="757"/>
      <point x="79" y="769" type="curve"/>
      <point x="86" y="785"/>
      <point x="88" y="793"/>
      <point x="91" y="809" type="curve"/>
    </contour>
    <contour>
      <point x="56" y="864"/>
      <point x="-44" y="826"/>
      <point x="-79" y="806" type="curve"/>
      <point x="-84" y="796"/>
      <point x="-89" y="778"/>
      <point x="-92" y="764" type="curve"/>
      <point x="-52" y="781"/>
      <point x="43" y="822"/>
      <point x="79" y="833" type="curve"/>
      <point x="86" y="850"/>
      <point x="88" y="857"/>
      <point x="91" y="873" type="curve"/>
    </contour>
    <contour>
      <point x="-1" y="873" type="move" name="top"/>
    </contour>
    <contour>
      <point x="-1" y="680" type="move" name="_top"/>
    </contour>
  </outline>
</glyph>
<glyph name="dammatan-ar" format="1">
  <advance width="0"/>
  <unicode hex="064C"/>
  <outline>
    <contour>
      <point x="69" y="789" type="line"/>
      <point x="83" y="821"/>
      <point x="94" y="864"/>
      <point x="62" y="880" type="curve"/>
      <point x="40" y="892"/>
      <point x="12" y="882"/>
      <point x="-12" y="852" type="curve" smooth="yes"/>
      <point x="-26" y="835"/>
      <point x="-30" y="822"/>
      <point x="-25" y="806" type="curve" smooth="yes"/>
      <point x="-20" y="788"/>
      <point x="-4" y="776"/>
      <point x="9" y="769" type="curve"/>
      <point x="-4" y="759"/>
      <point x="-19" y="750"/>
      <point x="-37" y="745" type="curve"/>
      <point x="-21" y="786"/>
      <point x="-41" y="803"/>
      <point x="-58" y="803" type="curve" smooth="yes"/>
      <point x="-64" y="803"/>
      <point x="-80" y="798"/>
      <point x="-91" y="791" type="curve"/>
      <point x="-97" y="781"/>
      <point x="-97" y="774"/>
      <point x="-98" y="763" type="curve"/>
      <point x="-89" y="769"/>
      <point x="-66" y="780"/>
      <point x="-57" y="770" type="curve" smooth="yes"/>
      <point x="-54" y="766"/>
      <point x="-53" y="751"/>
      <point x="-61" y="742" type="curve"/>
      <point x="-66" y="742"/>
      <point x="-72" y="742"/>
      <point x="-78" y="743" type="curve"/>
      <point x="-88" y="727"/>
      <point x="-91" y="720"/>
      <point x="-98" y="701" type="curve"/>
      <point x="-59" y="700"/>
      <point x="-23" y="704"/>
      <point x="6" y="718" type="curve"/>
      <point x="23" y="725"/>
      <point x="36" y="736"/>
      <point x="48" y="750" type="curve"/>
      <point x="83" y="736" type="line"/>
      <point x="84" y="759"/>
      <point x="84" y="766"/>
      <point x="83" y="783" type="curve"/>
    </contour>
    <contour>
      <point x="25" y="811" type="line" smooth="yes"/>
      <point x="15" y="816"/>
      <point x="10" y="823"/>
      <point x="10" y="828" type="curve"/>
      <point x="9" y="833"/>
      <point x="13" y="840"/>
      <point x="22" y="843" type="curve" smooth="yes"/>
      <point x="28" y="844"/>
      <point x="33" y="843"/>
      <point x="40" y="837" type="curve"/>
      <point x="46" y="831"/>
      <point x="47" y="816"/>
      <point x="40" y="803" type="curve"/>
    </contour>
    <contour>
      <point x="-7" y="885" type="move" name="top"/>
    </contour>
    <contour>
      <point x="-7" y="681" type="move" name="_top"/>
    </contour>
  </outline>
</glyph>
<glyph name="kasratan-ar" format="1">
  <advance width="0"/>
  <unicode hex="064D"/>
  <outline>
    <contour>
      <point x="-51" y="-355"/>
      <point x="44" y="-314"/>
      <point x="80" y="-302" type="curve"/>
      <point x="87" y="-286"/>
      <point x="89" y="-278"/>
      <point x="92" y="-262" type="curve"/>
      <point x="57" y="-271"/>
      <point x="-43" y="-309"/>
      <point x="-78" y="-329" type="curve"/>
      <point x="-83" y="-340"/>
      <point x="-88" y="-357"/>
      <point x="-91" y="-371" type="curve"/>
    </contour>
    <contour>
      <point x="-51" y="-290"/>
      <point x="44" y="-249"/>
      <point x="80" y="-238" type="curve"/>
      <point x="87" y="-221"/>
      <point x="89" y="-214"/>
      <point x="92" y="-198" type="curve"/>
      <point x="57" y="-207"/>
      <point x="-43" y="-245"/>
      <point x="-78" y="-265" type="curve"/>
      <point x="-83" y="-275"/>
      <point x="-88" y="-293"/>
      <point x="-91" y="-307" type="curve"/>
    </contour>
    <contour>
      <point x="1" y="-178" type="move" name="_bottom"/>
    </contour>
    <contour>
      <point x="1" y="-371" type="move" name="bottom"/>
    </contour>
  </outline>
</glyph>
<glyph name="damma-ar" format="1">
  <advance width="0"/>
  <unicode hex="064F"/>
  <outline>
    <contour>
      <point x="73" y="792" type="line"/>
      <point x="87" y="824"/>
      <point x="98" y="867"/>
      <point x="66" y="883" type="curve" smooth="yes"/>
      <point x="44" y="895"/>
      <point x="16" y="885"/>
      <point x="-8" y="855" type="curve" smooth="yes"/>
      <point x="-22" y="838"/>
      <point x="-27" y="821"/>
      <point x="-23" y="806" type="curve" smooth="yes"/>
      <point x="-18" y="787"/>
      <point x="-2" y="775"/>
      <point x="11" y="768" type="curve"/>
      <point x="-10" y="752"/>
      <point x="-39" y="746"/>
      <point x="-74" y="751" type="curve"/>
      <point x="-84" y="735"/>
      <point x="-87" y="723"/>
      <point x="-94" y="704" type="curve"/>
      <point x="-21" y="700"/>
      <point x="6" y="713"/>
      <point x="22" y="726" type="curve" smooth="yes"/>
      <point x="37" y="735"/>
      <point x="47" y="746"/>
      <point x="52" y="753" type="curve"/>
      <point x="87" y="739" type="line"/>
      <point x="88" y="762"/>
      <point x="88" y="769"/>
      <point x="87" y="786" type="curve"/>
    </contour>
    <contour>
      <point x="29" y="814" type="line" smooth="yes"/>
      <point x="19" y="819"/>
      <point x="14" y="826"/>
      <point x="14" y="831" type="curve" smooth="yes"/>
      <point x="13" y="836"/>
      <point x="17" y="843"/>
      <point x="26" y="846" type="curve" smooth="yes"/>
      <point x="32" y="847"/>
      <point x="37" y="846"/>
      <point x="44" y="840" type="curve" smooth="yes"/>
      <point x="50" y="834"/>
      <point x="51" y="819"/>
      <point x="44" y="806" type="curve"/>
    </contour>
    <contour>
      <point x="-3" y="888" type="move" name="top"/>
    </contour>
    <contour>
      <point x="-3" y="683" type="move" name="_top"/>
    </contour>
  </outline>
</glyph>
<glyph name="uni064F" format="1">
  <advance width="0"/>
  <unicode hex="064F"/>
  <outline>
    <contour>
      <point x="73" y="792" type="line"/>
      <point x="87" y="824"/>
      <point x="98" y="867"/>
      <point x="66" y="883" type="curve" smooth="yes"/>
      <point x="44" y="895"/>
      <point x="16" y="885"/>
      <point x="-8" y="855" type="curve" smooth="yes"/>
      <point x="-22" y="838"/>
      <point x="-27" y="821"/>
      <point x="-23" y="806" type="curve" smooth="yes"/>
      <point x="-18" y="787"/>
      <point x="-2" y="775"/>
      <point x="11" y="768" type="curve"/>
      <point x="-10" y="752"/>
      <point x="-39" y="746"/>
      <point x="-74" y="751" type="curve"/>
      <point x="-84" y="735"/>
      <point x="-87" y="723"/>
      <point x="-94" y="704" type="curve"/>
      <point x="-21" y="700"/>
      <point x="6" y="713"/>
      <point x="22" y="726" type="curve" smooth="yes"/>
      <point x="37" y="735"/>
      <point x="47" y="746"/>
      <point x="52" y="753" type="curve"/>
      <point x="87" y="739" type="line"/>
      <point x="88" y="762"/>
      <point x="88" y="769"/>
      <point x="87" y="786" type="curve"/>
    </contour>
    <contour>
      <point x="29" y="811" type="line" smooth="yes"/>
      <point x="16" y="817"/>
      <point x="10" y="826"/>
      <point x="10" y="832" type="curve" smooth="yes"/>
      <point x="9" y="838"/>
      <point x="14" y="847"/>
      <point x="25" y="850" type="curve" smooth="yes"/>
      <point x="32" y="851"/>
      <point x="38" y="850"/>
      <point x="47" y="843" type="curve" smooth="yes"/>
      <point x="54" y="836"/>
      <point x="55" y="817"/>
      <point x="47" y="802" type="curve"/>
    </contour>
    <contour>
      <point x="-3" y="888" type="move" name="top"/>
    </contour>
    <contour>
      <point x="-3" y="683" type="move" name="_top"/>
    </contour>
  </outline>
</glyph>
<glyph name="uni0650" format="1">
  <advance width="0"/>
  <unicode hex="0650"/>
  <outline>
    <contour>
      <point x="57" y="-211"/>
      <point x="-43" y="-249"/>
      <point x="-78" y="-269" type="curve"/>
      <point x="-83" y="-280"/>
      <point x="-88" y="-297"/>
      <point x="-91" y="-311" type="curve"/>
      <point x="-51" y="-294"/>
      <point x="44" y="-253"/>
      <point x="80" y="-242" type="curve"/>
      <point x="87" y="-226"/>
      <point x="89" y="-218"/>
      <point x="92" y="-202" type="curve"/>
    </contour>
    <contour>
      <point x="1" y="-182" type="move" name="_bottom"/>
    </contour>
    <contour>
      <point x="1" y="-311" type="move" name="bottom"/>
    </contour>
  </outline>
</glyph>
<glyph name="sukun-ar" format="1">
  <advance width="0"/>
  <unicode hex="0652"/>
  <outline>
    <contour>
      <point x="-32" y="824"/>
      <point x="-56" y="796"/>
      <point x="-56" y="756" type="curve" smooth="yes"/>
      <point x="-56" y="740"/>
      <point x="-46" y="700"/>
      <point x="0" y="700" type="curve" smooth="yes"/>
      <point x="25" y="700"/>
      <point x="42" y="709"/>
      <point x="51" y="724" type="curve" smooth="yes"/>
      <point x="59" y="738"/>
      <point x="60" y="754"/>
      <point x="60" y="764" type="curve" smooth="yes"/>
      <point x="60" y="800"/>
      <point x="35" y="831"/>
      <point x="-8" y="848" type="curve"/>
    </contour>
    <contour>
      <point x="15" y="788"/>
      <point x="33" y="777"/>
      <point x="33" y="764" type="curve" smooth="yes"/>
      <point x="33" y="749"/>
      <point x="17" y="749"/>
      <point x="12" y="749" type="curve" smooth="yes"/>
      <point x="-9" y="749"/>
      <point x="-26" y="761"/>
      <point x="-26" y="774" type="curve" smooth="yes"/>
      <point x="-26" y="784"/>
      <point x="-19" y="794"/>
      <point x="-14" y="800" type="curve"/>
    </contour>
    <contour>
      <point x="2" y="848" type="move" name="top"/>
    </contour>
    <contour>
      <point x="2" y="680" type="move" name="_top"/>
    </contour>
  </outline>
</glyph>
<glyph name="dotvowelbelow-ar" format="1">
  <advance width="0"/>
  <unicode hex="065C"/>
  <outline>
    <contour>
      <point x="27" y="-293"/>
      <point x="48" y="-272"/>
      <point x="48" y="-245" type="curve" smooth="yes"/>
      <point x="48" y="-218"/>
      <point x="27" y="-197"/>
      <point x="0" y="-197" type="curve" smooth="yes"/>
      <point x="-27" y="-197"/>
      <point x="-48" y="-218"/>
      <point x="-48" y="-245" type="curve" smooth="yes"/>
      <point x="-48" y="-272"/>
      <point x="-27" y="-293"/>
      <point x="0" y="-293" type="curve" smooth="yes"/>
    </contour>
    <contour>
      <point x="0" y="-177" type="move" name="_bottom"/>
    </contour>
    <contour>
      <point x="0" y="-293" type="move" name="bottom"/>
    </contour>
  </outline>
</glyph>
<glyph name="dammareversed-ar" format="1">
  <advance width="0"/>
  <unicode hex="065D"/>
  <outline>
    <contour>
      <point x="-64" y="791" type="line"/>
      <point x="-76" y="763"/>
      <point x="-86" y="725"/>
      <point x="-58" y="711" type="curve" smooth="yes"/>
      <point x="-39" y="701"/>
      <point x="-14" y="710"/>
      <point x="7" y="736" type="curve" smooth="yes"/>
      <point x="20" y="751"/>
      <point x="24" y="765"/>
      <point x="20" y="778" type="curve" smooth="yes"/>
      <point x="16" y="795"/>
      <point x="1" y="805"/>
      <point x="-10" y="811" type="curve"/>
      <point x="8" y="825"/>
      <point x="34" y="831"/>
      <point x="65" y="826" type="curve"/>
      <point x="73" y="840"/>
      <point x="77" y="851"/>
      <point x="83" y="867" type="curve"/>
      <point x="19" y="871"/>
      <point x="-6" y="859"/>
      <point x="-20" y="848" type="curve" smooth="yes"/>
      <point x="-33" y="840"/>
      <point x="-40" y="831"/>
      <point x="-46" y="824" type="curve"/>
      <point x="-75" y="837" type="line"/>
      <point x="-77" y="817"/>
      <point x="-77" y="811"/>
      <point x="-75" y="796" type="curve"/>
    </contour>
    <contour>
      <point x="-26" y="771" type="line" smooth="yes"/>
      <point x="-17" y="767"/>
      <point x="-13" y="761"/>
      <point x="-13" y="757" type="curve" smooth="yes"/>
      <point x="-12" y="752"/>
      <point x="-15" y="746"/>
      <point x="-23" y="744" type="curve" smooth="yes"/>
      <point x="-28" y="743"/>
      <point x="-33" y="744"/>
      <point x="-39" y="749" type="curve" smooth="yes"/>
      <point x="-44" y="754"/>
      <point x="-45" y="767"/>
      <point x="-39" y="778" type="curve"/>
    </contour>
    <contour>
      <point x="3" y="868" type="move" name="top"/>
    </contour>
    <contour>
      <point x="3" y="687" type="move" name="_top"/>
    </contour>
  </outline>
</glyph>
<glyph name="wavyhamzabelow-ar" format="1">
  <advance width="0"/>
  <unicode hex="065F"/>
  <outline>
    <contour>
      <point x="73" y="-275"/>
      <point x="60" y="-275"/>
      <point x="47" y="-275" type="curve" smooth="yes"/>
      <point x="16" y="-275"/>
      <point x="-3" y="-270"/>
      <point x="-13" y="-255" type="curve"/>
      <point x="-6" y="-250"/>
      <point x="10" y="-241"/>
      <point x="34" y="-241" type="curve" smooth="yes"/>
      <point x="48" y="-241"/>
      <point x="57" y="-245"/>
      <point x="68" y="-250" type="curve"/>
      <point x="81" y="-235" type="line"/>
      <point x="75" y="-221"/>
      <point x="64" y="-203"/>
      <point x="33" y="-203" type="curve" smooth="yes"/>
      <point x="14" y="-203"/>
      <point x="-10" y="-215"/>
      <point x="-27" y="-228" type="curve" smooth="yes"/>
      <point x="-42" y="-238"/>
      <point x="-53" y="-251"/>
      <point x="-53" y="-261" type="curve" smooth="yes"/>
      <point x="-53" y="-269"/>
      <point x="-48" y="-284"/>
      <point x="-33" y="-297" type="curve" smooth="yes"/>
      <point x="-24" y="-306"/>
      <point x="-9" y="-313"/>
      <point x="12" y="-315" type="curve"/>
      <point x="7" y="-319"/>
      <point x="-2" y="-328"/>
      <point x="-13" y="-328" type="curve" smooth="yes"/>
      <point x="-26" y="-328"/>
      <point x="-39" y="-320"/>
      <point x="-52" y="-320" type="curve" smooth="yes"/>
      <point x="-76" y="-320"/>
      <point x="-91" y="-331"/>
      <point x="-109" y="-350" type="curve"/>
      <point x="-97" y="-375" type="line"/>
      <point x="-89" y="-368"/>
      <point x="-80" y="-361"/>
      <point x="-70" y="-361" type="curve" smooth="yes"/>
      <point x="-56" y="-361"/>
      <point x="-48" y="-376"/>
      <point x="-26" y="-376" type="curve" smooth="yes"/>
      <point x="-1" y="-376"/>
      <point x="14" y="-366"/>
      <point x="28" y="-353" type="curve" smooth="yes"/>
      <point x="44" y="-339"/>
      <point x="60" y="-323"/>
      <point x="85" y="-315" type="curve"/>
      <point x="96" y="-297"/>
      <point x="102" y="-284"/>
      <point x="107" y="-268" type="curve"/>
    </contour>
    <contour>
      <point x="-1" y="-183" type="move" name="_bottom"/>
    </contour>
    <contour>
      <point x="-1" y="-376" type="move" name="bottom"/>
    </contour>
  </outline>
</glyph>
<glyph name="nine-ar" format="1">
  <advance width="394"/>
  <unicode hex="0669"/>
  <outline>
    <contour>
      <point x="286" y="175"/>
      <point x="281" y="232"/>
      <point x="281" y="343" type="curve" smooth="yes"/>
      <point x="281" y="441"/>
      <point x="264" y="513"/>
      <point x="229" y="551" type="curve" smooth="yes"/>
      <point x="211" y="570"/>
      <point x="189" y="580"/>
      <point x="165" y="580" type="curve" smooth="yes"/>
      <point x="125" y="580"/>
      <point x="97" y="559"/>
      <point x="76" y="520" type="curve" smooth="yes"/>
      <point x="60" y="491"/>
      <point x="50" y="452"/>
      <point x="50" y="423" type="curve" smooth="yes"/>
      <point x="50" y="381"/>
      <point x="59" y="351"/>
      <point x="79" y="333" type="curve" smooth="yes"/>
      <point x="96" y="317"/>
      <point x="115" y="309"/>
      <point x="154" y="309" type="curve" smooth="yes"/>
      <point x="166" y="309"/>
      <point x="188" y="312"/>
      <point x="196" y="321" type="curve"/>
      <point x="197" y="229" type="line"/>
      <point x="197" y="173"/>
      <point x="208" y="126"/>
      <point x="230" y="87" type="curve" smooth="yes"/>
      <point x="253" y="48"/>
      <point x="288" y="18"/>
      <point x="335" y="0" type="curve"/>
      <point x="348" y="50"/>
      <point x="354" y="86"/>
      <point x="354" y="135" type="curve"/>
    </contour>
    <contour>
      <point x="192" y="431"/>
      <point x="180" y="416"/>
      <point x="152" y="416" type="curve" smooth="yes"/>
      <point x="116" y="416"/>
      <point x="106" y="440"/>
      <point x="106" y="453" type="curve" smooth="yes"/>
      <point x="106" y="465"/>
      <point x="113" y="487"/>
      <point x="148" y="487" type="curve" smooth="yes"/>
      <point x="164" y="487"/>
      <point x="180" y="477"/>
      <point x="189" y="459" type="curve" smooth="yes"/>
      <point x="194" y="450"/>
      <point x="196" y="441"/>
      <point x="198" y="435" type="curve"/>
    </contour>
  </outline>
</glyph>
<glyph name="dotlessqaf-ar" format="1">
  <advance width="598"/>
  <unicode hex="066F"/>
  <outline>
    <contour>
      <point x="376" y="402"/>
      <point x="351" y="383"/>
      <point x="332" y="357" type="curve" smooth="yes"/>
      <point x="304" y="319"/>
      <point x="290" y="268"/>
      <point x="290" y="227" type="curve" smooth="yes"/>
      <point x="290" y="192"/>
      <point x="300" y="160"/>
      <point x="321" y="141" type="curve" smooth="yes"/>
      <point x="341" y="123"/>
      <point x="370" y="114"/>
      <point x="404" y="114" type="curve" smooth="yes"/>
      <point x="432" y="114"/>
      <point x="453" y="120"/>
      <point x="468" y="125" type="curve"/>
      <point x="472" y="96" type="line"/>
      <point x="463" y="70"/>
      <point x="448" y="29"/>
      <point x="380" y="1" type="curve" smooth="yes"/>
      <point x="356" y="-9"/>
      <point x="323" y="-18"/>
      <point x="286" y="-18" type="curve" smooth="yes"/>
      <point x="232" y="-18"/>
      <point x="186" y="1"/>
      <point x="159" y="33" type="curve" smooth="yes"/>
      <point x="110" y="91"/>
      <point x="141" y="168"/>
      <point x="141" y="168" type="curve"/>
      <point x="98" y="183" type="line"/>
      <point x="98" y="183"/>
      <point x="67" y="127"/>
      <point x="61" y="46" type="curve" smooth="yes"/>
      <point x="58" y="10"/>
      <point x="61" y="-22"/>
      <point x="74" y="-53" type="curve" smooth="yes"/>
      <point x="88" y="-87"/>
      <point x="113" y="-118"/>
      <point x="154" y="-140" type="curve" smooth="yes"/>
      <point x="193" y="-161"/>
      <point x="240" y="-170"/>
      <point x="285" y="-170" type="curve" smooth="yes"/>
      <point x="324" y="-170"/>
      <point x="358" y="-163"/>
      <point x="385" y="-153" type="curve" smooth="yes"/>
      <point x="425" y="-138"/>
      <point x="459" y="-112"/>
      <point x="485" y="-78" type="curve" smooth="yes"/>
      <point x="504" y="-53"/>
      <point x="518" y="-26"/>
      <point x="529" y="8" type="curve" smooth="yes"/>
      <point x="541" y="45"/>
      <point x="548" y="88"/>
      <point x="548" y="128" type="curve" smooth="yes"/>
      <point x="548" y="174"/>
      <point x="539" y="239"/>
      <point x="515" y="299" type="curve" smooth="yes"/>
      <point x="501" y="334"/>
      <point x="486" y="359"/>
      <point x="466" y="377" type="curve" smooth="yes"/>
      <point x="448" y="394"/>
      <point x="428" y="402"/>
      <point x="408" y="402" type="curve" smooth="yes"/>
    </contour>
    <contour>
      <point x="432" y="294"/>
      <point x="441" y="247"/>
      <point x="443" y="241" type="curve"/>
      <point x="433" y="233"/>
      <point x="422" y="229"/>
      <point x="401" y="229" type="curve" smooth="yes"/>
      <point x="361" y="229"/>
      <point x="357" y="244"/>
      <point x="357" y="256" type="curve" smooth="yes"/>
      <point x="357" y="281"/>
      <point x="375" y="294"/>
      <point x="395" y="294" type="curve" smooth="yes"/>
    </contour>
    <contour>
      <point x="404" y="419" type="move" name="top"/>
    </contour>
    <contour>
      <point x="285" y="-199" type="move" name="bottom"/>
    </contour>
  </outline>
</glyph>
<glyph name="alefabove-ar" format="1">
  <advance width="0"/>
  <unicode hex="0670"/>
  <outline>
    <contour>
      <point x="28" y="757"/>
      <point x="25" y="803"/>
      <point x="4" y="841" type="curve"/>
      <point x="-12" y="831"/>
      <point x="-20" y="823"/>
      <point x="-35" y="809" type="curve"/>
      <point x="-17" y="781"/>
      <point x="-6" y="750"/>
      <point x="-9" y="700" type="curve"/>
      <point x="20" y="710" type="line"/>
    </contour>
    <contour>
      <point x="-5" y="841" type="move" name="top"/>
    </contour>
    <contour>
      <point x="-5" y="680" type="move" name="_top"/>
    </contour>
  </outline>
</glyph>
<glyph name="uni0693" format="1">
  <advance width="286"/>
  <unicode hex="0693"/>
  <outline>
    <component base="uni0631"/>
    <component base="uniFBBF" xOffset="24" yOffset="-395"/>
    <contour>
      <point x="23" y="-336" type="move" name="bottom"/>
    </contour>
  </outline>
</glyph>
<glyph name="dotlessfeh-ar" format="1">
  <advance width="843"/>
  <unicode hex="06A1"/>
  <outline>
    <contour>
      <point x="629" y="461"/>
      <point x="600" y="437"/>
      <point x="580" y="404" type="curve" smooth="yes"/>
      <point x="558" y="367"/>
      <point x="547" y="321"/>
      <point x="547" y="287" type="curve" smooth="yes"/>
      <point x="547" y="252"/>
      <point x="559" y="226"/>
      <point x="579" y="209" type="curve" smooth="yes"/>
      <point x="599" y="192"/>
      <point x="629" y="183"/>
      <point x="662" y="183" type="curve" smooth="yes"/>
      <point x="684" y="183"/>
      <point x="706" y="187"/>
      <point x="718" y="191" type="curve"/>
      <point x="710" y="172"/>
      <point x="695" y="157"/>
      <point x="672" y="147" type="curve" smooth="yes"/>
      <point x="653" y="139"/>
      <point x="630" y="135"/>
      <point x="599" y="135" type="curve" smooth="yes"/>
      <point x="582" y="135"/>
      <point x="426" y="134"/>
      <point x="419" y="134" type="curve"/>
      <point x="393" y="134"/>
      <point x="291" y="134"/>
      <point x="244" y="140" type="curve" smooth="yes"/>
      <point x="214" y="144"/>
      <point x="167" y="156"/>
      <point x="141" y="183" type="curve" smooth="yes"/>
      <point x="126" y="199"/>
      <point x="113" y="223"/>
      <point x="111" y="258" type="curve"/>
      <point x="66" y="269" type="line"/>
      <point x="56" y="198"/>
      <point x="58" y="144"/>
      <point x="79" y="100" type="curve" smooth="yes"/>
      <point x="104" y="47"/>
      <point x="155" y="13"/>
      <point x="240" y="-1" type="curve"/>
      <point x="277" y="-7"/>
      <point x="334" y="-10"/>
      <point x="420" y="-10" type="curve" smooth="yes"/>
      <point x="584" y="-10"/>
      <point x="664" y="1"/>
      <point x="712" y="39" type="curve" smooth="yes"/>
      <point x="742" y="63"/>
      <point x="765" y="99"/>
      <point x="779" y="148" type="curve" smooth="yes"/>
      <point x="791" y="191"/>
      <point x="796" y="241"/>
      <point x="792" y="287" type="curve" smooth="yes"/>
      <point x="784" y="375"/>
      <point x="741" y="461"/>
      <point x="668" y="461" type="curve" smooth="yes"/>
    </contour>
    <contour>
      <point x="690" y="292"/>
      <point x="679" y="288"/>
      <point x="659" y="288" type="curve" smooth="yes"/>
      <point x="621" y="288"/>
      <point x="614" y="303"/>
      <point x="614" y="316" type="curve" smooth="yes"/>
      <point x="614" y="336"/>
      <point x="629" y="353"/>
      <point x="652" y="353" type="curve" smooth="yes"/>
      <point x="689" y="353"/>
      <point x="698" y="306"/>
      <point x="700" y="300" type="curve"/>
    </contour>
    <contour>
      <point x="668" y="481" type="move" name="top"/>
    </contour>
    <contour>
      <point x="405" y="-39" type="move" name="bottom"/>
    </contour>
  </outline>
</glyph>
<glyph name="uni06A9" format="1">
  <advance width="779"/>
  <unicode hex="06A9"/>
  <outline>
    <contour>
      <point x="56" y="198"/>
      <point x="58" y="144"/>
      <point x="79" y="100" type="curve" smooth="yes"/>
      <point x="104" y="47"/>
      <point x="155" y="13"/>
      <point x="240" y="-1" type="curve" smooth="yes"/>
      <point x="277" y="-7"/>
      <point x="334" y="-9"/>
      <point x="420" y="-9" type="curve"/>
      <point x="469" y="-8"/>
      <point x="514" y="-10"/>
      <point x="566" y="-7" type="curve"/>
      <point x="655" y="-7"/>
      <point x="710" y="54"/>
      <point x="710" y="149" type="curve" smooth="yes"/>
      <point x="710" y="194"/>
      <point x="698" y="231"/>
      <point x="676" y="273" type="curve" smooth="yes"/>
      <point x="655" y="312"/>
      <point x="623" y="349"/>
      <point x="582" y="382" type="curve"/>
      <point x="633" y="411"/>
      <point x="704" y="445"/>
      <point x="765" y="470" type="curve"/>
      <point x="778" y="521"/>
      <point x="783" y="558"/>
      <point x="789" y="608" type="curve"/>
      <point x="670" y="553"/>
      <point x="549" y="486"/>
      <point x="474" y="427" type="curve"/>
      <point x="466" y="394"/>
      <point x="461" y="371"/>
      <point x="456" y="326" type="curve"/>
      <point x="509" y="266" type="line"/>
      <point x="520" y="290" type="line"/>
      <point x="568" y="254"/>
      <point x="629" y="190"/>
      <point x="629" y="166" type="curve"/>
      <point x="623" y="158"/>
      <point x="605" y="136"/>
      <point x="574" y="136" type="curve"/>
      <point x="519" y="133"/>
      <point x="471" y="135"/>
      <point x="419" y="134" type="curve"/>
      <point x="393" y="134"/>
      <point x="291" y="134"/>
      <point x="244" y="140" type="curve" smooth="yes"/>
      <point x="214" y="144"/>
      <point x="167" y="156"/>
      <point x="141" y="183" type="curve" smooth="yes"/>
      <point x="126" y="199"/>
      <point x="113" y="223"/>
      <point x="111" y="258" type="curve"/>
      <point x="66" y="269" type="line"/>
    </contour>
    <contour>
      <point x="308" y="180" type="move" name="top"/>
    </contour>
    <contour>
      <point x="391" y="-50" type="move" name="bottom"/>
    </contour>
  </outline>
</glyph>
<glyph name="uni06AF" format="1">
  <advance width="779"/>
  <unicode hex="06AF"/>
  <outline>
    <contour>
      <point x="594" y="535"/>
      <point x="670" y="578"/>
      <point x="759" y="619" type="curve"/>
      <point x="773" y="683" type="line"/>
      <point x="692" y="647"/>
      <point x="593" y="593"/>
      <point x="523" y="549" type="curve"/>
      <point x="511" y="477" type="line"/>
    </contour>
    <component base="uni06A9"/>
    <contour>
      <point x="627" y="692" type="move" name="top"/>
    </contour>
  </outline>
</glyph>
<glyph name="noonghunna-ar" format="1">
  <advance width="608"/>
  <unicode hex="06BA"/>
  <outline>
    <contour>
      <point x="441" y="294"/>
      <point x="418" y="261"/>
      <point x="398" y="223" type="curve"/>
      <point x="446" y="160"/>
      <point x="487" y="101"/>
      <point x="487" y="69" type="curve" smooth="yes"/>
      <point x="487" y="49"/>
      <point x="471" y="30"/>
      <point x="441" y="14" type="curve" smooth="yes"/>
      <point x="409" y="-3"/>
      <point x="361" y="-17"/>
      <point x="304" y="-17" type="curve" smooth="yes"/>
      <point x="244" y="-17"/>
      <point x="187" y="-2"/>
      <point x="158" y="33" type="curve" smooth="yes"/>
      <point x="131" y="66"/>
      <point x="130" y="115"/>
      <point x="142" y="168" type="curve"/>
      <point x="99" y="183" type="line"/>
      <point x="79" y="142"/>
      <point x="64" y="89"/>
      <point x="61" y="46" type="curve" smooth="yes"/>
      <point x="59" y="15"/>
      <point x="62" y="-20"/>
      <point x="75" y="-52" type="curve" smooth="yes"/>
      <point x="92" y="-93"/>
      <point x="123" y="-124"/>
      <point x="164" y="-144" type="curve" smooth="yes"/>
      <point x="200" y="-161"/>
      <point x="242" y="-170"/>
      <point x="295" y="-170" type="curve" smooth="yes"/>
      <point x="335" y="-170"/>
      <point x="367" y="-165"/>
      <point x="400" y="-154" type="curve" smooth="yes"/>
      <point x="430" y="-144"/>
      <point x="457" y="-131"/>
      <point x="484" y="-106" type="curve" smooth="yes"/>
      <point x="508" y="-84"/>
      <point x="558" y="-26"/>
      <point x="558" y="85" type="curve" smooth="yes"/>
      <point x="558" y="141"/>
      <point x="545" y="197"/>
      <point x="528" y="238" type="curve" smooth="yes"/>
      <point x="502" y="302"/>
      <point x="468" y="324"/>
      <point x="468" y="324" type="curve"/>
    </contour>
    <contour>
      <point x="287" y="54" type="move" name="top"/>
    </contour>
    <contour>
      <point x="295" y="-190" type="move" name="bottom"/>
    </contour>
  </outline>
</glyph>
<glyph name="yehTail-ar" format="1">
  <advance width="679"/>
  <unicode hex="06CD"/>
  <outline>
    <contour>
      <point x="63" y="135"/>
      <point x="23" y="114"/>
      <point x="-26" y="101" type="curve"/>
      <point x="19" y="39" type="line"/>
      <point x="113" y="82" type="line"/>
      <point x="99" y="156" type="line"/>
    </contour>
    <component base="alefMaksura-ar"/>
  </outline>
</glyph>
<glyph name="yehbarree-ar" format="1">
  <advance width="983"/>
  <unicode hex="06D2"/>
  <outline>
    <contour>
      <point x="492" y="322"/>
      <point x="497" y="377"/>
      <point x="470" y="418" type="curve" smooth="yes"/>
      <point x="458" y="436"/>
      <point x="438" y="447"/>
      <point x="418" y="447" type="curve" smooth="yes"/>
      <point x="387" y="447"/>
      <point x="367" y="421"/>
      <point x="347" y="393" type="curve" smooth="yes"/>
      <point x="319" y="353"/>
      <point x="310" y="341"/>
      <point x="228" y="302" type="curve" smooth="yes"/>
      <point x="195" y="286"/>
      <point x="153" y="267"/>
      <point x="119" y="239" type="curve" smooth="yes"/>
      <point x="86" y="211"/>
      <point x="60" y="175"/>
      <point x="60" y="125" type="curve" smooth="yes"/>
      <point x="60" y="86"/>
      <point x="76" y="55"/>
      <point x="109" y="34" type="curve" smooth="yes"/>
      <point x="145" y="11"/>
      <point x="199" y="0"/>
      <point x="276" y="0" type="curve" smooth="yes"/>
      <point x="846" y="0" type="line"/>
      <point x="884" y="46"/>
      <point x="909" y="86"/>
      <point x="933" y="139" type="curve"/>
      <point x="281" y="139" type="line" smooth="yes"/>
      <point x="189" y="139"/>
      <point x="166" y="142"/>
      <point x="166" y="165" type="curve" smooth="yes"/>
      <point x="166" y="176"/>
      <point x="176" y="183"/>
      <point x="185" y="187" type="curve"/>
      <point x="284" y="224"/>
      <point x="303" y="250"/>
      <point x="345" y="292" type="curve" smooth="yes"/>
      <point x="355" y="302"/>
      <point x="381" y="339"/>
      <point x="406" y="339" type="curve" smooth="yes"/>
      <point x="437" y="339"/>
      <point x="441" y="289"/>
      <point x="429" y="231" type="curve"/>
      <point x="479" y="250" type="line"/>
    </contour>
    <contour>
      <point x="418" y="467" type="move" name="top"/>
    </contour>
    <contour>
      <point x="438" y="-19" type="move" name="bottom"/>
    </contour>
  </outline>
</glyph>
<glyph name="seenabove-ar" format="1">
  <advance width="0"/>
  <unicode hex="06DC"/>
  <outline>
    <contour>
      <point x="96" y="890"/>
      <point x="90" y="883"/>
      <point x="85" y="873" type="curve"/>
      <point x="101" y="850" type="line"/>
      <point x="97" y="844"/>
      <point x="92" y="840"/>
      <point x="83" y="840" type="curve" smooth="yes"/>
      <point x="63" y="840"/>
      <point x="60" y="855"/>
      <point x="63" y="875" type="curve"/>
      <point x="47" y="869" type="line"/>
      <point x="45" y="854"/>
      <point x="39" y="840"/>
      <point x="22" y="840" type="curve" smooth="yes"/>
      <point x="17" y="840"/>
      <point x="1" y="845"/>
      <point x="-8" y="866" type="curve"/>
      <point x="-17" y="856"/>
      <point x="-26" y="844"/>
      <point x="-32" y="832" type="curve"/>
      <point x="-16" y="810"/>
      <point x="-2" y="791"/>
      <point x="-2" y="780" type="curve" smooth="yes"/>
      <point x="-2" y="773"/>
      <point x="-8" y="767"/>
      <point x="-17" y="761" type="curve" smooth="yes"/>
      <point x="-29" y="756"/>
      <point x="-45" y="751"/>
      <point x="-64" y="751" type="curve" smooth="yes"/>
      <point x="-84" y="751"/>
      <point x="-103" y="756"/>
      <point x="-113" y="768" type="curve" smooth="yes"/>
      <point x="-121" y="779"/>
      <point x="-122" y="795"/>
      <point x="-118" y="813" type="curve"/>
      <point x="-132" y="818" type="line"/>
      <point x="-138" y="804"/>
      <point x="-144" y="786"/>
      <point x="-144" y="772" type="curve" smooth="yes"/>
      <point x="-145" y="762"/>
      <point x="-144" y="750"/>
      <point x="-140" y="739" type="curve" smooth="yes"/>
      <point x="-135" y="726"/>
      <point x="-124" y="715"/>
      <point x="-110" y="708" type="curve" smooth="yes"/>
      <point x="-98" y="703"/>
      <point x="-84" y="700"/>
      <point x="-67" y="700" type="curve" smooth="yes"/>
      <point x="-53" y="700"/>
      <point x="-42" y="702"/>
      <point x="-32" y="705" type="curve" smooth="yes"/>
      <point x="-21" y="708"/>
      <point x="-12" y="713"/>
      <point x="-3" y="721" type="curve" smooth="yes"/>
      <point x="4" y="729"/>
      <point x="21" y="748"/>
      <point x="21" y="786" type="curve" smooth="yes"/>
      <point x="21" y="789"/>
      <point x="21" y="795"/>
      <point x="21" y="799" type="curve"/>
      <point x="28" y="798"/>
      <point x="35" y="798"/>
      <point x="41" y="800" type="curve" smooth="yes"/>
      <point x="46" y="802"/>
      <point x="51" y="807"/>
      <point x="53" y="813" type="curve"/>
      <point x="54" y="810"/>
      <point x="57" y="807"/>
      <point x="62" y="804" type="curve" smooth="yes"/>
      <point x="66" y="801"/>
      <point x="73" y="798"/>
      <point x="82" y="798" type="curve" smooth="yes"/>
      <point x="94" y="798"/>
      <point x="106" y="807"/>
      <point x="113" y="817" type="curve" smooth="yes"/>
      <point x="120" y="826"/>
      <point x="124" y="838"/>
      <point x="124" y="848" type="curve" smooth="yes"/>
      <point x="124" y="885"/>
      <point x="104" y="899"/>
      <point x="104" y="899" type="curve"/>
    </contour>
  </outline>
</glyph>
<glyph name="uni06DD" format="1">
  <advance width="978"/>
  <unicode hex="06DD"/>
  <outline>
    <contour>
      <point x="50" y="291"/>
      <point x="49" y="183"/>
      <point x="119" y="79" type="curve" smooth="yes"/>
      <point x="151" y="33"/>
      <point x="191" y="-7"/>
      <point x="236" y="-38" type="curve" smooth="yes"/>
      <point x="283" y="-71"/>
      <point x="339" y="-94"/>
      <point x="391" y="-105" type="curve" smooth="yes"/>
      <point x="470" y="-119"/>
      <point x="489" y="-162"/>
      <point x="489" y="-162" type="curve" smooth="yes"/>
      <point x="489" y="-162"/>
      <point x="508" y="-119"/>
      <point x="587" y="-105" type="curve" smooth="yes"/>
      <point x="639" y="-94"/>
      <point x="695" y="-71"/>
      <point x="742" y="-38" type="curve" smooth="yes"/>
      <point x="787" y="-7"/>
      <point x="826" y="33"/>
      <point x="858" y="79" type="curve" smooth="yes"/>
      <point x="929" y="183"/>
      <point x="928" y="291"/>
      <point x="928" y="306" type="curve" smooth="yes"/>
      <point x="928" y="320"/>
      <point x="929" y="429"/>
      <point x="858" y="533" type="curve" smooth="yes"/>
      <point x="826" y="579"/>
      <point x="787" y="618"/>
      <point x="742" y="649" type="curve" smooth="yes"/>
      <point x="695" y="682"/>
      <point x="639" y="706"/>
      <point x="587" y="716" type="curve" smooth="yes"/>
      <point x="508" y="730"/>
      <point x="489" y="773"/>
      <point x="489" y="773" type="curve" smooth="yes"/>
      <point x="489" y="773"/>
      <point x="470" y="730"/>
      <point x="391" y="716" type="curve" smooth="yes"/>
      <point x="339" y="706"/>
      <point x="283" y="682"/>
      <point x="236" y="649" type="curve" smooth="yes"/>
      <point x="191" y="618"/>
      <point x="151" y="579"/>
      <point x="119" y="533" type="curve" smooth="yes"/>
      <point x="49" y="429"/>
      <point x="50" y="320"/>
      <point x="50" y="306" type="curve" smooth="yes"/>
    </contour>
    <contour>
      <point x="112" y="264"/>
      <point x="154" y="261"/>
      <point x="158" y="306" type="curve"/>
      <point x="154" y="351"/>
      <point x="112" y="347"/>
      <point x="112" y="347" type="curve"/>
      <point x="137" y="363"/>
      <point x="150" y="402"/>
      <point x="150" y="402" type="curve" smooth="yes"/>
      <point x="150" y="402"/>
      <point x="182" y="389"/>
      <point x="183" y="357" type="curve"/>
      <point x="193" y="359"/>
      <point x="209" y="356"/>
      <point x="223" y="341" type="curve"/>
      <point x="235" y="327"/>
      <point x="269" y="306"/>
      <point x="269" y="306" type="curve" smooth="yes"/>
      <point x="269" y="306"/>
      <point x="235" y="284"/>
      <point x="223" y="270" type="curve"/>
      <point x="209" y="256"/>
      <point x="193" y="254"/>
      <point x="183" y="254" type="curve"/>
      <point x="182" y="223"/>
      <point x="150" y="210"/>
      <point x="150" y="210" type="curve" smooth="yes"/>
      <point x="150" y="210"/>
      <point x="137" y="249"/>
      <point x="112" y="264" type="curve"/>
    </contour>
    <contour>
      <point x="161" y="174"/>
      <point x="198" y="188"/>
      <point x="233" y="236" type="curve" smooth="yes"/>
      <point x="264" y="280"/>
      <point x="316" y="306"/>
      <point x="316" y="306" type="curve" smooth="yes"/>
      <point x="316" y="306"/>
      <point x="264" y="332"/>
      <point x="233" y="375" type="curve" smooth="yes"/>
      <point x="198" y="423"/>
      <point x="161" y="438"/>
      <point x="139" y="444" type="curve"/>
      <point x="169" y="506"/>
      <point x="222" y="552"/>
      <point x="278" y="578" type="curve" smooth="yes"/>
      <point x="338" y="606"/>
      <point x="387" y="617"/>
      <point x="407" y="621" type="curve"/>
      <point x="413" y="608"/>
      <point x="428" y="593"/>
      <point x="455" y="590" type="curve"/>
      <point x="465" y="540"/>
      <point x="489" y="533"/>
      <point x="489" y="533" type="curve" smooth="yes"/>
      <point x="489" y="533"/>
      <point x="512" y="540"/>
      <point x="523" y="590" type="curve"/>
      <point x="549" y="593"/>
      <point x="565" y="608"/>
      <point x="571" y="621" type="curve"/>
      <point x="591" y="617"/>
      <point x="639" y="606"/>
      <point x="700" y="578" type="curve" smooth="yes"/>
      <point x="756" y="552"/>
      <point x="809" y="506"/>
      <point x="838" y="444" type="curve"/>
      <point x="817" y="438"/>
      <point x="780" y="423"/>
      <point x="745" y="375" type="curve" smooth="yes"/>
      <point x="714" y="332"/>
      <point x="662" y="306"/>
      <point x="662" y="306" type="curve" smooth="yes"/>
      <point x="662" y="306"/>
      <point x="714" y="280"/>
      <point x="745" y="236" type="curve" smooth="yes"/>
      <point x="780" y="188"/>
      <point x="817" y="174"/>
      <point x="838" y="168" type="curve"/>
      <point x="809" y="107"/>
      <point x="756" y="60"/>
      <point x="700" y="34" type="curve" smooth="yes"/>
      <point x="639" y="6"/>
      <point x="591" y="-6"/>
      <point x="571" y="-9" type="curve"/>
      <point x="565" y="3"/>
      <point x="549" y="19"/>
      <point x="523" y="21" type="curve"/>
      <point x="512" y="72"/>
      <point x="489" y="78"/>
      <point x="489" y="78" type="curve" smooth="yes"/>
      <point x="489" y="78"/>
      <point x="465" y="72"/>
      <point x="455" y="21" type="curve"/>
      <point x="428" y="19"/>
      <point x="413" y="3"/>
      <point x="407" y="-9" type="curve"/>
      <point x="387" y="-6"/>
      <point x="338" y="6"/>
      <point x="278" y="34" type="curve" smooth="yes"/>
      <point x="222" y="60"/>
      <point x="169" y="107"/>
      <point x="139" y="168" type="curve"/>
    </contour>
    <contour>
      <point x="709" y="306"/>
      <point x="742" y="327"/>
      <point x="755" y="341" type="curve" smooth="yes"/>
      <point x="769" y="356"/>
      <point x="784" y="359"/>
      <point x="795" y="357" type="curve"/>
      <point x="796" y="389"/>
      <point x="828" y="402"/>
      <point x="828" y="402" type="curve" smooth="yes"/>
      <point x="828" y="402"/>
      <point x="841" y="363"/>
      <point x="866" y="347" type="curve"/>
      <point x="866" y="347"/>
      <point x="824" y="351"/>
      <point x="820" y="306" type="curve"/>
      <point x="824" y="261"/>
      <point x="866" y="264"/>
      <point x="866" y="264" type="curve"/>
      <point x="841" y="249"/>
      <point x="828" y="210"/>
      <point x="828" y="210" type="curve" smooth="yes"/>
      <point x="828" y="210"/>
      <point x="796" y="223"/>
      <point x="795" y="254" type="curve"/>
      <point x="784" y="254"/>
      <point x="769" y="256"/>
      <point x="755" y="270" type="curve"/>
      <point x="742" y="284"/>
      <point x="709" y="306"/>
      <point x="709" y="306" type="curve" smooth="yes"/>
    </contour>
  </outline>
</glyph>
<glyph name="sukunround-ar" format="1">
  <advance width="0"/>
  <unicode hex="06DF"/>
  <outline>
    <contour>
      <point x="-28" y="820"/>
      <point x="-48" y="783"/>
      <point x="-48" y="749" type="curve" smooth="yes"/>
      <point x="-48" y="735"/>
      <point x="-40" y="700"/>
      <point x="0" y="700" type="curve" smooth="yes"/>
      <point x="22" y="700"/>
      <point x="37" y="708"/>
      <point x="45" y="721" type="curve" smooth="yes"/>
      <point x="52" y="733"/>
      <point x="52" y="747"/>
      <point x="52" y="756" type="curve" smooth="yes"/>
      <point x="52" y="787"/>
      <point x="37" y="820"/>
      <point x="-1" y="820" type="curve"/>
    </contour>
    <contour>
      <point x="13" y="777"/>
      <point x="29" y="767"/>
      <point x="29" y="756" type="curve" smooth="yes"/>
      <point x="29" y="743"/>
      <point x="15" y="743"/>
      <point x="11" y="743" type="curve" smooth="yes"/>
      <point x="-8" y="743"/>
      <point x="-22" y="753"/>
      <point x="-22" y="764" type="curve" smooth="yes"/>
      <point x="-22" y="773"/>
      <point x="-16" y="782"/>
      <point x="-12" y="787" type="curve"/>
    </contour>
    <contour>
      <point x="2" y="820" type="move" name="top"/>
    </contour>
    <contour>
      <point x="2" y="680" type="move" name="_top"/>
    </contour>
  </outline>
</glyph>
<glyph name="uni06DF" format="1">
  <advance width="0"/>
  <unicode hex="06DF"/>
  <outline>
    <contour>
      <point x="-28" y="820"/>
      <point x="-48" y="783"/>
      <point x="-48" y="749" type="curve" smooth="yes"/>
      <point x="-48" y="735"/>
      <point x="-40" y="700"/>
      <point x="0" y="700" type="curve" smooth="yes"/>
      <point x="22" y="700"/>
      <point x="37" y="708"/>
      <point x="45" y="721" type="curve" smooth="yes"/>
      <point x="52" y="733"/>
      <point x="52" y="747"/>
      <point x="52" y="756" type="curve" smooth="yes"/>
      <point x="52" y="787"/>
      <point x="37" y="820"/>
      <point x="-1" y="820" type="curve"/>
    </contour>
    <contour>
      <point x="14" y="778"/>
      <point x="32" y="767"/>
      <point x="32" y="755" type="curve" smooth="yes"/>
      <point x="32" y="741"/>
      <point x="16" y="741"/>
      <point x="12" y="741" type="curve" smooth="yes"/>
      <point x="-9" y="741"/>
      <point x="-25" y="752"/>
      <point x="-25" y="764" type="curve" smooth="yes"/>
      <point x="-25" y="774"/>
      <point x="-18" y="784"/>
      <point x="-14" y="789" type="curve"/>
    </contour>
    <contour>
      <point x="2" y="820" type="move" name="top"/>
    </contour>
    <contour>
      <point x="2" y="680" type="move" name="_top"/>
    </contour>
  </outline>
</glyph>
<glyph name="uni06E0" format="1">
  <advance width="0"/>
  <unicode hex="06E0"/>
  <outline>
    <contour>
      <point x="52" y="823"/>
      <point x="36" y="854"/>
      <point x="-1" y="854" type="curve"/>
      <point x="-28" y="854"/>
      <point x="-47" y="820"/>
      <point x="-48" y="787" type="curve"/>
      <point x="-48" y="748" type="line"/>
      <point x="-48" y="734"/>
      <point x="-40" y="700"/>
      <point x="0" y="700" type="curve" smooth="yes"/>
      <point x="22" y="700"/>
      <point x="37" y="707"/>
      <point x="45" y="720" type="curve" smooth="yes"/>
      <point x="52" y="733"/>
      <point x="52" y="747"/>
      <point x="52" y="755" type="curve"/>
      <point x="52" y="793" type="line"/>
    </contour>
    <contour>
      <point x="29" y="745"/>
      <point x="18" y="742"/>
      <point x="0" y="742" type="curve" smooth="yes"/>
      <point x="-17" y="742"/>
      <point x="-22" y="752"/>
      <point x="-22" y="764" type="curve" smooth="yes"/>
      <point x="-22" y="779"/>
      <point x="-23" y="808"/>
      <point x="-12" y="821" type="curve"/>
      <point x="15" y="810"/>
      <point x="29" y="805"/>
      <point x="29" y="758" type="curve"/>
    </contour>
    <contour>
      <point x="2" y="854" type="move" name="top"/>
    </contour>
    <contour>
      <point x="2" y="680" type="move" name="_top"/>
    </contour>
  </outline>
</glyph>
<glyph name="hahabove-ar" format="1">
  <advance width="0"/>
  <unicode hex="06E1"/>
  <outline>
    <contour>
      <point x="72" y="760"/>
      <point x="79" y="770"/>
      <point x="79" y="779" type="curve" smooth="yes"/>
      <point x="79" y="791"/>
      <point x="64" y="797"/>
      <point x="51" y="802" type="curve" smooth="yes"/>
      <point x="36" y="808"/>
      <point x="5" y="817"/>
      <point x="-16" y="817" type="curve" smooth="yes"/>
      <point x="-37" y="817"/>
      <point x="-51" y="799"/>
      <point x="-67" y="769" type="curve"/>
      <point x="-61" y="764"/>
      <point x="-54" y="760"/>
      <point x="-48" y="755" type="curve"/>
      <point x="-38" y="766"/>
      <point x="-28" y="777"/>
      <point x="-15" y="777" type="curve" smooth="yes"/>
      <point x="-5" y="777"/>
      <point x="13" y="772"/>
      <point x="25" y="768" type="curve"/>
      <point x="13" y="759"/>
      <point x="-9" y="747"/>
      <point x="-17" y="744" type="curve" smooth="yes"/>
      <point x="-25" y="741"/>
      <point x="-58" y="730"/>
      <point x="-83" y="723" type="curve"/>
      <point x="-78" y="714"/>
      <point x="-75" y="708"/>
      <point x="-68" y="700" type="curve"/>
      <point x="-57" y="704"/>
      <point x="-46" y="708"/>
      <point x="-33" y="707" type="curve" smooth="yes"/>
      <point x="-18" y="706"/>
      <point x="5" y="709"/>
      <point x="18" y="718" type="curve" smooth="yes"/>
      <point x="31" y="727"/>
      <point x="43" y="735"/>
      <point x="56" y="746" type="curve"/>
    </contour>
    <contour>
      <point x="-2" y="817" type="move" name="top"/>
    </contour>
    <contour>
      <point x="-2" y="680" type="move" name="_top"/>
    </contour>
  </outline>
</glyph>
<glyph name="uni06E3" format="1">
  <advance width="0"/>
  <unicode hex="06E3"/>
  <outline>
    <contour>
      <point x="139" y="-219"/>
      <point x="131" y="-228"/>
      <point x="124" y="-241" type="curve"/>
      <point x="145" y="-272" type="line"/>
      <point x="141" y="-279"/>
      <point x="134" y="-285"/>
      <point x="122" y="-285" type="curve" smooth="yes"/>
      <point x="95" y="-285"/>
      <point x="92" y="-265"/>
      <point x="96" y="-238" type="curve"/>
      <point x="74" y="-247" type="line"/>
      <point x="72" y="-267"/>
      <point x="63" y="-285"/>
      <point x="41" y="-285" type="curve" smooth="yes"/>
      <point x="34" y="-285"/>
      <point x="13" y="-278"/>
      <point x="2" y="-250" type="curve"/>
      <point x="-10" y="-264"/>
      <point x="-22" y="-280"/>
      <point x="-30" y="-296" type="curve"/>
      <point x="-9" y="-324"/>
      <point x="9" y="-350"/>
      <point x="9" y="-364" type="curve" smooth="yes"/>
      <point x="9" y="-373"/>
      <point x="2" y="-382"/>
      <point x="-11" y="-389" type="curve" smooth="yes"/>
      <point x="-26" y="-396"/>
      <point x="-47" y="-402"/>
      <point x="-72" y="-402" type="curve" smooth="yes"/>
      <point x="-99" y="-402"/>
      <point x="-124" y="-396"/>
      <point x="-137" y="-380" type="curve" smooth="yes"/>
      <point x="-148" y="-366"/>
      <point x="-149" y="-344"/>
      <point x="-144" y="-321" type="curve"/>
      <point x="-163" y="-314" type="line"/>
      <point x="-171" y="-332"/>
      <point x="-178" y="-356"/>
      <point x="-179" y="-375" type="curve" smooth="yes"/>
      <point x="-180" y="-388"/>
      <point x="-179" y="-404"/>
      <point x="-173" y="-418" type="curve" smooth="yes"/>
      <point x="-166" y="-436"/>
      <point x="-152" y="-450"/>
      <point x="-134" y="-459" type="curve" smooth="yes"/>
      <point x="-118" y="-466"/>
      <point x="-99" y="-470"/>
      <point x="-76" y="-470" type="curve" smooth="yes"/>
      <point x="-58" y="-470"/>
      <point x="-44" y="-468"/>
      <point x="-30" y="-463" type="curve" smooth="yes"/>
      <point x="-16" y="-459"/>
      <point x="-4" y="-453"/>
      <point x="8" y="-442" type="curve" smooth="yes"/>
      <point x="18" y="-432"/>
      <point x="40" y="-406"/>
      <point x="40" y="-357" type="curve" smooth="yes"/>
      <point x="40" y="-352"/>
      <point x="40" y="-344"/>
      <point x="40" y="-339" type="curve"/>
      <point x="49" y="-341"/>
      <point x="58" y="-341"/>
      <point x="66" y="-338" type="curve" smooth="yes"/>
      <point x="73" y="-335"/>
      <point x="79" y="-329"/>
      <point x="82" y="-321" type="curve"/>
      <point x="84" y="-325"/>
      <point x="88" y="-329"/>
      <point x="94" y="-333" type="curve" smooth="yes"/>
      <point x="100" y="-337"/>
      <point x="109" y="-340"/>
      <point x="121" y="-340" type="curve" smooth="yes"/>
      <point x="137" y="-340"/>
      <point x="152" y="-329"/>
      <point x="162" y="-315" type="curve" smooth="yes"/>
      <point x="171" y="-303"/>
      <point x="176" y="-288"/>
      <point x="176" y="-274" type="curve" smooth="yes"/>
      <point x="176" y="-225"/>
      <point x="150" y="-207"/>
      <point x="150" y="-207" type="curve"/>
    </contour>
    <contour>
      <point x="-2" y="-187" type="move" name="_bottom"/>
    </contour>
    <contour>
      <point x="-2" y="-470" type="move" name="bottom"/>
    </contour>
  </outline>
</glyph>
<glyph name="uni06EB" format="1">
  <advance width="0"/>
  <unicode hex="06EB"/>
  <outline>
    <contour>
      <point x="84" y="782" type="line"/>
      <point x="2" y="863" type="line"/>
      <point x="-80" y="782" type="line"/>
      <point x="2" y="700" type="line"/>
    </contour>
    <contour>
      <point x="2" y="820" type="line"/>
      <point x="40" y="782" type="line"/>
      <point x="2" y="744" type="line"/>
      <point x="-36" y="782" type="line"/>
    </contour>
  </outline>
</glyph>
<glyph name="sindhipostpositionmen-ar" format="1">
  <advance width="630"/>
  <unicode hex="06FE"/>
  <outline>
    <contour>
      <point x="572" y="110" type="line"/>
      <point x="581" y="142"/>
      <point x="583" y="186"/>
      <point x="575" y="225" type="curve" smooth="yes"/>
      <point x="570" y="252"/>
      <point x="561" y="277"/>
      <point x="546" y="296" type="curve" smooth="yes"/>
      <point x="528" y="320"/>
      <point x="502" y="333"/>
      <point x="473" y="333" type="curve" smooth="yes"/>
      <point x="441" y="333"/>
      <point x="412" y="318"/>
      <point x="388" y="288" type="curve" smooth="yes"/>
      <point x="374" y="272"/>
      <point x="363" y="252"/>
      <point x="354" y="231" type="curve"/>
      <point x="338" y="241" type="line"/>
      <point x="304" y="131"/>
      <point x="274" y="109"/>
      <point x="180" y="55" type="curve" smooth="yes"/>
      <point x="133" y="28"/>
      <point x="112" y="18"/>
      <point x="30" y="-26" type="curve"/>
      <point x="60" y="-69" type="line"/>
      <point x="85" y="-61"/>
      <point x="118" y="-58"/>
      <point x="139" y="-58" type="curve" smooth="yes"/>
      <point x="160" y="-58"/>
      <point x="168" y="-61"/>
      <point x="191" y="-61" type="curve" smooth="yes"/>
      <point x="229" y="-61"/>
      <point x="247" y="-52"/>
      <point x="272" y="-36" type="curve" smooth="yes"/>
      <point x="322" y="-4"/>
      <point x="345" y="49"/>
      <point x="354" y="90" type="curve"/>
      <point x="412" y="55"/>
      <point x="458" y="44"/>
      <point x="532" y="37" type="curve"/>
    </contour>
    <contour>
      <point x="481" y="169"/>
      <point x="445" y="186"/>
      <point x="403" y="207" type="curve"/>
      <point x="403" y="207"/>
      <point x="414" y="235"/>
      <point x="445" y="235" type="curve" smooth="yes"/>
      <point x="469" y="235"/>
      <point x="490" y="219"/>
      <point x="503" y="198" type="curve" smooth="yes"/>
      <point x="511" y="185"/>
      <point x="516" y="171"/>
      <point x="519" y="157" type="curve"/>
    </contour>
    <component base="uniFBBC" xOffset="453" yOffset="40"/>
  </outline>
</glyph>
<glyph name="uni06FE" format="1">
  <advance width="630"/>
  <unicode hex="06FE"/>
  <outline>
    <contour>
      <point x="572" y="110" type="line"/>
      <point x="581" y="142"/>
      <point x="583" y="186"/>
      <point x="575" y="225" type="curve" smooth="yes"/>
      <point x="570" y="252"/>
      <point x="561" y="277"/>
      <point x="546" y="296" type="curve" smooth="yes"/>
      <point x="528" y="320"/>
      <point x="502" y="333"/>
      <point x="473" y="333" type="curve" smooth="yes"/>
      <point x="441" y="333"/>
      <point x="412" y="318"/>
      <point x="388" y="288" type="curve" smooth="yes"/>
      <point x="374" y="272"/>
      <point x="363" y="252"/>
      <point x="354" y="231" type="curve"/>
      <point x="338" y="241" type="line"/>
      <point x="304" y="131"/>
      <point x="274" y="109"/>
      <point x="180" y="55" type="curve" smooth="yes"/>
      <point x="133" y="28"/>
      <point x="112" y="18"/>
      <point x="30" y="-26" type="curve"/>
      <point x="60" y="-69" type="line"/>
      <point x="85" y="-61"/>
      <point x="118" y="-58"/>
      <point x="139" y="-58" type="curve" smooth="yes"/>
      <point x="160" y="-58"/>
      <point x="168" y="-61"/>
      <point x="191" y="-61" type="curve" smooth="yes"/>
      <point x="229" y="-61"/>
      <point x="247" y="-52"/>
      <point x="272" y="-36" type="curve" smooth="yes"/>
      <point x="322" y="-4"/>
      <point x="345" y="49"/>
      <point x="354" y="90" type="curve"/>
      <point x="412" y="55"/>
      <point x="458" y="44"/>
      <point x="532" y="37" type="curve"/>
    </contour>
    <contour>
      <point x="486" y="167"/>
      <point x="443" y="188"/>
      <point x="392" y="213" type="curve"/>
      <point x="392" y="213"/>
      <point x="405" y="247"/>
      <point x="443" y="247" type="curve" smooth="yes"/>
      <point x="472" y="247"/>
      <point x="497" y="228"/>
      <point x="513" y="202" type="curve" smooth="yes"/>
      <point x="522" y="187"/>
      <point x="529" y="170"/>
      <point x="532" y="153" type="curve"/>
    </contour>
    <component base="uniFBBC" xOffset="453" yOffset="40"/>
  </outline>
</glyph>
<glyph name="uni0750" format="1">
  <advance width="859"/>
  <unicode hex="0750"/>
  <outline>
    <component base="uni066E"/>
    <component base="dots.horz.below-ar" xOffset="413" yOffset="89"/>
    <contour>
      <point x="416" y="-251" type="move" name="bottom"/>
    </contour>
  </outline>
</glyph>
<glyph name="dammaCurly-ar" format="1">
  <advance width="0"/>
  <unicode hex="08E5"/>
  <outline>
    <contour>
      <point x="64" y="783" type="line"/>
      <point x="78" y="815"/>
      <point x="89" y="859"/>
      <point x="57" y="874" type="curve" smooth="yes"/>
      <point x="35" y="887"/>
      <point x="7" y="876"/>
      <point x="-17" y="847" type="curve" smooth="yes"/>
      <point x="-31" y="829"/>
      <point x="-36" y="813"/>
      <point x="-32" y="797" type="curve" smooth="yes"/>
      <point x="-27" y="779"/>
      <point x="-11" y="767"/>
      <point x="2" y="760" type="curve"/>
      <point x="-9" y="751"/>
      <point x="-21" y="748"/>
      <point x="-31" y="748" type="curve" smooth="yes"/>
      <point x="-46" y="748"/>
      <point x="-58" y="755"/>
      <point x="-63" y="767" type="curve"/>
      <point x="-76" y="752"/>
      <point x="-82" y="743"/>
      <point x="-91" y="726" type="curve"/>
      <point x="-75" y="707"/>
      <point x="-55" y="700"/>
      <point x="-37" y="700" type="curve" smooth="yes"/>
      <point x="-16" y="701"/>
      <point x="4" y="710"/>
      <point x="13" y="717" type="curve" smooth="yes"/>
      <point x="28" y="727"/>
      <point x="37" y="738"/>
      <point x="43" y="745" type="curve"/>
      <point x="77" y="730" type="line"/>
      <point x="79" y="753"/>
      <point x="79" y="760"/>
      <point x="77" y="777" type="curve"/>
    </contour>
    <contour>
      <point x="20" y="806" type="line" smooth="yes"/>
      <point x="10" y="811"/>
      <point x="5" y="817"/>
      <point x="5" y="822" type="curve" smooth="yes"/>
      <point x="4" y="827"/>
      <point x="8" y="834"/>
      <point x="17" y="837" type="curve" smooth="yes"/>
      <point x="23" y="839"/>
      <point x="28" y="838"/>
      <point x="35" y="832" type="curve" smooth="yes"/>
      <point x="41" y="826"/>
      <point x="42" y="811"/>
      <point x="35" y="798" type="curve"/>
    </contour>
  </outline>
</glyph>
<glyph name="fathatanCurly-ar" format="1">
  <advance width="0"/>
  <unicode hex="08E7"/>
  <outline>
    <contour>
      <point x="-54" y="793"/>
      <point x="-50" y="785"/>
      <point x="-29" y="770" type="curve"/>
      <point x="-33" y="761"/>
      <point x="-35" y="752"/>
      <point x="-34" y="743" type="curve" smooth="yes"/>
      <point x="-32" y="727"/>
      <point x="-26" y="718"/>
      <point x="0" y="700" type="curve"/>
      <point x="8" y="718" type="line"/>
      <point x="3" y="722"/>
      <point x="-3" y="727"/>
      <point x="-4" y="733" type="curve"/>
      <point x="-6" y="742"/>
      <point x="5" y="752"/>
      <point x="19" y="761" type="curve" smooth="yes"/>
      <point x="29" y="767"/>
      <point x="46" y="776"/>
      <point x="55" y="786" type="curve"/>
      <point x="61" y="795"/>
      <point x="64" y="806"/>
      <point x="64" y="817" type="curve" smooth="yes"/>
      <point x="64" y="835"/>
      <point x="60" y="843"/>
      <point x="37" y="860" type="curve"/>
      <point x="40" y="867"/>
      <point x="42" y="875"/>
      <point x="42" y="882" type="curve" smooth="yes"/>
      <point x="42" y="901"/>
      <point x="36" y="909"/>
      <point x="9" y="930" type="curve"/>
      <point x="1" y="912" type="line"/>
      <point x="6" y="906"/>
      <point x="11" y="901"/>
      <point x="12" y="898" type="curve"/>
      <point x="12" y="894"/>
      <point x="15" y="883"/>
      <point x="-16" y="866" type="curve" smooth="yes"/>
      <point x="-26" y="860"/>
      <point x="-38" y="854"/>
      <point x="-47" y="843" type="curve"/>
      <point x="-54" y="832"/>
      <point x="-58" y="820"/>
      <point x="-57" y="808" type="curve" smooth="yes"/>
    </contour>
    <contour>
      <point x="-29" y="807"/>
      <point x="-18" y="817"/>
      <point x="-4" y="826" type="curve" smooth="yes"/>
      <point x="4" y="831"/>
      <point x="16" y="838"/>
      <point x="25" y="845" type="curve"/>
      <point x="30" y="840"/>
      <point x="34" y="836"/>
      <point x="34" y="833" type="curve"/>
      <point x="34" y="829"/>
      <point x="37" y="818"/>
      <point x="7" y="801" type="curve" smooth="yes"/>
      <point x="-1" y="797"/>
      <point x="-10" y="792"/>
      <point x="-17" y="785" type="curve"/>
      <point x="-21" y="789"/>
      <point x="-26" y="793"/>
      <point x="-26" y="798" type="curve"/>
    </contour>
  </outline>
</glyph>
<glyph name="dammatanCurly-ar" format="1">
  <advance width="0"/>
  <unicode hex="08E8"/>
  <outline>
    <contour>
      <point x="78" y="764" type="line"/>
      <point x="88" y="788"/>
      <point x="97" y="821"/>
      <point x="73" y="832" type="curve" smooth="yes"/>
      <point x="56" y="842"/>
      <point x="34" y="834"/>
      <point x="16" y="811" type="curve" smooth="yes"/>
      <point x="6" y="798"/>
      <point x="2" y="785"/>
      <point x="5" y="774" type="curve" smooth="yes"/>
      <point x="9" y="760"/>
      <point x="21" y="751"/>
      <point x="31" y="745" type="curve"/>
      <point x="12" y="731"/>
      <point x="-11" y="735"/>
      <point x="-19" y="751" type="curve"/>
      <point x="-39" y="720" type="line"/>
      <point x="-27" y="705"/>
      <point x="-12" y="701"/>
      <point x="1" y="701" type="curve" smooth="yes"/>
      <point x="18" y="702"/>
      <point x="33" y="708"/>
      <point x="40" y="713" type="curve" smooth="yes"/>
      <point x="51" y="721"/>
      <point x="58" y="729"/>
      <point x="61" y="734" type="curve"/>
      <point x="88" y="724" type="line"/>
      <point x="89" y="741"/>
      <point x="89" y="746"/>
      <point x="88" y="758" type="curve"/>
    </contour>
    <contour>
      <point x="45" y="780" type="line" smooth="yes"/>
      <point x="37" y="784"/>
      <point x="34" y="789"/>
      <point x="34" y="793" type="curve" smooth="yes"/>
      <point x="33" y="797"/>
      <point x="35" y="802"/>
      <point x="42" y="804" type="curve" smooth="yes"/>
      <point x="47" y="805"/>
      <point x="51" y="804"/>
      <point x="56" y="800" type="curve" smooth="yes"/>
      <point x="61" y="796"/>
      <point x="61" y="784"/>
      <point x="56" y="775" type="curve"/>
    </contour>
    <contour>
      <point x="-83" y="838" type="line"/>
      <point x="-93" y="814"/>
      <point x="-101" y="781"/>
      <point x="-77" y="770" type="curve" smooth="yes"/>
      <point x="-60" y="760"/>
      <point x="-39" y="768"/>
      <point x="-21" y="791" type="curve" smooth="yes"/>
      <point x="-11" y="804"/>
      <point x="-6" y="816"/>
      <point x="-10" y="828" type="curve" smooth="yes"/>
      <point x="-14" y="842"/>
      <point x="-26" y="851"/>
      <point x="-35" y="856" type="curve"/>
      <point x="-17" y="871"/>
      <point x="7" y="866"/>
      <point x="14" y="851" type="curve"/>
      <point x="34" y="882" type="line"/>
      <point x="22" y="896"/>
      <point x="8" y="901"/>
      <point x="-6" y="901" type="curve" smooth="yes"/>
      <point x="-22" y="900"/>
      <point x="-38" y="893"/>
      <point x="-44" y="888" type="curve" smooth="yes"/>
      <point x="-55" y="881"/>
      <point x="-62" y="872"/>
      <point x="-66" y="867" type="curve"/>
      <point x="-92" y="878" type="line"/>
      <point x="-94" y="861"/>
      <point x="-94" y="856"/>
      <point x="-92" y="843" type="curve"/>
    </contour>
    <contour>
      <point x="-49" y="821" type="line" smooth="yes"/>
      <point x="-41" y="818"/>
      <point x="-38" y="812"/>
      <point x="-38" y="809" type="curve" smooth="yes"/>
      <point x="-38" y="804"/>
      <point x="-40" y="799"/>
      <point x="-46" y="798" type="curve" smooth="yes"/>
      <point x="-52" y="797"/>
      <point x="-55" y="797"/>
      <point x="-60" y="802" type="curve" smooth="yes"/>
      <point x="-66" y="806"/>
      <point x="-66" y="818"/>
      <point x="-60" y="827" type="curve"/>
    </contour>
  </outline>
</glyph>
<glyph name="openfathatan-ar" format="1">
  <advance width="0"/>
  <unicode hex="08F0"/>
  <outline>
    <contour>
      <point x="22" y="803"/>
      <point x="-78" y="765"/>
      <point x="-113" y="745" type="curve"/>
      <point x="-117" y="734"/>
      <point x="-123" y="717"/>
      <point x="-126" y="703" type="curve"/>
      <point x="-86" y="720"/>
      <point x="9" y="761"/>
      <point x="45" y="772" type="curve"/>
      <point x="52" y="789"/>
      <point x="54" y="796"/>
      <point x="57" y="812" type="curve"/>
    </contour>
    <contour>
      <point x="93" y="900"/>
      <point x="-7" y="862"/>
      <point x="-42" y="842" type="curve"/>
      <point x="-46" y="831"/>
      <point x="-52" y="814"/>
      <point x="-55" y="800" type="curve"/>
      <point x="-15" y="817"/>
      <point x="80" y="858"/>
      <point x="116" y="869" type="curve"/>
      <point x="123" y="886"/>
      <point x="125" y="893"/>
      <point x="128" y="909" type="curve"/>
    </contour>
  </outline>
</glyph>
<glyph name="uni08F2" format="1">
  <advance width="0"/>
  <unicode hex="08F2"/>
  <outline>
    <contour>
      <point x="19" y="-312"/>
      <point x="-81" y="-350"/>
      <point x="-116" y="-370" type="curve"/>
      <point x="-120" y="-381"/>
      <point x="-126" y="-398"/>
      <point x="-129" y="-412" type="curve"/>
      <point x="-89" y="-395"/>
      <point x="6" y="-354"/>
      <point x="42" y="-343" type="curve"/>
      <point x="49" y="-326"/>
      <point x="51" y="-319"/>
      <point x="54" y="-303" type="curve"/>
    </contour>
    <contour>
      <point x="90" y="-215"/>
      <point x="-10" y="-253"/>
      <point x="-45" y="-273" type="curve"/>
      <point x="-49" y="-284"/>
      <point x="-55" y="-301"/>
      <point x="-58" y="-315" type="curve"/>
      <point x="-18" y="-298"/>
      <point x="77" y="-257"/>
      <point x="113" y="-246" type="curve"/>
      <point x="120" y="-229"/>
      <point x="122" y="-222"/>
      <point x="125" y="-206" type="curve"/>
    </contour>
    <contour>
      <point x="-1" y="-186" type="move" name="_bottom"/>
    </contour>
    <contour>
      <point x="-1" y="-412" type="move" name="bottom"/>
    </contour>
  </outline>
</glyph>
<glyph name="uni08F3" format="1">
  <advance width="0"/>
  <unicode hex="08F3"/>
  <outline>
    <contour>
      <point x="40" y="838"/>
      <point x="39" y="845"/>
      <point x="34" y="851" type="curve" smooth="yes"/>
      <point x="30" y="856"/>
      <point x="26" y="861"/>
      <point x="20" y="861" type="curve" smooth="yes"/>
      <point x="7" y="861"/>
      <point x="4" y="851"/>
      <point x="4" y="845" type="curve" smooth="yes"/>
      <point x="4" y="838"/>
      <point x="5" y="831"/>
      <point x="23" y="831" type="curve" smooth="yes"/>
      <point x="33" y="831"/>
      <point x="38" y="835"/>
      <point x="40" y="838" type="curve"/>
    </contour>
    <contour>
      <point x="66" y="790"/>
      <point x="64" y="778"/>
      <point x="62" y="767" type="curve" smooth="yes"/>
      <point x="60" y="755"/>
      <point x="57" y="745"/>
      <point x="53" y="737" type="curve" smooth="yes"/>
      <point x="46" y="723"/>
      <point x="37" y="714"/>
      <point x="30" y="708" type="curve" smooth="yes"/>
      <point x="21" y="703"/>
      <point x="12" y="700"/>
      <point x="-2" y="700" type="curve" smooth="yes"/>
      <point x="-7" y="700"/>
      <point x="-13" y="701"/>
      <point x="-18" y="701" type="curve" smooth="yes"/>
      <point x="-26" y="701"/>
      <point x="-39" y="699"/>
      <point x="-46" y="697" type="curve"/>
      <point x="-56" y="712" type="line"/>
      <point x="-51" y="714"/>
      <point x="-28" y="725"/>
      <point x="-5" y="739" type="curve" smooth="yes"/>
      <point x="8" y="747"/>
      <point x="19" y="756"/>
      <point x="28" y="767" type="curve" smooth="yes"/>
      <point x="35" y="776"/>
      <point x="40" y="787"/>
      <point x="41" y="797" type="curve"/>
      <point x="37" y="795"/>
      <point x="32" y="793"/>
      <point x="24" y="793" type="curve" smooth="yes"/>
      <point x="10" y="793"/>
      <point x="1" y="797"/>
      <point x="-5" y="803" type="curve" smooth="yes"/>
      <point x="-14" y="812"/>
      <point x="-15" y="826"/>
      <point x="-15" y="835" type="curve" smooth="yes"/>
      <point x="-15" y="849"/>
      <point x="-11" y="863"/>
      <point x="-4" y="874" type="curve" smooth="yes"/>
      <point x="4" y="885"/>
      <point x="14" y="893"/>
      <point x="24" y="893" type="curve" smooth="yes"/>
      <point x="44" y="893"/>
      <point x="54" y="877"/>
      <point x="60" y="858" type="curve" smooth="yes"/>
      <point x="65" y="839"/>
      <point x="66" y="817"/>
      <point x="66" y="805" type="curve" smooth="yes"/>
    </contour>
  </outline>
</glyph>
<glyph name="uni25A2" format="1">
  <advance width="433"/>
  <unicode hex="25A2"/>
  <outline>
    <contour>
      <point x="52" y="20"/>
      <point x="73" y="-1"/>
      <point x="99" y="-1" type="curve" smooth="yes"/>
      <point x="339" y="-1" type="line" smooth="yes"/>
      <point x="364" y="-1"/>
      <point x="385" y="20"/>
      <point x="385" y="46" type="curve" smooth="yes"/>
      <point x="385" y="286" type="line" smooth="yes"/>
      <point x="385" y="311"/>
      <point x="364" y="332"/>
      <point x="339" y="332" type="curve" smooth="yes"/>
      <point x="99" y="332" type="line" smooth="yes"/>
      <point x="73" y="332"/>
      <point x="52" y="311"/>
      <point x="52" y="286" type="curve" smooth="yes"/>
      <point x="52" y="46" type="line" smooth="yes"/>
    </contour>
    <contour>
      <point x="112" y="250" type="line" smooth="yes"/>
      <point x="112" y="262"/>
      <point x="122" y="272"/>
      <point x="134" y="272" type="curve" smooth="yes"/>
      <point x="303" y="272" type="line" smooth="yes"/>
      <point x="315" y="272"/>
      <point x="325" y="262"/>
      <point x="325" y="250" type="curve" smooth="yes"/>
      <point x="325" y="81" type="line" smooth="yes"/>
      <point x="325" y="69"/>
      <point x="315" y="59"/>
      <point x="303" y="59" type="curve" smooth="yes"/>
      <point x="134" y="59" type="line" smooth="yes"/>
      <point x="122" y="59"/>
      <point x="112" y="69"/>
      <point x="112" y="81" type="curve" smooth="yes"/>
    </contour>
  </outline>
</glyph>
<glyph name="keheh-ar.fina" format="1">
  <advance width="883"/>
  <unicode hex="FB8F"/>
  <outline>
    <contour>
      <point x="780" y="517"/>
      <point x="787" y="563"/>
      <point x="792" y="609" type="curve"/>
      <point x="658" y="546"/>
      <point x="540" y="482"/>
      <point x="477" y="428" type="curve"/>
      <point x="469" y="397"/>
      <point x="462" y="362"/>
      <point x="458" y="326" type="curve"/>
      <point x="511" y="266" type="line"/>
      <point x="519" y="280" type="line"/>
      <point x="527" y="270"/>
      <point x="538" y="258"/>
      <point x="546" y="248" type="curve"/>
      <point x="572" y="218"/>
      <point x="598" y="194"/>
      <point x="618" y="162" type="curve"/>
      <point x="611" y="153"/>
      <point x="595" y="138"/>
      <point x="567" y="136" type="curve" smooth="yes"/>
      <point x="519" y="133"/>
      <point x="474" y="134"/>
      <point x="420" y="134" type="curve" smooth="yes"/>
      <point x="394" y="134"/>
      <point x="292" y="133"/>
      <point x="245" y="139" type="curve" smooth="yes"/>
      <point x="215" y="143"/>
      <point x="167" y="158"/>
      <point x="141" y="185" type="curve" smooth="yes"/>
      <point x="126" y="201"/>
      <point x="114" y="223"/>
      <point x="112" y="258" type="curve"/>
      <point x="67" y="269" type="line"/>
      <point x="57" y="198"/>
      <point x="56" y="149"/>
      <point x="77" y="105" type="curve" smooth="yes"/>
      <point x="102" y="52"/>
      <point x="156" y="10"/>
      <point x="241" y="-4" type="curve" smooth="yes"/>
      <point x="278" y="-10"/>
      <point x="335" y="-10"/>
      <point x="421" y="-9" type="curve" smooth="yes"/>
      <point x="472" y="-8"/>
      <point x="519" y="-9"/>
      <point x="575" y="-7" type="curve" smooth="yes"/>
      <point x="658" y="-4"/>
      <point x="682" y="67"/>
      <point x="685" y="75" type="curve"/>
      <point x="691" y="67"/>
      <point x="733" y="0"/>
      <point x="828" y="0" type="curve" smooth="yes"/>
      <point x="883" y="0" type="line"/>
      <point x="883" y="139" type="line"/>
      <point x="827" y="139" type="line" smooth="yes"/>
      <point x="778" y="139"/>
      <point x="752" y="166"/>
      <point x="723" y="197" type="curve" smooth="yes"/>
      <point x="703" y="219"/>
      <point x="673" y="259"/>
      <point x="642" y="293" type="curve" smooth="yes"/>
      <point x="617" y="320"/>
      <point x="591" y="348"/>
      <point x="569" y="372" type="curve"/>
      <point x="638" y="414"/>
      <point x="687" y="438"/>
      <point x="768" y="471" type="curve"/>
    </contour>
    <contour>
      <point x="310" y="165" type="move" name="top"/>
    </contour>
    <contour>
      <point x="394" y="-38" type="move" name="bottom"/>
    </contour>
  </outline>
</glyph>
<glyph name="uniFB94" format="1">
  <advance width="289"/>
  <unicode hex="FB94"/>
  <outline>
    <contour>
      <point x="72" y="535"/>
      <point x="148" y="578"/>
      <point x="237" y="619" type="curve"/>
      <point x="251" y="683" type="line"/>
      <point x="170" y="647"/>
      <point x="71" y="593"/>
      <point x="1" y="549" type="curve"/>
      <point x="-11" y="477" type="line"/>
    </contour>
    <component base="uniFEDB"/>
    <contour>
      <point x="121" y="696" type="move" name="top"/>
    </contour>
  </outline>
</glyph>
<glyph name="noonghunna-ar.fina" format="1">
  <advance width="678"/>
  <unicode hex="FB9F"/>
  <outline>
    <contour>
      <point x="678" y="139" type="line"/>
      <point x="579" y="139" type="line" smooth="yes"/>
      <point x="541" y="139"/>
      <point x="507" y="160"/>
      <point x="480" y="199" type="curve" smooth="yes"/>
      <point x="471" y="212" type="line"/>
      <point x="445" y="179"/>
      <point x="425" y="149"/>
      <point x="403" y="113" type="curve"/>
      <point x="452" y="49"/>
      <point x="487" y="-9"/>
      <point x="487" y="-44" type="curve" smooth="yes"/>
      <point x="487" y="-67"/>
      <point x="471" y="-85"/>
      <point x="440" y="-101" type="curve" smooth="yes"/>
      <point x="417" y="-113"/>
      <point x="369" y="-132"/>
      <point x="305" y="-132" type="curve" smooth="yes"/>
      <point x="266" y="-132"/>
      <point x="235" y="-125"/>
      <point x="214" y="-118" type="curve" smooth="yes"/>
      <point x="193" y="-111"/>
      <point x="171" y="-99"/>
      <point x="157" y="-82" type="curve" smooth="yes"/>
      <point x="129" y="-48"/>
      <point x="132" y="-1"/>
      <point x="142" y="53" type="curve"/>
      <point x="99" y="68" type="line"/>
      <point x="79" y="33"/>
      <point x="64" y="-28"/>
      <point x="61" y="-69" type="curve" smooth="yes"/>
      <point x="58" y="-107"/>
      <point x="65" y="-142"/>
      <point x="75" y="-167" type="curve" smooth="yes"/>
      <point x="90" y="-205"/>
      <point x="117" y="-234"/>
      <point x="157" y="-255" type="curve" smooth="yes"/>
      <point x="197" y="-276"/>
      <point x="243" y="-285"/>
      <point x="293" y="-285" type="curve" smooth="yes"/>
      <point x="334" y="-285"/>
      <point x="378" y="-279"/>
      <point x="414" y="-264" type="curve" smooth="yes"/>
      <point x="449" y="-250"/>
      <point x="483" y="-223"/>
      <point x="502" y="-202" type="curve" smooth="yes"/>
      <point x="554" y="-144"/>
      <point x="567" y="-64"/>
      <point x="559" y="6" type="curve"/>
      <point x="572" y="2"/>
      <point x="587" y="0"/>
      <point x="608" y="0" type="curve"/>
      <point x="678" y="0" type="line"/>
    </contour>
    <contour>
      <point x="288" y="-38" type="move" name="top"/>
    </contour>
    <contour>
      <point x="293" y="-305" type="move" name="bottom"/>
    </contour>
  </outline>
</glyph>
<glyph name="hehgoal-ar.init" format="1">
  <advance width="244"/>
  <unicode hex="FBA8"/>
  <outline>
    <contour>
      <point x="194" y="298"/>
      <point x="123" y="360"/>
      <point x="123" y="360" type="curve"/>
      <point x="95" y="330"/>
      <point x="78" y="303"/>
      <point x="55" y="257" type="curve"/>
      <point x="78" y="232"/>
      <point x="101" y="206"/>
      <point x="124" y="176" type="curve"/>
      <point x="108" y="152"/>
      <point x="72" y="139"/>
      <point x="45" y="139" type="curve" smooth="yes"/>
      <point x="-10" y="139" type="line" smooth="yes"/>
      <point x="-44" y="139"/>
      <point x="-80" y="113"/>
      <point x="-80" y="70" type="curve" smooth="yes"/>
      <point x="-80" y="31"/>
      <point x="-49" y="0"/>
      <point x="-10" y="0" type="curve" smooth="yes"/>
      <point x="37" y="0" type="line" smooth="yes"/>
      <point x="90" y="0"/>
      <point x="132" y="22"/>
      <point x="159" y="65" type="curve" smooth="yes"/>
      <point x="182" y="101"/>
      <point x="194" y="148"/>
      <point x="194" y="192" type="curve" smooth="yes"/>
    </contour>
    <contour>
      <point x="123" y="-18" type="line"/>
      <point x="52" y="-46"/>
      <point x="3" y="-81"/>
      <point x="-11" y="-140" type="curve" smooth="yes"/>
      <point x="-19" y="-177"/>
      <point x="-1" y="-207"/>
      <point x="30" y="-210" type="curve" smooth="yes"/>
      <point x="61" y="-213"/>
      <point x="75" y="-198"/>
      <point x="84" y="-166" type="curve"/>
      <point x="55" y="-164"/>
      <point x="42" y="-146"/>
      <point x="51" y="-120" type="curve" smooth="yes"/>
      <point x="62" y="-89"/>
      <point x="85" y="-71"/>
      <point x="123" y="-57" type="curve"/>
    </contour>
    <contour>
      <point x="-2" y="335" type="move" name="top"/>
    </contour>
    <contour>
      <point x="31" y="-231" type="move" name="bottom"/>
    </contour>
  </outline>
</glyph>
<glyph name="hehDoachashmee-ar.fina" format="1">
  <advance width="697"/>
  <unicode hex="FBAB"/>
  <outline>
    <contour>
      <point x="623" y="139" type="line" smooth="yes"/>
      <point x="602" y="139"/>
      <point x="586" y="140"/>
      <point x="574" y="150" type="curve"/>
      <point x="573" y="190"/>
      <point x="556" y="226"/>
      <point x="536" y="253" type="curve" smooth="yes"/>
      <point x="511" y="289"/>
      <point x="479" y="314"/>
      <point x="439" y="338" type="curve" smooth="yes"/>
      <point x="419" y="350"/>
      <point x="399" y="361"/>
      <point x="378" y="371" type="curve" smooth="yes"/>
      <point x="345" y="387"/>
      <point x="338" y="391"/>
      <point x="315" y="407" type="curve"/>
      <point x="305" y="390"/>
      <point x="294" y="373"/>
      <point x="285" y="356" type="curve" smooth="yes"/>
      <point x="271" y="330"/>
      <point x="267" y="312"/>
      <point x="284" y="301" type="curve" smooth="yes"/>
      <point x="292" y="296" type="line"/>
      <point x="268" y="286"/>
      <point x="248" y="270"/>
      <point x="235" y="251" type="curve" smooth="yes"/>
      <point x="221" y="232"/>
      <point x="211" y="205"/>
      <point x="208" y="178" type="curve" smooth="yes"/>
      <point x="205" y="151"/>
      <point x="209" y="124"/>
      <point x="225" y="101" type="curve"/>
      <point x="197" y="79"/>
      <point x="146" y="54"/>
      <point x="72" y="29" type="curve"/>
      <point x="60" y="-9" type="line"/>
      <point x="125" y="-21"/>
      <point x="180" y="-20"/>
      <point x="228" y="-12" type="curve" smooth="yes"/>
      <point x="271" y="-5"/>
      <point x="311" y="14"/>
      <point x="350" y="49" type="curve"/>
      <point x="385" y="37"/>
      <point x="450" y="3"/>
      <point x="477" y="-12" type="curve"/>
      <point x="505" y="15" type="line"/>
      <point x="514" y="24"/>
      <point x="526" y="35"/>
      <point x="532" y="47" type="curve"/>
      <point x="542" y="33"/>
      <point x="554" y="22"/>
      <point x="568" y="15" type="curve" smooth="yes"/>
      <point x="587" y="5"/>
      <point x="609" y="0"/>
      <point x="637" y="0" type="curve" smooth="yes"/>
      <point x="697" y="0" type="line"/>
      <point x="697" y="139" type="line"/>
    </contour>
    <contour>
      <point x="375" y="217"/>
      <point x="379" y="202"/>
      <point x="379" y="198" type="curve" smooth="yes"/>
      <point x="379" y="195"/>
      <point x="376" y="183"/>
      <point x="362" y="173" type="curve"/>
      <point x="348" y="164"/>
      <point x="336" y="163"/>
      <point x="332" y="163" type="curve" smooth="yes"/>
      <point x="327" y="163"/>
      <point x="311" y="164"/>
      <point x="290" y="175" type="curve"/>
      <point x="276" y="183"/>
      <point x="269" y="192"/>
      <point x="267" y="196" type="curve"/>
      <point x="268" y="199"/>
      <point x="275" y="210"/>
      <point x="296" y="229" type="curve"/>
      <point x="321" y="250"/>
      <point x="335" y="255"/>
      <point x="342" y="255" type="curve" smooth="yes"/>
      <point x="352" y="255"/>
      <point x="361" y="243"/>
      <point x="366" y="233" type="curve"/>
    </contour>
    <contour>
      <point x="484" y="170"/>
      <point x="491" y="147"/>
      <point x="490" y="122" type="curve"/>
      <point x="467" y="128"/>
      <point x="429" y="138"/>
      <point x="410" y="143" type="curve"/>
      <point x="419" y="158"/>
      <point x="425" y="172"/>
      <point x="427" y="185" type="curve" smooth="yes"/>
      <point x="430" y="202"/>
      <point x="428" y="217"/>
      <point x="425" y="233" type="curve"/>
      <point x="444" y="220"/>
      <point x="459" y="205"/>
      <point x="470" y="190" type="curve" smooth="yes"/>
    </contour>
    <contour>
      <point x="307" y="416" type="move" name="top"/>
    </contour>
    <contour>
      <point x="349" y="-14" type="move" name="bottom"/>
    </contour>
  </outline>
</glyph>
<glyph name="hehDoachashmee-ar.medi" format="1">
  <advance width="511"/>
  <unicode hex="FBAD"/>
  <outline>
    <contour>
      <point x="437" y="139" type="line" smooth="yes"/>
      <point x="416" y="139"/>
      <point x="400" y="140"/>
      <point x="388" y="150" type="curve"/>
      <point x="387" y="190"/>
      <point x="370" y="226"/>
      <point x="350" y="253" type="curve" smooth="yes"/>
      <point x="325" y="289"/>
      <point x="293" y="314"/>
      <point x="253" y="338" type="curve" smooth="yes"/>
      <point x="233" y="350"/>
      <point x="213" y="361"/>
      <point x="192" y="371" type="curve" smooth="yes"/>
      <point x="159" y="387"/>
      <point x="152" y="391"/>
      <point x="129" y="407" type="curve"/>
      <point x="119" y="390"/>
      <point x="108" y="373"/>
      <point x="99" y="356" type="curve" smooth="yes"/>
      <point x="85" y="330"/>
      <point x="81" y="312"/>
      <point x="98" y="301" type="curve" smooth="yes"/>
      <point x="106" y="296" type="line"/>
      <point x="82" y="286"/>
      <point x="62" y="270"/>
      <point x="49" y="251" type="curve" smooth="yes"/>
      <point x="33" y="229"/>
      <point x="25" y="203"/>
      <point x="26" y="176" type="curve"/>
      <point x="26" y="163"/>
      <point x="29" y="151"/>
      <point x="33" y="139" type="curve"/>
      <point x="-10" y="139" type="line" smooth="yes"/>
      <point x="-49" y="139"/>
      <point x="-80" y="106"/>
      <point x="-80" y="68" type="curve" smooth="yes"/>
      <point x="-80" y="38"/>
      <point x="-60" y="0"/>
      <point x="-10" y="0" type="curve" smooth="yes"/>
      <point x="43" y="0" type="line" smooth="yes"/>
      <point x="99" y="0"/>
      <point x="144" y="15"/>
      <point x="171" y="44" type="curve"/>
      <point x="204" y="34"/>
      <point x="262" y="4"/>
      <point x="291" y="-12" type="curve"/>
      <point x="321" y="19" type="line"/>
      <point x="337" y="37"/>
      <point x="342" y="42"/>
      <point x="346" y="47" type="curve"/>
      <point x="349" y="43"/>
      <point x="355" y="33"/>
      <point x="369" y="23" type="curve" smooth="yes"/>
      <point x="386" y="11"/>
      <point x="411" y="0"/>
      <point x="451" y="0" type="curve" smooth="yes"/>
      <point x="511" y="0" type="line"/>
      <point x="511" y="139" type="line"/>
    </contour>
    <contour>
      <point x="189" y="217"/>
      <point x="193" y="202"/>
      <point x="193" y="198" type="curve" smooth="yes"/>
      <point x="193" y="195"/>
      <point x="190" y="183"/>
      <point x="176" y="173" type="curve"/>
      <point x="162" y="164"/>
      <point x="150" y="163"/>
      <point x="146" y="163" type="curve" smooth="yes"/>
      <point x="141" y="163"/>
      <point x="125" y="164"/>
      <point x="104" y="175" type="curve"/>
      <point x="90" y="183"/>
      <point x="83" y="192"/>
      <point x="81" y="196" type="curve"/>
      <point x="82" y="199"/>
      <point x="89" y="210"/>
      <point x="110" y="229" type="curve"/>
      <point x="135" y="250"/>
      <point x="149" y="255"/>
      <point x="156" y="255" type="curve" smooth="yes"/>
      <point x="166" y="255"/>
      <point x="175" y="243"/>
      <point x="180" y="233" type="curve"/>
    </contour>
    <contour>
      <point x="298" y="170"/>
      <point x="305" y="147"/>
      <point x="304" y="122" type="curve"/>
      <point x="281" y="128"/>
      <point x="243" y="138"/>
      <point x="224" y="143" type="curve"/>
      <point x="233" y="158"/>
      <point x="239" y="172"/>
      <point x="241" y="185" type="curve" smooth="yes"/>
      <point x="244" y="202"/>
      <point x="242" y="217"/>
      <point x="239" y="233" type="curve"/>
      <point x="258" y="220"/>
      <point x="273" y="205"/>
      <point x="284" y="190" type="curve" smooth="yes"/>
    </contour>
    <contour>
      <point x="125" y="415" type="move" name="top"/>
    </contour>
    <contour>
      <point x="160" y="-12" type="move" name="bottom"/>
    </contour>
  </outline>
</glyph>
<glyph name="yehbarree-ar.fina" format="1">
  <advance width="615"/>
  <unicode hex="FBAF"/>
  <outline>
    <contour>
      <point x="615" y="139" type="line"/>
      <point x="481" y="139" type="line" smooth="yes"/>
      <point x="432" y="139"/>
      <point x="397" y="127"/>
      <point x="370" y="113" type="curve" smooth="yes"/>
      <point x="344" y="99"/>
      <point x="327" y="82"/>
      <point x="318" y="72" type="curve" smooth="yes"/>
      <point x="301" y="55"/>
      <point x="271" y="39"/>
      <point x="227" y="18" type="curve" smooth="yes"/>
      <point x="193" y="2"/>
      <point x="155" y="-17"/>
      <point x="123" y="-42" type="curve" smooth="yes"/>
      <point x="96" y="-64"/>
      <point x="60" y="-96"/>
      <point x="60" y="-160" type="curve" smooth="yes"/>
      <point x="60" y="-179"/>
      <point x="66" y="-215"/>
      <point x="108" y="-244" type="curve" smooth="yes"/>
      <point x="146" y="-270"/>
      <point x="203" y="-284"/>
      <point x="277" y="-284" type="curve" smooth="yes"/>
      <point x="587" y="-284" type="line"/>
      <point x="625" y="-238"/>
      <point x="650" y="-197"/>
      <point x="674" y="-145" type="curve"/>
      <point x="264" y="-145" type="line" smooth="yes"/>
      <point x="190" y="-145"/>
      <point x="167" y="-136"/>
      <point x="167" y="-119" type="curve" smooth="yes"/>
      <point x="167" y="-110"/>
      <point x="174" y="-102"/>
      <point x="184" y="-98" type="curve"/>
      <point x="210" y="-90"/>
      <point x="231" y="-80"/>
      <point x="242" y="-74" type="curve" smooth="yes"/>
      <point x="266" y="-61"/>
      <point x="302" y="-36"/>
      <point x="310" y="-28" type="curve" smooth="yes"/>
      <point x="315" y="-24"/>
      <point x="340" y="0"/>
      <point x="391" y="0" type="curve" smooth="yes"/>
      <point x="615" y="0" type="line" smooth="yes"/>
    </contour>
    <contour>
      <point x="240" y="117" type="move" name="top"/>
    </contour>
    <contour>
      <point x="277" y="-304" type="move" name="bottom"/>
    </contour>
  </outline>
</glyph>
<glyph name="threedotsupbelow-ar" format="1">
  <advance width="0"/>
  <unicode hex="FBB7"/>
  <outline>
    <contour>
      <point x="39" y="-200"/>
      <point x="15" y="-225"/>
      <point x="-4" y="-244" type="curve"/>
      <point x="-18" y="-223"/>
      <point x="-41" y="-203"/>
      <point x="-64" y="-191" type="curve"/>
      <point x="-73" y="-203"/>
      <point x="-110" y="-241"/>
      <point x="-128" y="-256" type="curve"/>
      <point x="-100" y="-277"/>
      <point x="-75" y="-303"/>
      <point x="-59" y="-323" type="curve"/>
      <point x="-41" y="-310"/>
      <point x="-15" y="-284"/>
      <point x="-2" y="-268" type="curve"/>
      <point x="19" y="-286"/>
      <point x="38" y="-307"/>
      <point x="51" y="-323" type="curve"/>
      <point x="73" y="-307"/>
      <point x="106" y="-271"/>
      <point x="115" y="-260" type="curve"/>
      <point x="104" y="-236"/>
      <point x="76" y="-207"/>
      <point x="46" y="-191" type="curve"/>
    </contour>
    <contour>
      <point x="18" y="-196"/>
      <point x="51" y="-161"/>
      <point x="60" y="-149" type="curve"/>
      <point x="49" y="-124"/>
      <point x="21" y="-95"/>
      <point x="-9" y="-80" type="curve"/>
      <point x="-18" y="-92"/>
      <point x="-55" y="-130"/>
      <point x="-73" y="-145" type="curve"/>
      <point x="-45" y="-166"/>
      <point x="-20" y="-192"/>
      <point x="-4" y="-213" type="curve"/>
    </contour>
    <contour>
      <point x="-7" y="-43" type="move" name="_bottom"/>
    </contour>
    <contour>
      <point x="-7" y="-324" type="move" name="bottom"/>
    </contour>
  </outline>
</glyph>
<glyph name="threedotsdownabove-ar" format="1">
  <advance width="0"/>
  <unicode hex="FBB8"/>
  <outline>
    <contour>
      <point x="105" y="902"/>
      <point x="78" y="931"/>
      <point x="47" y="946" type="curve"/>
      <point x="40" y="937"/>
      <point x="16" y="911"/>
      <point x="-3" y="893" type="curve"/>
      <point x="-17" y="913"/>
      <point x="-39" y="933"/>
      <point x="-63" y="946" type="curve"/>
      <point x="-72" y="934"/>
      <point x="-109" y="896"/>
      <point x="-127" y="881" type="curve"/>
      <point x="-98" y="861"/>
      <point x="-74" y="834"/>
      <point x="-57" y="813" type="curve"/>
      <point x="-40" y="827"/>
      <point x="-14" y="853"/>
      <point x="0" y="868" type="curve"/>
      <point x="21" y="850"/>
      <point x="40" y="830"/>
      <point x="53" y="813" type="curve"/>
      <point x="75" y="830"/>
      <point x="108" y="865"/>
      <point x="116" y="877" type="curve"/>
    </contour>
    <contour>
      <point x="54" y="791"/>
      <point x="26" y="820"/>
      <point x="-4" y="837" type="curve"/>
      <point x="-13" y="825"/>
      <point x="-50" y="787"/>
      <point x="-69" y="772" type="curve"/>
      <point x="-40" y="751"/>
      <point x="-15" y="724"/>
      <point x="1" y="704" type="curve"/>
      <point x="24" y="720"/>
      <point x="57" y="756"/>
      <point x="65" y="768" type="curve"/>
    </contour>
    <contour>
      <point x="-6" y="960" type="move" name="top"/>
    </contour>
    <contour>
      <point x="-6" y="680" type="move" name="_top"/>
    </contour>
  </outline>
</glyph>
<glyph name="threedotsdownbelow-ar" format="1">
  <advance width="0"/>
  <unicode hex="FBB9"/>
  <outline>
    <contour>
      <point x="105" y="-8"/>
      <point x="78" y="21"/>
      <point x="47" y="36" type="curve"/>
      <point x="40" y="27"/>
      <point x="16" y="1"/>
      <point x="-3" y="-17" type="curve"/>
      <point x="-17" y="4"/>
      <point x="-39" y="24"/>
      <point x="-63" y="36" type="curve"/>
      <point x="-72" y="24"/>
      <point x="-109" y="-14"/>
      <point x="-127" y="-29" type="curve"/>
      <point x="-98" y="-49"/>
      <point x="-74" y="-76"/>
      <point x="-57" y="-97" type="curve"/>
      <point x="-40" y="-83"/>
      <point x="-14" y="-57"/>
      <point x="0" y="-41" type="curve"/>
      <point x="21" y="-60"/>
      <point x="39" y="-80"/>
      <point x="53" y="-97" type="curve"/>
      <point x="75" y="-80"/>
      <point x="108" y="-44"/>
      <point x="116" y="-33" type="curve"/>
    </contour>
    <contour>
      <point x="54" y="-118"/>
      <point x="26" y="-89"/>
      <point x="-4" y="-73" type="curve"/>
      <point x="-13" y="-85"/>
      <point x="-50" y="-123"/>
      <point x="-69" y="-138" type="curve"/>
      <point x="-40" y="-159"/>
      <point x="-15" y="-185"/>
      <point x="1" y="-206" type="curve"/>
      <point x="24" y="-190"/>
      <point x="57" y="-154"/>
      <point x="65" y="-142" type="curve"/>
    </contour>
    <contour>
      <point x="-6" y="72" type="move" name="_bottom"/>
    </contour>
    <contour>
      <point x="-6" y="-208" type="move" name="bottom"/>
    </contour>
  </outline>
</glyph>
<glyph name="fourdotsabove-ar" format="1">
  <advance width="0"/>
  <unicode hex="FBBA"/>
  <outline>
    <contour>
      <point x="-97" y="623"/>
      <point x="-73" y="596"/>
      <point x="-56" y="576" type="curve"/>
      <point x="-39" y="590"/>
      <point x="-13" y="616"/>
      <point x="1" y="631" type="curve"/>
      <point x="22" y="613"/>
      <point x="41" y="593"/>
      <point x="54" y="576" type="curve"/>
      <point x="76" y="593"/>
      <point x="109" y="628"/>
      <point x="117" y="640" type="curve"/>
      <point x="107" y="661"/>
      <point x="86" y="686"/>
      <point x="59" y="702" type="curve"/>
      <point x="81" y="720"/>
      <point x="110" y="751"/>
      <point x="117" y="762" type="curve"/>
      <point x="106" y="786"/>
      <point x="79" y="815"/>
      <point x="48" y="831" type="curve"/>
      <point x="41" y="821"/>
      <point x="17" y="796"/>
      <point x="-2" y="778" type="curve"/>
      <point x="-16" y="798"/>
      <point x="-38" y="818"/>
      <point x="-62" y="831" type="curve"/>
      <point x="-71" y="819"/>
      <point x="-108" y="781"/>
      <point x="-126" y="766" type="curve"/>
      <point x="-101" y="748"/>
      <point x="-80" y="726"/>
      <point x="-64" y="707" type="curve"/>
      <point x="-75" y="693"/>
      <point x="-109" y="658"/>
      <point x="-126" y="644" type="curve"/>
    </contour>
    <contour>
      <point x="-34" y="717"/>
      <point x="-12" y="739"/>
      <point x="1" y="753" type="curve"/>
      <point x="18" y="738"/>
      <point x="34" y="722"/>
      <point x="47" y="707" type="curve"/>
      <point x="38" y="696"/>
      <point x="16" y="673"/>
      <point x="-2" y="656" type="curve"/>
      <point x="-14" y="673"/>
      <point x="-31" y="690"/>
      <point x="-51" y="702" type="curve"/>
    </contour>
    <contour>
      <point x="-5" y="831" type="move" name="top"/>
    </contour>
    <contour>
      <point x="-5" y="556" type="move" name="_top"/>
    </contour>
  </outline>
</glyph>
<glyph name="uniFBBC" format="1">
  <advance width="0"/>
  <unicode hex="FBBC"/>
  <outline>
    <contour>
      <point x="-61" y="-98"/>
      <point x="-49" y="-129"/>
      <point x="-53" y="-178" type="curve"/>
      <point x="-24" y="-169" type="line"/>
      <point x="-16" y="-122"/>
      <point x="-18" y="-76"/>
      <point x="-40" y="-38" type="curve"/>
      <point x="-56" y="-48"/>
      <point x="-64" y="-56"/>
      <point x="-78" y="-70" type="curve"/>
    </contour>
    <contour>
      <point x="25" y="-98"/>
      <point x="36" y="-129"/>
      <point x="33" y="-178" type="curve"/>
      <point x="61" y="-169" type="line"/>
      <point x="69" y="-122"/>
      <point x="67" y="-76"/>
      <point x="45" y="-38" type="curve"/>
      <point x="29" y="-48"/>
      <point x="21" y="-56"/>
      <point x="7" y="-70" type="curve"/>
    </contour>
  </outline>
</glyph>
<glyph name="ring-ar" format="1">
  <advance width="0"/>
  <unicode hex="FBBF"/>
  <outline>
    <contour>
      <point x="-49" y="250"/>
      <point x="-71" y="190"/>
      <point x="-71" y="144" type="curve" smooth="yes"/>
      <point x="-71" y="125"/>
      <point x="-58" y="79"/>
      <point x="-1" y="79" type="curve" smooth="yes"/>
      <point x="31" y="79"/>
      <point x="52" y="89"/>
      <point x="63" y="107" type="curve" smooth="yes"/>
      <point x="73" y="123"/>
      <point x="75" y="141"/>
      <point x="75" y="153" type="curve" smooth="yes"/>
      <point x="75" y="195"/>
      <point x="56" y="250"/>
      <point x="-1" y="250" type="curve"/>
    </contour>
    <contour>
      <point x="35" y="195"/>
      <point x="41" y="174"/>
      <point x="41" y="159" type="curve" smooth="yes"/>
      <point x="41" y="141"/>
      <point x="25" y="136"/>
      <point x="-1" y="136" type="curve" smooth="yes"/>
      <point x="-27" y="136"/>
      <point x="-33" y="149"/>
      <point x="-33" y="164" type="curve" smooth="yes"/>
      <point x="-33" y="176"/>
      <point x="-28" y="195"/>
      <point x="-1" y="195" type="curve"/>
    </contour>
  </outline>
</glyph>
<glyph name="hah_meem-ar" format="1">
  <advance width="723"/>
  <unicode hex="FC18"/>
  <outline>
    <contour>
      <point x="586" y="300"/>
      <point x="508" y="321"/>
      <point x="441" y="358" type="curve" smooth="yes"/>
      <point x="407" y="376"/>
      <point x="371" y="391"/>
      <point x="334" y="391" type="curve" smooth="yes"/>
      <point x="313" y="391"/>
      <point x="293" y="386"/>
      <point x="274" y="377" type="curve" smooth="yes"/>
      <point x="242" y="361"/>
      <point x="225" y="337"/>
      <point x="203" y="299" type="curve"/>
      <point x="227" y="266" type="line"/>
      <point x="248" y="284"/>
      <point x="261" y="294"/>
      <point x="294" y="294" type="curve" smooth="yes"/>
      <point x="323" y="294"/>
      <point x="345" y="280"/>
      <point x="382" y="260" type="curve"/>
      <point x="337" y="256"/>
      <point x="303" y="250"/>
      <point x="270" y="238" type="curve" smooth="yes"/>
      <point x="241" y="228"/>
      <point x="212" y="213"/>
      <point x="179" y="190" type="curve"/>
      <point x="173" y="182"/>
      <point x="163" y="164"/>
      <point x="155" y="135" type="curve"/>
      <point x="127" y="120"/>
      <point x="104" y="102"/>
      <point x="87" y="79" type="curve" smooth="yes"/>
      <point x="63" y="47"/>
      <point x="53" y="6"/>
      <point x="64" y="-43" type="curve" smooth="yes"/>
      <point x="72" y="-78"/>
      <point x="81" y="-148"/>
      <point x="87" y="-189" type="curve" smooth="yes"/>
      <point x="94" y="-240"/>
      <point x="100" y="-293"/>
      <point x="104" y="-346" type="curve"/>
      <point x="155" y="-326" type="line"/>
      <point x="157" y="-262"/>
      <point x="155" y="-177"/>
      <point x="150" y="-128" type="curve" smooth="yes"/>
      <point x="146" y="-89"/>
      <point x="140" y="-41"/>
      <point x="132" y="18" type="curve"/>
      <point x="147" y="32"/>
      <point x="178" y="41"/>
      <point x="231" y="41" type="curve" smooth="yes"/>
      <point x="266" y="41"/>
      <point x="286" y="36"/>
      <point x="326" y="24" type="curve"/>
      <point x="350" y="57"/>
      <point x="356" y="68"/>
      <point x="377" y="123" type="curve"/>
      <point x="353" y="143"/>
      <point x="321" y="165"/>
      <point x="296" y="175" type="curve"/>
      <point x="347" y="196"/>
      <point x="415" y="205"/>
      <point x="448" y="205" type="curve" smooth="yes"/>
      <point x="540" y="205"/>
      <point x="599" y="185"/>
      <point x="599" y="185" type="curve"/>
      <point x="631" y="219"/>
      <point x="642" y="233"/>
      <point x="673" y="288" type="curve"/>
    </contour>
  </outline>
</glyph>
<glyph name="seen_meem-ar" format="1">
  <advance width="859"/>
  <unicode hex="FC1F"/>
  <outline>
    <contour>
      <point x="727" y="286"/>
      <point x="711" y="264"/>
      <point x="691" y="234" type="curve"/>
      <point x="740" y="165" type="line"/>
      <point x="728" y="145"/>
      <point x="716" y="135"/>
      <point x="687" y="135" type="curve" smooth="yes"/>
      <point x="674" y="135"/>
      <point x="652" y="137"/>
      <point x="640" y="150" type="curve"/>
      <point x="628" y="162"/>
      <point x="625" y="184"/>
      <point x="626" y="204" type="curve"/>
      <point x="627" y="216"/>
      <point x="629" y="228"/>
      <point x="630" y="240" type="curve"/>
      <point x="579" y="221" type="line"/>
      <point x="579" y="217"/>
      <point x="579" y="193"/>
      <point x="571" y="174" type="curve" smooth="yes"/>
      <point x="562" y="153"/>
      <point x="544" y="132"/>
      <point x="495" y="132" type="curve" smooth="yes"/>
      <point x="458" y="132"/>
      <point x="437" y="143"/>
      <point x="400" y="180" type="curve" smooth="yes"/>
      <point x="380" y="201"/>
      <point x="357" y="225"/>
      <point x="317" y="225" type="curve" smooth="yes"/>
      <point x="259" y="225"/>
      <point x="214" y="174"/>
      <point x="197" y="150" type="curve" smooth="yes"/>
      <point x="177" y="123"/>
      <point x="160" y="76"/>
      <point x="154" y="39" type="curve"/>
      <point x="119" y="19"/>
      <point x="96" y="-5"/>
      <point x="80" y="-35" type="curve" smooth="yes"/>
      <point x="65" y="-64"/>
      <point x="56" y="-101"/>
      <point x="62" y="-140" type="curve" smooth="yes"/>
      <point x="88" y="-302"/>
      <point x="99" y="-368"/>
      <point x="105" y="-444" type="curve"/>
      <point x="161" y="-420" type="line"/>
      <point x="161" y="-420"/>
      <point x="157" y="-320"/>
      <point x="152" y="-257" type="curve" smooth="yes"/>
      <point x="147" y="-202"/>
      <point x="140" y="-136"/>
      <point x="131" y="-79" type="curve"/>
      <point x="142" y="-70"/>
      <point x="177" y="-58"/>
      <point x="230" y="-58" type="curve" smooth="yes"/>
      <point x="262" y="-58"/>
      <point x="279" y="-62"/>
      <point x="325" y="-74" type="curve"/>
      <point x="347" y="-46"/>
      <point x="360" y="-26"/>
      <point x="371" y="14" type="curve"/>
      <point x="342" y="42"/>
      <point x="288" y="77"/>
      <point x="247" y="86" type="curve"/>
      <point x="258" y="95"/>
      <point x="281" y="117"/>
      <point x="322" y="117" type="curve"/>
      <point x="365" y="117"/>
      <point x="381" y="86"/>
      <point x="404" y="57" type="curve" smooth="yes"/>
      <point x="425" y="30"/>
      <point x="451" y="0"/>
      <point x="506" y="0" type="curve" smooth="yes"/>
      <point x="564" y="0"/>
      <point x="591" y="41"/>
      <point x="597" y="53" type="curve"/>
      <point x="605" y="38"/>
      <point x="634" y="10"/>
      <point x="682" y="10" type="curve" smooth="yes"/>
      <point x="726" y="10"/>
      <point x="762" y="34"/>
      <point x="785" y="77" type="curve" smooth="yes"/>
      <point x="805" y="115"/>
      <point x="809" y="154"/>
      <point x="809" y="176" type="curve" smooth="yes"/>
      <point x="809" y="218"/>
      <point x="794" y="267"/>
      <point x="751" y="312" type="curve"/>
    </contour>
  </outline>
</glyph>
<glyph name="uniFC1F" format="1">
  <advance width="859"/>
  <unicode hex="FC1F"/>
  <outline>
    <contour>
      <point x="727" y="286"/>
      <point x="711" y="264"/>
      <point x="691" y="234" type="curve"/>
      <point x="740" y="165" type="line"/>
      <point x="728" y="145"/>
      <point x="716" y="135"/>
      <point x="687" y="135" type="curve" smooth="yes"/>
      <point x="674" y="135"/>
      <point x="652" y="137"/>
      <point x="640" y="150" type="curve"/>
      <point x="628" y="162"/>
      <point x="625" y="184"/>
      <point x="626" y="204" type="curve"/>
      <point x="627" y="216"/>
      <point x="629" y="228"/>
      <point x="630" y="240" type="curve"/>
      <point x="579" y="221" type="line"/>
      <point x="579" y="217"/>
      <point x="579" y="193"/>
      <point x="571" y="174" type="curve" smooth="yes"/>
      <point x="562" y="153"/>
      <point x="544" y="132"/>
      <point x="495" y="132" type="curve" smooth="yes"/>
      <point x="458" y="132"/>
      <point x="437" y="143"/>
      <point x="400" y="180" type="curve" smooth="yes"/>
      <point x="380" y="201"/>
      <point x="357" y="225"/>
      <point x="317" y="225" type="curve" smooth="yes"/>
      <point x="259" y="225"/>
      <point x="214" y="174"/>
      <point x="197" y="150" type="curve" smooth="yes"/>
      <point x="177" y="123"/>
      <point x="154" y="80"/>
      <point x="148" y="43" type="curve"/>
      <point x="109" y="21"/>
      <point x="84" y="-5"/>
      <point x="66" y="-38" type="curve" smooth="yes"/>
      <point x="50" y="-70"/>
      <point x="40" y="-111"/>
      <point x="47" y="-154" type="curve" smooth="yes"/>
      <point x="75" y="-332"/>
      <point x="87" y="-425"/>
      <point x="94" y="-508" type="curve"/>
      <point x="156" y="-482" type="line"/>
      <point x="156" y="-482"/>
      <point x="153" y="-368"/>
      <point x="146" y="-282" type="curve" smooth="yes"/>
      <point x="141" y="-222"/>
      <point x="132" y="-149"/>
      <point x="123" y="-87" type="curve"/>
      <point x="135" y="-77"/>
      <point x="163" y="-57"/>
      <point x="221" y="-57" type="curve" smooth="yes"/>
      <point x="257" y="-57"/>
      <point x="275" y="-66"/>
      <point x="315" y="-81" type="curve"/>
      <point x="339" y="-50"/>
      <point x="353" y="-28"/>
      <point x="366" y="16" type="curve"/>
      <point x="345" y="47"/>
      <point x="288" y="77"/>
      <point x="247" y="86" type="curve"/>
      <point x="258" y="95"/>
      <point x="281" y="117"/>
      <point x="322" y="117" type="curve"/>
      <point x="365" y="117"/>
      <point x="381" y="86"/>
      <point x="404" y="57" type="curve" smooth="yes"/>
      <point x="425" y="30"/>
      <point x="451" y="0"/>
      <point x="506" y="0" type="curve" smooth="yes"/>
      <point x="564" y="0"/>
      <point x="591" y="41"/>
      <point x="597" y="53" type="curve"/>
      <point x="605" y="38"/>
      <point x="634" y="10"/>
      <point x="682" y="10" type="curve" smooth="yes"/>
      <point x="726" y="10"/>
      <point x="762" y="34"/>
      <point x="785" y="77" type="curve" smooth="yes"/>
      <point x="805" y="115"/>
      <point x="809" y="154"/>
      <point x="809" y="176" type="curve" smooth="yes"/>
      <point x="809" y="218"/>
      <point x="794" y="267"/>
      <point x="751" y="312" type="curve"/>
    </contour>
    <contour>
      <point x="430" y="0" type="move" name="caret_1"/>
    </contour>
    <contour>
      <point x="597" y="-31" type="move" name="bottom_1"/>
    </contour>
    <contour>
      <point x="597" y="298" type="move" name="top_1"/>
    </contour>
    <contour>
      <point x="161" y="224" type="move" name="top_2"/>
    </contour>
    <contour>
      <point x="123" y="-526" type="move" name="bottom_2"/>
    </contour>
  </outline>
</glyph>
<glyph name="sad_meem-ar" format="1">
  <advance width="889"/>
  <unicode hex="FC21"/>
  <outline>
    <contour>
      <point x="839" y="279"/>
      <point x="823" y="309"/>
      <point x="795" y="331" type="curve" smooth="yes"/>
      <point x="769" y="351"/>
      <point x="737" y="362"/>
      <point x="709" y="362" type="curve" smooth="yes"/>
      <point x="649" y="362"/>
      <point x="584" y="311"/>
      <point x="528" y="251" type="curve" smooth="yes"/>
      <point x="501" y="222"/>
      <point x="473" y="188"/>
      <point x="439" y="139" type="curve"/>
      <point x="420" y="149"/>
      <point x="416" y="159"/>
      <point x="396" y="186" type="curve" smooth="yes"/>
      <point x="378" y="210"/>
      <point x="351" y="221"/>
      <point x="322" y="220" type="curve" smooth="yes"/>
      <point x="300" y="220"/>
      <point x="277" y="213"/>
      <point x="256" y="201" type="curve" smooth="yes"/>
      <point x="233" y="188"/>
      <point x="211" y="166"/>
      <point x="196" y="145" type="curve" smooth="yes"/>
      <point x="186" y="131"/>
      <point x="173" y="108"/>
      <point x="167" y="92" type="curve" smooth="yes"/>
      <point x="162" y="77"/>
      <point x="158" y="57"/>
      <point x="157" y="38" type="curve"/>
      <point x="124" y="21"/>
      <point x="96" y="-6"/>
      <point x="80" y="-35" type="curve" smooth="yes"/>
      <point x="65" y="-64"/>
      <point x="56" y="-101"/>
      <point x="62" y="-140" type="curve" smooth="yes"/>
      <point x="88" y="-302"/>
      <point x="99" y="-368"/>
      <point x="105" y="-444" type="curve"/>
      <point x="161" y="-420" type="line"/>
      <point x="159" y="-365"/>
      <point x="154" y="-286"/>
      <point x="152" y="-257" type="curve" smooth="yes"/>
      <point x="147" y="-202"/>
      <point x="140" y="-136"/>
      <point x="131" y="-79" type="curve"/>
      <point x="142" y="-70"/>
      <point x="177" y="-58"/>
      <point x="230" y="-58" type="curve" smooth="yes"/>
      <point x="262" y="-58"/>
      <point x="279" y="-62"/>
      <point x="325" y="-74" type="curve"/>
      <point x="347" y="-46"/>
      <point x="360" y="-26"/>
      <point x="371" y="14" type="curve"/>
      <point x="343" y="41"/>
      <point x="286" y="79"/>
      <point x="245" y="86" type="curve"/>
      <point x="263" y="102"/>
      <point x="295" y="117"/>
      <point x="322" y="117" type="curve" smooth="yes"/>
      <point x="367" y="117"/>
      <point x="387" y="86"/>
      <point x="418" y="56" type="curve" smooth="yes"/>
      <point x="445" y="30"/>
      <point x="481" y="6"/>
      <point x="550" y="6" type="curve"/>
      <point x="617" y="10"/>
      <point x="694" y="42"/>
      <point x="739" y="76" type="curve" smooth="yes"/>
      <point x="767" y="97"/>
      <point x="793" y="126"/>
      <point x="810" y="154" type="curve" smooth="yes"/>
      <point x="829" y="186"/>
      <point x="839" y="220"/>
      <point x="839" y="246" type="curve" smooth="yes"/>
    </contour>
    <contour>
      <point x="737" y="183"/>
      <point x="723" y="170"/>
      <point x="699" y="159" type="curve" smooth="yes"/>
      <point x="670" y="146"/>
      <point x="638" y="139"/>
      <point x="603" y="139" type="curve" smooth="yes"/>
      <point x="514" y="139" type="line"/>
      <point x="529" y="160"/>
      <point x="544" y="178"/>
      <point x="559" y="193" type="curve" smooth="yes"/>
      <point x="589" y="224"/>
      <point x="622" y="249"/>
      <point x="667" y="249" type="curve" smooth="yes"/>
      <point x="694" y="249"/>
      <point x="710" y="240"/>
      <point x="722" y="229" type="curve"/>
      <point x="735" y="216"/>
      <point x="742" y="199"/>
      <point x="745" y="191" type="curve"/>
    </contour>
  </outline>
</glyph>
<glyph name="ain_meem-ar" format="1">
  <advance width="602"/>
  <unicode hex="FC2A"/>
  <outline>
    <contour>
      <point x="488" y="368"/>
      <point x="396" y="345"/>
      <point x="362" y="334" type="curve"/>
      <point x="336" y="346"/>
      <point x="300" y="374"/>
      <point x="290" y="412" type="curve"/>
      <point x="304" y="420"/>
      <point x="336" y="436"/>
      <point x="384" y="436" type="curve" smooth="yes"/>
      <point x="410" y="436"/>
      <point x="433" y="431"/>
      <point x="462" y="421" type="curve"/>
      <point x="508" y="463" type="line"/>
      <point x="468" y="523"/>
      <point x="424" y="542"/>
      <point x="380" y="542" type="curve" smooth="yes"/>
      <point x="332" y="542"/>
      <point x="292" y="520"/>
      <point x="260" y="490" type="curve" smooth="yes"/>
      <point x="228" y="460"/>
      <point x="203" y="418"/>
      <point x="203" y="372" type="curve" smooth="yes"/>
      <point x="203" y="341"/>
      <point x="214" y="294"/>
      <point x="256" y="264" type="curve"/>
      <point x="220" y="237"/>
      <point x="203" y="220"/>
      <point x="179" y="190" type="curve"/>
      <point x="167" y="173"/>
      <point x="163" y="164"/>
      <point x="155" y="135" type="curve"/>
      <point x="127" y="120"/>
      <point x="104" y="102"/>
      <point x="87" y="79" type="curve" smooth="yes"/>
      <point x="63" y="47"/>
      <point x="53" y="6"/>
      <point x="64" y="-43" type="curve" smooth="yes"/>
      <point x="72" y="-78"/>
      <point x="81" y="-148"/>
      <point x="87" y="-189" type="curve" smooth="yes"/>
      <point x="94" y="-240"/>
      <point x="100" y="-293"/>
      <point x="104" y="-346" type="curve"/>
      <point x="155" y="-326" type="line"/>
      <point x="157" y="-262"/>
      <point x="155" y="-177"/>
      <point x="150" y="-128" type="curve" smooth="yes"/>
      <point x="146" y="-89"/>
      <point x="140" y="-41"/>
      <point x="132" y="18" type="curve"/>
      <point x="147" y="32"/>
      <point x="178" y="41"/>
      <point x="231" y="41" type="curve" smooth="yes"/>
      <point x="266" y="41"/>
      <point x="286" y="36"/>
      <point x="326" y="24" type="curve"/>
      <point x="350" y="57"/>
      <point x="356" y="68"/>
      <point x="377" y="123" type="curve"/>
      <point x="355" y="142"/>
      <point x="314" y="177"/>
      <point x="275" y="187" type="curve"/>
      <point x="348" y="237"/>
      <point x="429" y="255"/>
      <point x="512" y="275" type="curve"/>
      <point x="531" y="310"/>
      <point x="542" y="346"/>
      <point x="552" y="381" type="curve"/>
    </contour>
  </outline>
</glyph>
<glyph name="uniFC3B" format="1">
  <advance width="813"/>
  <unicode hex="FC3B"/>
  <outline>
    <contour>
      <point x="744" y="194"/>
      <point x="732" y="231"/>
      <point x="710" y="273" type="curve" smooth="yes"/>
      <point x="689" y="312"/>
      <point x="657" y="349"/>
      <point x="616" y="382" type="curve"/>
      <point x="667" y="411"/>
      <point x="738" y="445"/>
      <point x="799" y="470" type="curve"/>
      <point x="812" y="521"/>
      <point x="817" y="558"/>
      <point x="823" y="608" type="curve"/>
      <point x="706" y="554"/>
      <point x="565" y="478"/>
      <point x="489" y="411" type="curve"/>
      <point x="469" y="608" type="line"/>
      <point x="445" y="586"/>
      <point x="412" y="540"/>
      <point x="374" y="483" type="curve"/>
      <point x="374" y="483"/>
      <point x="447" y="-1"/>
      <point x="448" y="-10" type="curve" smooth="yes"/>
      <point x="455" y="-58"/>
      <point x="452" y="-82"/>
      <point x="419" y="-103" type="curve" smooth="yes"/>
      <point x="392" y="-120"/>
      <point x="352" y="-129"/>
      <point x="298" y="-129" type="curve" smooth="yes"/>
      <point x="262" y="-129"/>
      <point x="238" y="-125"/>
      <point x="213" y="-116" type="curve" smooth="yes"/>
      <point x="189" y="-108"/>
      <point x="171" y="-96"/>
      <point x="158" y="-80" type="curve" smooth="yes"/>
      <point x="135" y="-51"/>
      <point x="128" y="-14"/>
      <point x="142" y="55" type="curve"/>
      <point x="99" y="70" type="line"/>
      <point x="78" y="18"/>
      <point x="64" y="-24"/>
      <point x="61" y="-67" type="curve" smooth="yes"/>
      <point x="59" y="-96"/>
      <point x="60" y="-129"/>
      <point x="75" y="-165" type="curve" smooth="yes"/>
      <point x="90" y="-201"/>
      <point x="114" y="-231"/>
      <point x="157" y="-253" type="curve" smooth="yes"/>
      <point x="194" y="-273"/>
      <point x="241" y="-283"/>
      <point x="295" y="-283" type="curve" smooth="yes"/>
      <point x="370" y="-283"/>
      <point x="429" y="-260"/>
      <point x="470" y="-216" type="curve" smooth="yes"/>
      <point x="495" y="-188"/>
      <point x="513" y="-151"/>
      <point x="521" y="-116" type="curve" smooth="yes"/>
      <point x="526" y="-94"/>
      <point x="530" y="-65"/>
      <point x="530" y="-40" type="curve" smooth="yes"/>
      <point x="530" y="-28"/>
      <point x="529" y="-3"/>
      <point x="527" y="23" type="curve"/>
      <point x="542" y="8"/>
      <point x="568" y="0"/>
      <point x="600" y="0" type="curve" smooth="yes"/>
      <point x="689" y="0"/>
      <point x="744" y="54"/>
      <point x="744" y="149" type="curve" smooth="yes"/>
    </contour>
    <contour>
      <point x="645" y="143"/>
      <point x="626" y="132"/>
      <point x="589" y="132" type="curve"/>
      <point x="568" y="132"/>
      <point x="550" y="136"/>
      <point x="536" y="146" type="curve" smooth="yes"/>
      <point x="522" y="157"/>
      <point x="512" y="174"/>
      <point x="510" y="200" type="curve" smooth="yes"/>
      <point x="506" y="243"/>
      <point x="501" y="282"/>
      <point x="497" y="325" type="curve"/>
      <point x="578" y="280"/>
      <point x="663" y="189"/>
      <point x="663" y="166" type="curve"/>
    </contour>
    <contour>
      <point x="407" y="0" type="move" name="caret_1"/>
    </contour>
    <contour>
      <point x="672" y="-29" type="move" name="bottom_1"/>
    </contour>
    <contour>
      <point x="685" y="599" type="move" name="top_1"/>
    </contour>
    <contour>
      <point x="352" y="601" type="move" name="top_2"/>
    </contour>
    <contour>
      <point x="295" y="-313" type="move" name="bottom_2"/>
    </contour>
  </outline>
</glyph>
<glyph name="kaf_alefMaksura-ar" format="1">
  <advance width="644"/>
  <unicode hex="FC3D"/>
  <outline>
    <contour>
      <point x="58" y="-101"/>
      <point x="63" y="-134"/>
      <point x="75" y="-163" type="curve" smooth="yes"/>
      <point x="90" y="-200"/>
      <point x="116" y="-229"/>
      <point x="155" y="-250" type="curve" smooth="yes"/>
      <point x="192" y="-270"/>
      <point x="239" y="-281"/>
      <point x="291" y="-281" type="curve" smooth="yes"/>
      <point x="353" y="-281"/>
      <point x="421" y="-265"/>
      <point x="477" y="-236" type="curve" smooth="yes"/>
      <point x="529" y="-209"/>
      <point x="571" y="-171"/>
      <point x="596" y="-125" type="curve" smooth="yes"/>
      <point x="609" y="-101"/>
      <point x="618" y="-72"/>
      <point x="618" y="-46" type="curve" smooth="yes"/>
      <point x="618" y="3"/>
      <point x="586" y="40"/>
      <point x="540" y="59" type="curve"/>
      <point x="561" y="87"/>
      <point x="576" y="124"/>
      <point x="574" y="166" type="curve"/>
      <point x="572" y="204"/>
      <point x="560" y="237"/>
      <point x="541" y="273" type="curve" smooth="yes"/>
      <point x="520" y="312"/>
      <point x="488" y="349"/>
      <point x="447" y="382" type="curve"/>
      <point x="498" y="411"/>
      <point x="569" y="445"/>
      <point x="630" y="470" type="curve"/>
      <point x="643" y="521"/>
      <point x="648" y="558"/>
      <point x="654" y="608" type="curve"/>
      <point x="535" y="553"/>
      <point x="414" y="486"/>
      <point x="339" y="427" type="curve"/>
      <point x="331" y="394"/>
      <point x="326" y="371"/>
      <point x="321" y="326" type="curve"/>
      <point x="374" y="266" type="line"/>
      <point x="385" y="290" type="line"/>
      <point x="433" y="254"/>
      <point x="499" y="203"/>
      <point x="501" y="140" type="curve"/>
      <point x="485" y="119"/>
      <point x="436" y="96"/>
      <point x="382" y="93" type="curve"/>
      <point x="376" y="67"/>
      <point x="373" y="41"/>
      <point x="369" y="-1" type="curve"/>
      <point x="419" y="-5"/>
      <point x="451" y="-9"/>
      <point x="478" y="-16" type="curve" smooth="yes"/>
      <point x="512" y="-25"/>
      <point x="532" y="-37"/>
      <point x="533" y="-49" type="curve"/>
      <point x="530" y="-56"/>
      <point x="506" y="-76"/>
      <point x="461" y="-96" type="curve"/>
      <point x="431" y="-108"/>
      <point x="373" y="-130"/>
      <point x="299" y="-130" type="curve" smooth="yes"/>
      <point x="229" y="-130"/>
      <point x="184" y="-110"/>
      <point x="159" y="-80" type="curve" smooth="yes"/>
      <point x="133" y="-49"/>
      <point x="128" y="-6"/>
      <point x="142" y="57" type="curve"/>
      <point x="99" y="72" type="line"/>
      <point x="75" y="13"/>
      <point x="64" y="-26"/>
      <point x="61" y="-65" type="curve" smooth="yes"/>
    </contour>
  </outline>
</glyph>
<glyph name="lam_meem-ar" format="1">
  <advance width="426"/>
  <unicode hex="FC42"/>
  <outline>
    <contour>
      <point x="343" y="151"/>
      <point x="310" y="174"/>
      <point x="273" y="188" type="curve"/>
      <point x="285" y="200"/>
      <point x="293" y="214"/>
      <point x="287" y="267" type="curve" smooth="yes"/>
      <point x="285" y="286"/>
      <point x="281" y="310"/>
      <point x="275" y="340" type="curve" smooth="yes"/>
      <point x="271" y="360"/>
      <point x="265" y="390"/>
      <point x="260" y="421" type="curve"/>
      <point x="252" y="458"/>
      <point x="266" y="475"/>
      <point x="298" y="500" type="curve" smooth="yes"/>
      <point x="258" y="541"/>
      <point x="235" y="572"/>
      <point x="210" y="630" type="curve"/>
      <point x="138" y="514" type="line"/>
      <point x="164" y="449"/>
      <point x="181" y="394"/>
      <point x="195" y="336" type="curve" smooth="yes"/>
      <point x="201" y="311"/>
      <point x="216" y="247"/>
      <point x="222" y="211" type="curve"/>
      <point x="215" y="202"/>
      <point x="203" y="202"/>
      <point x="184" y="201" type="curve" smooth="yes"/>
      <point x="171" y="179"/>
      <point x="162" y="163"/>
      <point x="154" y="136" type="curve"/>
      <point x="122" y="120"/>
      <point x="97" y="95"/>
      <point x="80" y="63" type="curve" smooth="yes"/>
      <point x="65" y="34"/>
      <point x="56" y="-3"/>
      <point x="62" y="-42" type="curve" smooth="yes"/>
      <point x="88" y="-204"/>
      <point x="99" y="-270"/>
      <point x="105" y="-346" type="curve"/>
      <point x="161" y="-322" type="line"/>
      <point x="161" y="-322"/>
      <point x="157" y="-222"/>
      <point x="152" y="-159" type="curve" smooth="yes"/>
      <point x="147" y="-104"/>
      <point x="140" y="-38"/>
      <point x="131" y="19" type="curve"/>
      <point x="138" y="24"/>
      <point x="177" y="40"/>
      <point x="230" y="40" type="curve"/>
      <point x="266" y="40"/>
      <point x="292" y="33"/>
      <point x="325" y="24" type="curve"/>
      <point x="351" y="57"/>
      <point x="362" y="81"/>
      <point x="376" y="124" type="curve" smooth="yes"/>
    </contour>
  </outline>
</glyph>
<glyph name="lam_alefMaksura-ar" format="1">
  <advance width="668"/>
  <unicode hex="FC43"/>
  <outline>
    <contour>
      <point x="542" y="523"/>
      <point x="518" y="553"/>
      <point x="497" y="608" type="curve"/>
      <point x="422" y="493" type="line"/>
      <point x="422" y="493"/>
      <point x="440" y="438"/>
      <point x="453" y="387" type="curve" smooth="yes"/>
      <point x="465" y="338"/>
      <point x="487" y="232"/>
      <point x="497" y="142" type="curve"/>
      <point x="481" y="121"/>
      <point x="436" y="96"/>
      <point x="382" y="93" type="curve"/>
      <point x="376" y="67"/>
      <point x="373" y="41"/>
      <point x="369" y="-1" type="curve"/>
      <point x="419" y="-5"/>
      <point x="451" y="-9"/>
      <point x="478" y="-16" type="curve" smooth="yes"/>
      <point x="512" y="-25"/>
      <point x="532" y="-37"/>
      <point x="533" y="-49" type="curve"/>
      <point x="530" y="-56"/>
      <point x="506" y="-76"/>
      <point x="461" y="-96" type="curve"/>
      <point x="431" y="-108"/>
      <point x="373" y="-130"/>
      <point x="299" y="-130" type="curve" smooth="yes"/>
      <point x="229" y="-130"/>
      <point x="184" y="-110"/>
      <point x="159" y="-80" type="curve" smooth="yes"/>
      <point x="133" y="-49"/>
      <point x="128" y="-6"/>
      <point x="142" y="57" type="curve"/>
      <point x="99" y="72" type="line"/>
      <point x="75" y="13"/>
      <point x="64" y="-26"/>
      <point x="61" y="-65" type="curve" smooth="yes"/>
      <point x="58" y="-101"/>
      <point x="63" y="-134"/>
      <point x="75" y="-163" type="curve" smooth="yes"/>
      <point x="90" y="-200"/>
      <point x="116" y="-229"/>
      <point x="155" y="-250" type="curve" smooth="yes"/>
      <point x="192" y="-270"/>
      <point x="239" y="-281"/>
      <point x="291" y="-281" type="curve" smooth="yes"/>
      <point x="353" y="-281"/>
      <point x="421" y="-265"/>
      <point x="477" y="-236" type="curve" smooth="yes"/>
      <point x="529" y="-209"/>
      <point x="571" y="-171"/>
      <point x="596" y="-125" type="curve" smooth="yes"/>
      <point x="609" y="-101"/>
      <point x="618" y="-72"/>
      <point x="618" y="-46" type="curve" smooth="yes"/>
      <point x="618" y="3"/>
      <point x="586" y="40"/>
      <point x="540" y="59" type="curve"/>
      <point x="561" y="88"/>
      <point x="576" y="129"/>
      <point x="576" y="171" type="curve" smooth="yes"/>
      <point x="576" y="205"/>
      <point x="566" y="265"/>
      <point x="558" y="324" type="curve" smooth="yes"/>
      <point x="554" y="349"/>
      <point x="557" y="331"/>
      <point x="547" y="398" type="curve" smooth="yes"/>
      <point x="539" y="454"/>
      <point x="568" y="471"/>
      <point x="585" y="479" type="curve"/>
    </contour>
  </outline>
</glyph>
<glyph name="meem_alefMaksura-ar" format="1">
  <advance width="814"/>
  <unicode hex="FC49"/>
  <outline>
    <contour>
      <point x="731" y="277"/>
      <point x="705" y="290"/>
      <point x="670" y="298" type="curve" smooth="yes"/>
      <point x="650" y="302"/>
      <point x="627" y="307"/>
      <point x="615" y="312" type="curve"/>
      <point x="599" y="291"/>
      <point x="588" y="272"/>
      <point x="582" y="253" type="curve" smooth="yes"/>
      <point x="575" y="233"/>
      <point x="575" y="212"/>
      <point x="582" y="186" type="curve"/>
      <point x="565" y="178"/>
      <point x="513" y="145"/>
      <point x="483" y="116" type="curve" smooth="yes"/>
      <point x="470" y="104"/>
      <point x="452" y="83"/>
      <point x="443" y="63" type="curve" smooth="yes"/>
      <point x="436" y="47"/>
      <point x="434" y="40"/>
      <point x="426" y="-6" type="curve"/>
      <point x="471" y="-6"/>
      <point x="531" y="-25"/>
      <point x="533" y="-49" type="curve"/>
      <point x="533" y="-57"/>
      <point x="504" y="-82"/>
      <point x="459" y="-100" type="curve" smooth="yes"/>
      <point x="421" y="-115"/>
      <point x="368" y="-128"/>
      <point x="303" y="-128" type="curve" smooth="yes"/>
      <point x="231" y="-128"/>
      <point x="186" y="-112"/>
      <point x="159" y="-80" type="curve" smooth="yes"/>
      <point x="135" y="-51"/>
      <point x="129" y="-16"/>
      <point x="142" y="57" type="curve"/>
      <point x="99" y="72" type="line"/>
      <point x="84" y="36"/>
      <point x="71" y="2"/>
      <point x="64" y="-43" type="curve" smooth="yes"/>
      <point x="57" y="-87"/>
      <point x="59" y="-125"/>
      <point x="75" y="-163" type="curve" smooth="yes"/>
      <point x="90" y="-199"/>
      <point x="114" y="-227"/>
      <point x="154" y="-249" type="curve" smooth="yes"/>
      <point x="192" y="-270"/>
      <point x="236" y="-281"/>
      <point x="290" y="-281" type="curve" smooth="yes"/>
      <point x="356" y="-281"/>
      <point x="421" y="-265"/>
      <point x="478" y="-235" type="curve" smooth="yes"/>
      <point x="531" y="-207"/>
      <point x="571" y="-172"/>
      <point x="596" y="-125" type="curve" smooth="yes"/>
      <point x="613" y="-94"/>
      <point x="618" y="-64"/>
      <point x="618" y="-44" type="curve" smooth="yes"/>
      <point x="618" y="3"/>
      <point x="591" y="45"/>
      <point x="536" y="60" type="curve"/>
      <point x="578" y="98"/>
      <point x="629" y="119"/>
      <point x="690" y="125" type="curve"/>
      <point x="733" y="128"/>
      <point x="748" y="136"/>
      <point x="759" y="183" type="curve" smooth="yes"/>
      <point x="768" y="220"/>
      <point x="765" y="244"/>
      <point x="745" y="263" type="curve" smooth="yes"/>
    </contour>
  </outline>
</glyph>
<glyph name="heh_alefMaksura-ar" format="1">
  <advance width="914"/>
  <unicode hex="FC53"/>
  <outline>
    <contour>
      <point x="864" y="252"/>
      <point x="846" y="289"/>
      <point x="826" y="317" type="curve" smooth="yes"/>
      <point x="801" y="353"/>
      <point x="769" y="378"/>
      <point x="729" y="402" type="curve" smooth="yes"/>
      <point x="709" y="414"/>
      <point x="689" y="425"/>
      <point x="668" y="435" type="curve" smooth="yes"/>
      <point x="635" y="451"/>
      <point x="628" y="455"/>
      <point x="605" y="471" type="curve"/>
      <point x="595" y="454"/>
      <point x="584" y="437"/>
      <point x="575" y="420" type="curve" smooth="yes"/>
      <point x="561" y="394"/>
      <point x="557" y="376"/>
      <point x="574" y="365" type="curve" smooth="yes"/>
      <point x="582" y="360" type="line"/>
      <point x="558" y="350"/>
      <point x="539" y="334"/>
      <point x="525" y="315" type="curve" smooth="yes"/>
      <point x="506" y="289"/>
      <point x="496" y="257"/>
      <point x="497" y="227" type="curve" smooth="yes"/>
      <point x="498" y="192"/>
      <point x="514" y="158"/>
      <point x="549" y="140" type="curve"/>
      <point x="530" y="127"/>
      <point x="509" y="117"/>
      <point x="490" y="110" type="curve" smooth="yes"/>
      <point x="474" y="104"/>
      <point x="459" y="98"/>
      <point x="450" y="92" type="curve" smooth="yes"/>
      <point x="422" y="73"/>
      <point x="420" y="44"/>
      <point x="413" y="-1" type="curve"/>
      <point x="413" y="-1"/>
      <point x="444" y="-7"/>
      <point x="470" y="-14" type="curve" smooth="yes"/>
      <point x="501" y="-23"/>
      <point x="533" y="-36"/>
      <point x="533" y="-52" type="curve" smooth="yes"/>
      <point x="533" y="-76"/>
      <point x="495" y="-95"/>
      <point x="431" y="-113" type="curve" smooth="yes"/>
      <point x="399" y="-122"/>
      <point x="351" y="-132"/>
      <point x="301" y="-132" type="curve" smooth="yes"/>
      <point x="232" y="-132"/>
      <point x="184" y="-113"/>
      <point x="159" y="-83" type="curve" smooth="yes"/>
      <point x="129" y="-48"/>
      <point x="130" y="3"/>
      <point x="142" y="54" type="curve"/>
      <point x="99" y="69" type="line"/>
      <point x="79" y="22"/>
      <point x="65" y="-15"/>
      <point x="61" y="-62" type="curve" smooth="yes"/>
      <point x="58" y="-96"/>
      <point x="61" y="-132"/>
      <point x="75" y="-166" type="curve" smooth="yes"/>
      <point x="90" y="-203"/>
      <point x="116" y="-232"/>
      <point x="155" y="-253" type="curve" smooth="yes"/>
      <point x="192" y="-273"/>
      <point x="239" y="-284"/>
      <point x="291" y="-284" type="curve" smooth="yes"/>
      <point x="353" y="-284"/>
      <point x="421" y="-268"/>
      <point x="477" y="-239" type="curve" smooth="yes"/>
      <point x="530" y="-212"/>
      <point x="572" y="-171"/>
      <point x="595" y="-128" type="curve" smooth="yes"/>
      <point x="612" y="-96"/>
      <point x="618" y="-66"/>
      <point x="619" y="-43" type="curve"/>
      <point x="619" y="-1"/>
      <point x="602" y="24"/>
      <point x="566" y="43" type="curve"/>
      <point x="577" y="50"/>
      <point x="607" y="71"/>
      <point x="646" y="105" type="curve"/>
      <point x="686" y="93"/>
      <point x="740" y="67"/>
      <point x="767" y="52" type="curve"/>
      <point x="810" y="97"/>
      <point x="816" y="104"/>
      <point x="823" y="112" type="curve" smooth="yes"/>
      <point x="849" y="142"/>
      <point x="864" y="173"/>
      <point x="864" y="211" type="curve" smooth="yes"/>
    </contour>
    <contour>
      <point x="669" y="259"/>
      <point x="666" y="247"/>
      <point x="652" y="237" type="curve"/>
      <point x="638" y="228"/>
      <point x="626" y="227"/>
      <point x="622" y="227" type="curve" smooth="yes"/>
      <point x="617" y="227"/>
      <point x="601" y="228"/>
      <point x="580" y="239" type="curve"/>
      <point x="566" y="247"/>
      <point x="559" y="256"/>
      <point x="557" y="260" type="curve"/>
      <point x="558" y="263"/>
      <point x="565" y="274"/>
      <point x="586" y="293" type="curve"/>
      <point x="611" y="314"/>
      <point x="625" y="319"/>
      <point x="632" y="319" type="curve" smooth="yes"/>
      <point x="642" y="319"/>
      <point x="651" y="307"/>
      <point x="656" y="297" type="curve"/>
      <point x="665" y="281"/>
      <point x="669" y="266"/>
      <point x="669" y="262" type="curve" smooth="yes"/>
    </contour>
    <contour>
      <point x="740" y="197"/>
      <point x="723" y="201"/>
      <point x="700" y="207" type="curve"/>
      <point x="709" y="222"/>
      <point x="715" y="236"/>
      <point x="717" y="249" type="curve" smooth="yes"/>
      <point x="720" y="266"/>
      <point x="718" y="281"/>
      <point x="715" y="297" type="curve"/>
      <point x="735" y="283"/>
      <point x="750" y="269"/>
      <point x="761" y="253" type="curve" smooth="yes"/>
      <point x="775" y="233"/>
      <point x="781" y="210"/>
      <point x="780" y="186" type="curve"/>
    </contour>
  </outline>
</glyph>
<glyph name="kaf_alefMaksura-ar.fina" format="1">
  <advance width="770"/>
  <unicode hex="FC83"/>
  <outline>
    <contour>
      <point x="714" y="139" type="line" smooth="yes"/>
      <point x="660" y="139"/>
      <point x="637" y="169"/>
      <point x="609" y="201" type="curve" smooth="yes"/>
      <point x="582" y="232"/>
      <point x="556" y="262"/>
      <point x="529" y="293" type="curve" smooth="yes"/>
      <point x="504" y="321"/>
      <point x="478" y="349"/>
      <point x="456" y="372" type="curve"/>
      <point x="513" y="407"/>
      <point x="584" y="442"/>
      <point x="655" y="470" type="curve"/>
      <point x="667" y="518"/>
      <point x="674" y="558"/>
      <point x="679" y="608" type="curve"/>
      <point x="559" y="551"/>
      <point x="431" y="484"/>
      <point x="364" y="427" type="curve"/>
      <point x="357" y="395"/>
      <point x="354" y="372"/>
      <point x="351" y="338" type="curve"/>
      <point x="374" y="314"/>
      <point x="413" y="272"/>
      <point x="432" y="250" type="curve"/>
      <point x="454" y="226"/>
      <point x="487" y="192"/>
      <point x="527" y="141" type="curve"/>
      <point x="510" y="112"/>
      <point x="489" y="94"/>
      <point x="467" y="83" type="curve" smooth="yes"/>
      <point x="440" y="69"/>
      <point x="411" y="65"/>
      <point x="382" y="63" type="curve"/>
      <point x="376" y="37"/>
      <point x="373" y="11"/>
      <point x="369" y="-31" type="curve"/>
      <point x="419" y="-35"/>
      <point x="451" y="-39"/>
      <point x="478" y="-46" type="curve" smooth="yes"/>
      <point x="512" y="-55"/>
      <point x="532" y="-67"/>
      <point x="533" y="-79" type="curve"/>
      <point x="530" y="-86"/>
      <point x="506" y="-106"/>
      <point x="461" y="-126" type="curve"/>
      <point x="431" y="-138"/>
      <point x="373" y="-160"/>
      <point x="299" y="-160" type="curve" smooth="yes"/>
      <point x="229" y="-160"/>
      <point x="184" y="-140"/>
      <point x="159" y="-110" type="curve" smooth="yes"/>
      <point x="133" y="-79"/>
      <point x="128" y="-36"/>
      <point x="142" y="27" type="curve"/>
      <point x="99" y="42" type="line"/>
      <point x="75" y="-17"/>
      <point x="64" y="-56"/>
      <point x="61" y="-95" type="curve" smooth="yes"/>
      <point x="58" y="-131"/>
      <point x="63" y="-164"/>
      <point x="75" y="-193" type="curve" smooth="yes"/>
      <point x="90" y="-230"/>
      <point x="116" y="-259"/>
      <point x="155" y="-280" type="curve" smooth="yes"/>
      <point x="192" y="-300"/>
      <point x="239" y="-311"/>
      <point x="291" y="-311" type="curve" smooth="yes"/>
      <point x="353" y="-311"/>
      <point x="421" y="-295"/>
      <point x="477" y="-266" type="curve" smooth="yes"/>
      <point x="529" y="-239"/>
      <point x="571" y="-201"/>
      <point x="596" y="-155" type="curve" smooth="yes"/>
      <point x="609" y="-131"/>
      <point x="618" y="-102"/>
      <point x="618" y="-76" type="curve" smooth="yes"/>
      <point x="618" y="-27"/>
      <point x="586" y="10"/>
      <point x="540" y="29" type="curve"/>
      <point x="552" y="46"/>
      <point x="563" y="65"/>
      <point x="569" y="88" type="curve"/>
      <point x="589" y="65"/>
      <point x="610" y="44"/>
      <point x="634" y="28" type="curve" smooth="yes"/>
      <point x="660" y="11"/>
      <point x="690" y="0"/>
      <point x="728" y="0" type="curve" smooth="yes"/>
      <point x="770" y="0" type="line"/>
      <point x="770" y="139" type="line"/>
    </contour>
  </outline>
</glyph>
<glyph name="uniFC83" format="1">
  <advance width="780"/>
  <unicode hex="FC83"/>
  <outline>
    <contour>
      <point x="724" y="139" type="line" smooth="yes"/>
      <point x="670" y="139"/>
      <point x="647" y="169"/>
      <point x="619" y="201" type="curve" smooth="yes"/>
      <point x="592" y="232"/>
      <point x="566" y="262"/>
      <point x="539" y="293" type="curve" smooth="yes"/>
      <point x="514" y="321"/>
      <point x="488" y="349"/>
      <point x="466" y="372" type="curve"/>
      <point x="523" y="407"/>
      <point x="594" y="442"/>
      <point x="665" y="470" type="curve"/>
      <point x="677" y="518"/>
      <point x="684" y="558"/>
      <point x="689" y="608" type="curve"/>
      <point x="569" y="551"/>
      <point x="441" y="484"/>
      <point x="374" y="427" type="curve"/>
      <point x="367" y="395"/>
      <point x="364" y="372"/>
      <point x="361" y="338" type="curve"/>
      <point x="384" y="314"/>
      <point x="423" y="272"/>
      <point x="442" y="250" type="curve"/>
      <point x="464" y="226"/>
      <point x="497" y="192"/>
      <point x="537" y="141" type="curve"/>
      <point x="520" y="112"/>
      <point x="499" y="94"/>
      <point x="477" y="83" type="curve" smooth="yes"/>
      <point x="450" y="69"/>
      <point x="421" y="65"/>
      <point x="392" y="63" type="curve"/>
      <point x="386" y="37"/>
      <point x="383" y="11"/>
      <point x="379" y="-31" type="curve"/>
      <point x="429" y="-35"/>
      <point x="461" y="-39"/>
      <point x="488" y="-46" type="curve" smooth="yes"/>
      <point x="522" y="-55"/>
      <point x="542" y="-67"/>
      <point x="543" y="-79" type="curve"/>
      <point x="530" y="-108"/>
      <point x="489" y="-130"/>
      <point x="439" y="-143" type="curve" smooth="yes"/>
      <point x="395" y="-154"/>
      <point x="345" y="-160"/>
      <point x="299" y="-160" type="curve" smooth="yes"/>
      <point x="229" y="-160"/>
      <point x="184" y="-140"/>
      <point x="159" y="-110" type="curve" smooth="yes"/>
      <point x="133" y="-79"/>
      <point x="128" y="-36"/>
      <point x="142" y="27" type="curve"/>
      <point x="99" y="42" type="line"/>
      <point x="75" y="-17"/>
      <point x="64" y="-56"/>
      <point x="61" y="-95" type="curve" smooth="yes"/>
      <point x="58" y="-131"/>
      <point x="63" y="-164"/>
      <point x="75" y="-193" type="curve" smooth="yes"/>
      <point x="90" y="-230"/>
      <point x="116" y="-259"/>
      <point x="155" y="-280" type="curve" smooth="yes"/>
      <point x="192" y="-300"/>
      <point x="239" y="-311"/>
      <point x="291" y="-311" type="curve" smooth="yes"/>
      <point x="353" y="-311"/>
      <point x="415" y="-299"/>
      <point x="468" y="-276" type="curve" smooth="yes"/>
      <point x="517" y="-255"/>
      <point x="559" y="-224"/>
      <point x="586" y="-184" type="curve" smooth="yes"/>
      <point x="606" y="-154"/>
      <point x="618" y="-117"/>
      <point x="618" y="-76" type="curve" smooth="yes"/>
      <point x="618" y="-27"/>
      <point x="586" y="10"/>
      <point x="540" y="29" type="curve"/>
      <point x="559" y="44"/>
      <point x="573" y="65"/>
      <point x="579" y="88" type="curve"/>
      <point x="599" y="65"/>
      <point x="620" y="44"/>
      <point x="644" y="28" type="curve" smooth="yes"/>
      <point x="670" y="11"/>
      <point x="700" y="0"/>
      <point x="738" y="0" type="curve" smooth="yes"/>
      <point x="780" y="0" type="line"/>
      <point x="780" y="139" type="line"/>
    </contour>
    <contour>
      <point x="395" y="0" type="move" name="caret_1"/>
    </contour>
    <contour>
      <point x="561" y="-279" type="move" name="bottom_1"/>
    </contour>
    <contour>
      <point x="488" y="580" type="move" name="top_1"/>
    </contour>
    <contour>
      <point x="249" y="47" type="move" name="top_2"/>
    </contour>
    <contour>
      <point x="301" y="-331" type="move" name="bottom_2"/>
    </contour>
  </outline>
</glyph>
<glyph name="lam_alefMaksura-ar.fina" format="1">
  <advance width="728"/>
  <unicode hex="FC86"/>
  <outline>
    <contour>
      <point x="504" y="566"/>
      <point x="479" y="531"/>
      <point x="447" y="479" type="curve"/>
      <point x="447" y="479"/>
      <point x="473" y="357"/>
      <point x="484" y="275" type="curve" smooth="yes"/>
      <point x="493" y="202"/>
      <point x="497" y="173"/>
      <point x="504" y="121" type="curve"/>
      <point x="477" y="87"/>
      <point x="429" y="67"/>
      <point x="382" y="65" type="curve"/>
      <point x="374" y="37"/>
      <point x="369" y="10"/>
      <point x="369" y="-29" type="curve"/>
      <point x="419" y="-33"/>
      <point x="451" y="-37"/>
      <point x="478" y="-44" type="curve" smooth="yes"/>
      <point x="512" y="-53"/>
      <point x="532" y="-65"/>
      <point x="533" y="-77" type="curve"/>
      <point x="533" y="-97"/>
      <point x="495" y="-117"/>
      <point x="446" y="-132" type="curve" smooth="yes"/>
      <point x="398" y="-148"/>
      <point x="340" y="-158"/>
      <point x="299" y="-158" type="curve" smooth="yes"/>
      <point x="229" y="-158"/>
      <point x="184" y="-138"/>
      <point x="159" y="-108" type="curve" smooth="yes"/>
      <point x="133" y="-77"/>
      <point x="128" y="-34"/>
      <point x="142" y="29" type="curve"/>
      <point x="99" y="44" type="line"/>
      <point x="75" y="-15"/>
      <point x="64" y="-54"/>
      <point x="61" y="-93" type="curve" smooth="yes"/>
      <point x="58" y="-129"/>
      <point x="63" y="-162"/>
      <point x="75" y="-191" type="curve" smooth="yes"/>
      <point x="91" y="-229"/>
      <point x="116" y="-257"/>
      <point x="155" y="-278" type="curve" smooth="yes"/>
      <point x="192" y="-298"/>
      <point x="240" y="-309"/>
      <point x="288" y="-309" type="curve" smooth="yes"/>
      <point x="339" y="-309"/>
      <point x="398" y="-297"/>
      <point x="451" y="-274" type="curve" smooth="yes"/>
      <point x="504" y="-251"/>
      <point x="557" y="-214"/>
      <point x="586" y="-162" type="curve" smooth="yes"/>
      <point x="600" y="-137"/>
      <point x="608" y="-110"/>
      <point x="608" y="-82" type="curve" smooth="yes"/>
      <point x="608" y="-30"/>
      <point x="580" y="9"/>
      <point x="534" y="26" type="curve"/>
      <point x="543" y="39"/>
      <point x="552" y="54"/>
      <point x="559" y="71" type="curve"/>
      <point x="568" y="53"/>
      <point x="598" y="0"/>
      <point x="672" y="0" type="curve" smooth="yes"/>
      <point x="728" y="0" type="line"/>
      <point x="728" y="139" type="line"/>
      <point x="645" y="139" type="line" smooth="yes"/>
      <point x="624" y="139"/>
      <point x="611" y="145"/>
      <point x="602" y="154" type="curve" smooth="yes"/>
      <point x="587" y="169"/>
      <point x="585" y="190"/>
      <point x="584" y="200" type="curve" smooth="yes"/>
      <point x="547" y="567"/>
      <point x="543" y="608"/>
      <point x="543" y="608" type="curve"/>
    </contour>
  </outline>
</glyph>
<glyph name="uniFC86" format="1">
  <advance width="758"/>
  <unicode hex="FC86"/>
  <outline>
    <contour>
      <point x="514" y="566"/>
      <point x="489" y="531"/>
      <point x="457" y="479" type="curve"/>
      <point x="457" y="479"/>
      <point x="483" y="357"/>
      <point x="494" y="275" type="curve" smooth="yes"/>
      <point x="503" y="202"/>
      <point x="507" y="173"/>
      <point x="514" y="121" type="curve"/>
      <point x="487" y="87"/>
      <point x="439" y="67"/>
      <point x="392" y="65" type="curve"/>
      <point x="384" y="37"/>
      <point x="379" y="10"/>
      <point x="379" y="-29" type="curve"/>
      <point x="429" y="-33"/>
      <point x="461" y="-37"/>
      <point x="488" y="-44" type="curve" smooth="yes"/>
      <point x="522" y="-53"/>
      <point x="542" y="-65"/>
      <point x="543" y="-77" type="curve"/>
      <point x="543" y="-107"/>
      <point x="485" y="-131"/>
      <point x="420" y="-144" type="curve" smooth="yes"/>
      <point x="378" y="-153"/>
      <point x="334" y="-158"/>
      <point x="299" y="-158" type="curve" smooth="yes"/>
      <point x="229" y="-158"/>
      <point x="184" y="-138"/>
      <point x="159" y="-108" type="curve" smooth="yes"/>
      <point x="133" y="-77"/>
      <point x="128" y="-34"/>
      <point x="142" y="29" type="curve"/>
      <point x="99" y="44" type="line"/>
      <point x="75" y="-15"/>
      <point x="64" y="-54"/>
      <point x="61" y="-93" type="curve" smooth="yes"/>
      <point x="58" y="-129"/>
      <point x="63" y="-162"/>
      <point x="75" y="-191" type="curve" smooth="yes"/>
      <point x="91" y="-229"/>
      <point x="116" y="-257"/>
      <point x="155" y="-278" type="curve" smooth="yes"/>
      <point x="192" y="-298"/>
      <point x="240" y="-309"/>
      <point x="288" y="-309" type="curve" smooth="yes"/>
      <point x="343" y="-309"/>
      <point x="403" y="-299"/>
      <point x="456" y="-276" type="curve" smooth="yes"/>
      <point x="499" y="-258"/>
      <point x="537" y="-231"/>
      <point x="567" y="-195" type="curve" smooth="yes"/>
      <point x="593" y="-164"/>
      <point x="608" y="-125"/>
      <point x="608" y="-82" type="curve" smooth="yes"/>
      <point x="608" y="-30"/>
      <point x="580" y="9"/>
      <point x="534" y="26" type="curve"/>
      <point x="555" y="37"/>
      <point x="566" y="51"/>
      <point x="576" y="71" type="curve"/>
      <point x="585" y="53"/>
      <point x="618" y="0"/>
      <point x="689" y="0" type="curve" smooth="yes"/>
      <point x="758" y="0" type="line"/>
      <point x="758" y="139" type="line"/>
      <point x="655" y="139" type="line" smooth="yes"/>
      <point x="634" y="139"/>
      <point x="621" y="145"/>
      <point x="612" y="154" type="curve" smooth="yes"/>
      <point x="597" y="169"/>
      <point x="595" y="190"/>
      <point x="594" y="200" type="curve" smooth="yes"/>
      <point x="557" y="567"/>
      <point x="553" y="608"/>
      <point x="553" y="608" type="curve"/>
    </contour>
    <contour>
      <point x="374" y="0" type="move" name="caret_1"/>
    </contour>
    <contour>
      <point x="578" y="-266" type="move" name="bottom_1"/>
    </contour>
    <contour>
      <point x="477" y="638" type="move" name="top_1"/>
    </contour>
    <contour>
      <point x="253" y="61" type="move" name="top_2"/>
    </contour>
    <contour>
      <point x="298" y="-339" type="move" name="bottom_2"/>
    </contour>
  </outline>
</glyph>
<glyph name="hah_meem-ar.init" format="1">
  <advance width="658"/>
  <unicode hex="FCAA"/>
  <outline>
    <contour>
      <point x="520" y="315"/>
      <point x="437" y="343"/>
      <point x="375" y="376" type="curve" smooth="yes"/>
      <point x="345" y="392"/>
      <point x="325" y="401"/>
      <point x="298" y="407" type="curve"/>
      <point x="265" y="413"/>
      <point x="236" y="409"/>
      <point x="209" y="396" type="curve" smooth="yes"/>
      <point x="177" y="380"/>
      <point x="158" y="353"/>
      <point x="141" y="322" type="curve"/>
      <point x="167" y="273" type="line"/>
      <point x="182" y="303"/>
      <point x="199" y="312"/>
      <point x="223" y="313" type="curve" smooth="yes"/>
      <point x="257" y="313"/>
      <point x="278" y="300"/>
      <point x="316" y="279" type="curve"/>
      <point x="279" y="279"/>
      <point x="245" y="267"/>
      <point x="215" y="252" type="curve" smooth="yes"/>
      <point x="176" y="233"/>
      <point x="144" y="206"/>
      <point x="126" y="187" type="curve"/>
      <point x="102" y="164"/>
      <point x="79" y="139"/>
      <point x="46" y="139" type="curve" smooth="yes"/>
      <point x="-11" y="139" type="line" smooth="yes"/>
      <point x="-63" y="139"/>
      <point x="-80" y="88"/>
      <point x="-80" y="69" type="curve" smooth="yes"/>
      <point x="-80" y="47"/>
      <point x="-64" y="0"/>
      <point x="-11" y="0" type="curve" smooth="yes"/>
      <point x="19" y="0" type="line" smooth="yes"/>
      <point x="58" y="0"/>
      <point x="86" y="15"/>
      <point x="102" y="45" type="curve"/>
      <point x="154" y="15"/>
      <point x="193" y="-5"/>
      <point x="251" y="-11" type="curve"/>
      <point x="286" y="18"/>
      <point x="307" y="57"/>
      <point x="308" y="98" type="curve" smooth="yes"/>
      <point x="308" y="127"/>
      <point x="301" y="160"/>
      <point x="266" y="190" type="curve"/>
      <point x="292" y="210"/>
      <point x="330" y="221"/>
      <point x="373" y="225" type="curve" smooth="yes"/>
      <point x="425" y="230"/>
      <point x="484" y="222"/>
      <point x="534" y="204" type="curve"/>
      <point x="570" y="244"/>
      <point x="583" y="265"/>
      <point x="608" y="307" type="curve"/>
    </contour>
    <contour>
      <point x="211" y="98"/>
      <point x="179" y="107"/>
      <point x="141" y="133" type="curve"/>
      <point x="152" y="147"/>
      <point x="166" y="157"/>
      <point x="186" y="157" type="curve" smooth="yes"/>
      <point x="237" y="157"/>
      <point x="249" y="103"/>
      <point x="249" y="90" type="curve"/>
    </contour>
  </outline>
</glyph>
